# MagicaVoxel @ Ephtracy

# group
o 

# material
mtllib Twilght.vox.mtl
usemtl palette

# normals
vn -1 0 0
vn 1 0 0
vn 0 0 1
vn 0 0 -1
vn 0 -1 0
vn 0 1 0

# texcoords
vt 0.658203 0.5
vt 0.720703 0.5
vt 0.724609 0.5
vt 0.751953 0.5
vt 0.814453 0.5
vt 0.845703 0.5
vt 0.908203 0.5
vt 0.912109 0.5
vt 0.916016 0.5
vt 0.970703 0.5
vt 0.978516 0.5
vt 0.986328 0.5

# verts
v 0 1.3 1.7
v 0 1.3 1.5
v 0 1.6 1.7
v 0 1.6 1.5
v 0.1 1.2 1.7
v 0.1 1.2 1.5
v 0.1 1.3 1.7
v 0.1 1.3 1.5
v 0.1 1.3 1.3
v 0.1 1.5 1.4
v 0.1 1.5 1.3
v 0.1 1.6 1.7
v 0.1 1.6 1.5
v 0.1 1.6 1.4
v 0.1 1.7 1.7
v 0.1 1.7 1.5
v 0.2 1.1 1.7
v 0.2 1.1 1.5
v 0.2 1.2 1.7
v 0.2 1.2 1.5
v 0.2 1.2 1.3
v 0.2 1.3 1.5
v 0.2 1.3 1.3
v 0.2 1.5 1.7
v 0.2 1.5 1.6
v 0.2 1.6 1.7
v 0.2 1.6 1.6
v 0.3 1.4 1.7
v 0.3 1.4 1.6
v 0.3 1.5 1.7
v 0.3 1.5 1.6
v 0.4 0.8 1.6
v 0.4 0.8 1.4
v 0.4 0.9 1.7
v 0.4 0.9 1.6
v 0.4 0.9 1.4
v 0.4 0.9 1.3
v 0.4 1 1.8
v 0.4 1 1.7
v 0.4 1 1.6
v 0.4 1 1.4
v 0.4 1 1.3
v 0.4 1 1.2
v 0.4 1.1 1.9
v 0.4 1.1 1.8
v 0.4 1.1 1.7
v 0.4 1.1 1.5
v 0.4 1.1 1.3
v 0.4 1.1 1.2
v 0.4 1.1 1.1
v 0.4 1.2 1.7
v 0.4 1.2 1.6
v 0.4 1.2 1.5
v 0.4 1.2 1.3
v 0.4 1.3 1.4
v 0.4 1.3 1.3
v 0.4 1.4 1.9
v 0.4 1.4 1.8
v 0.4 1.4 1.7
v 0.4 1.4 1.6
v 0.4 1.4 1.5
v 0.4 1.4 1.4
v 0.4 1.4 1.2
v 0.4 1.4 1.1
v 0.4 1.5 1.8
v 0.4 1.5 1.7
v 0.4 1.5 1.5
v 0.4 1.5 1.2
v 0.5 0.7 1.8
v 0.5 0.7 1.7
v 0.5 0.7 1.3
v 0.5 0.7 1.2
v 0.5 0.8 1.9
v 0.5 0.8 1.8
v 0.5 0.8 1.7
v 0.5 0.8 1.6
v 0.5 0.8 1.4
v 0.5 0.8 1.3
v 0.5 0.8 1.2
v 0.5 0.8 1.1
v 0.5 0.9 1.9
v 0.5 0.9 1.8
v 0.5 0.9 1.7
v 0.5 0.9 1.6
v 0.5 0.9 1.4
v 0.5 0.9 1.3
v 0.5 0.9 1.2
v 0.5 0.9 1.1
v 0.5 1 2
v 0.5 1 1.9
v 0.5 1 1.8
v 0.5 1 1.7
v 0.5 1 1.3
v 0.5 1 1.2
v 0.5 1 1.1
v 0.5 1 1
v 0.5 1.1 1.9
v 0.5 1.1 1.8
v 0.5 1.1 1.2
v 0.5 1.1 1.1
v 0.5 1.2 2
v 0.5 1.2 1.9
v 0.5 1.3 2
v 0.5 1.3 1.9
v 0.5 1.3 1.1
v 0.5 1.3 1
v 0.5 1.4 1.9
v 0.5 1.4 1.8
v 0.5 1.4 1.2
v 0.5 1.4 1.1
v 0.5 1.5 1.9
v 0.5 1.5 1.8
v 0.5 1.5 1.3
v 0.5 1.5 1.2
v 0.5 1.5 1.1
v 0.5 1.6 1.8
v 0.5 1.6 1.3
v 0.6 0.4 1.6
v 0.6 0.4 1.4
v 0.6 0.5 1.6
v 0.6 0.5 1.4
v 0.6 0.7 1.9
v 0.6 0.7 1.8
v 0.6 0.7 1.6
v 0.6 0.7 1.4
v 0.6 0.7 1.2
v 0.6 0.7 1.1
v 0.6 0.8 1.9
v 0.6 0.8 1.8
v 0.6 0.8 1.2
v 0.6 0.8 1.1
v 0.6 1.3 2
v 0.6 1.3 1.9
v 0.6 1.3 1.1
v 0.6 1.3 1
v 0.6 1.4 1.1
v 0.6 1.5 2
v 0.6 1.5 1.9
v 0.6 1.5 1.8
v 0.6 1.5 1.3
v 0.6 1.5 1.2
v 0.6 1.5 1.1
v 0.6 1.5 1
v 0.6 1.6 1.9
v 0.6 1.6 1.8
v 0.6 1.6 1.4
v 0.6 1.6 1.3
v 0.6 1.6 1.2
v 0.6 1.7 1.8
v 0.6 1.7 1.4
v 0.7 0.1 1.7
v 0.7 0.1 1.4
v 0.7 0.2 1.7
v 0.7 0.2 1.6
v 0.7 0.3 1.6
v 0.7 0.3 1.4
v 0.7 0.4 1.6
v 0.7 0.4 1.4
v 0.7 0.5 1.7
v 0.7 0.5 1.6
v 0.7 0.5 1.4
v 0.7 0.5 1.3
v 0.7 0.6 1.7
v 0.7 0.6 1.6
v 0.7 0.6 1.4
v 0.7 0.6 1.3
v 0.7 0.7 1.7
v 0.7 0.7 1.6
v 0.7 0.7 1.4
v 0.7 0.7 1.3
v 0.7 0.9 1.1
v 0.7 0.9 1
v 0.7 1 1.1
v 0.7 1 1
v 0.7 1.6 1.4
v 0.7 1.6 1.3
v 0.7 1.7 1.4
v 0.7 1.7 1.3
v 0.8 1.2 2
v 0.8 1.2 1.9
v 0.8 1.3 2
v 0.8 1.3 1.9
v 0.9 1.1 2
v 0.9 1.1 1.9
v 0.9 1.2 2
v 0.9 1.2 1.9
v 1 1 2
v 1 1 1.9
v 1 1.1 2
v 1 1.1 1.9
v 1.1 0.1 1.7
v 1.1 0.1 1.6
v 1.1 0.1 1.5
v 1.1 0.1 1.4
v 1.1 0.2 1.7
v 1.1 0.2 1.6
v 1.1 0.2 1.5
v 1.1 0.3 1.6
v 1.1 0.3 1.4
v 1.1 0.4 1.6
v 1.1 0.4 1.4
v 1.3 1.2 2
v 1.3 1.2 1.9
v 1.3 1.3 2
v 1.3 1.3 1.9
v 1.4 1 2
v 1.4 1 1.9
v 1.4 1.2 2
v 1.4 1.2 1.9
v 1.7 1.3 1.4
v 1.7 1.3 1.3
v 1.7 1.4 1.5
v 1.7 1.4 1.4
v 1.7 1.4 1.3
v 1.7 1.5 1.7
v 1.7 1.5 1.5
v 1.7 1.5 1.4
v 1.7 1.6 1.7
v 1.7 1.6 1.5
v 1.8 1.2 1.7
v 1.8 1.2 1.6
v 1.8 1.3 1.7
v 1.8 1.3 1.6
v 1.8 1.4 1.4
v 1.8 1.4 1.3
v 1.8 1.5 1.5
v 1.8 1.5 1.4
v 1.8 1.5 1.3
v 1.8 1.6 1.7
v 1.8 1.6 1.5
v 1.8 1.6 1.4
v 1.8 1.7 1.7
v 1.8 1.7 1.5
v 1.9 1.3 1.7
v 1.9 1.3 1.6
v 1.9 1.6 1.7
v 1.9 1.6 1.6
v 0.1 1.3 1.7
v 0.1 1.3 1.6
v 0.1 1.6 1.7
v 0.1 1.6 1.6
v 0.2 1.2 1.7
v 0.2 1.2 1.6
v 0.2 1.3 1.7
v 0.2 1.3 1.6
v 0.2 1.4 1.4
v 0.2 1.4 1.3
v 0.2 1.5 1.5
v 0.2 1.5 1.4
v 0.2 1.5 1.3
v 0.2 1.6 1.7
v 0.2 1.6 1.5
v 0.2 1.6 1.4
v 0.2 1.7 1.7
v 0.2 1.7 1.5
v 0.3 1.3 1.4
v 0.3 1.3 1.3
v 0.3 1.4 1.5
v 0.3 1.4 1.4
v 0.3 1.4 1.3
v 0.3 1.5 1.7
v 0.3 1.5 1.5
v 0.3 1.5 1.4
v 0.3 1.6 1.7
v 0.3 1.6 1.5
v 0.6 1 2
v 0.6 1 1.9
v 0.6 1.2 2
v 0.6 1.2 1.9
v 0.7 1.2 2
v 0.7 1.2 1.9
v 0.7 1.3 2
v 0.7 1.3 1.9
v 0.9 0.1 1.7
v 0.9 0.1 1.4
v 0.9 0.2 1.7
v 0.9 0.2 1.6
v 0.9 0.3 1.6
v 0.9 0.3 1.4
v 0.9 0.4 1.6
v 0.9 0.4 1.4
v 1.1 1 2
v 1.1 1 1.9
v 1.1 1.2 2
v 1.1 1.2 1.9
v 1.2 1.2 2
v 1.2 1.2 1.9
v 1.2 1.3 2
v 1.2 1.3 1.9
v 1.3 0.1 1.7
v 1.3 0.1 1.4
v 1.3 0.2 1.7
v 1.3 0.2 1.6
v 1.3 0.3 1.6
v 1.3 0.3 1.4
v 1.3 0.4 1.6
v 1.3 0.4 1.4
v 1.3 0.5 1.7
v 1.3 0.5 1.6
v 1.3 0.5 1.4
v 1.3 0.5 1.3
v 1.3 0.6 1.7
v 1.3 0.6 1.6
v 1.3 0.6 1.4
v 1.3 0.6 1.3
v 1.3 0.7 1.7
v 1.3 0.7 1.6
v 1.3 0.7 1.4
v 1.3 0.7 1.3
v 1.3 0.9 1.1
v 1.3 0.9 1
v 1.3 1 1.1
v 1.3 1 1
v 1.3 1.6 1.4
v 1.3 1.6 1.3
v 1.3 1.7 1.4
v 1.3 1.7 1.3
v 1.4 0.4 1.6
v 1.4 0.4 1.4
v 1.4 0.5 1.6
v 1.4 0.5 1.4
v 1.4 0.7 1.9
v 1.4 0.7 1.8
v 1.4 0.7 1.6
v 1.4 0.7 1.4
v 1.4 0.7 1.2
v 1.4 0.7 1.1
v 1.4 0.8 1.9
v 1.4 0.8 1.8
v 1.4 0.8 1.2
v 1.4 0.8 1.1
v 1.4 1.3 2
v 1.4 1.3 1.9
v 1.4 1.3 1.1
v 1.4 1.3 1
v 1.4 1.4 1.1
v 1.4 1.5 2
v 1.4 1.5 1.9
v 1.4 1.5 1.8
v 1.4 1.5 1.3
v 1.4 1.5 1.2
v 1.4 1.5 1.1
v 1.4 1.5 1
v 1.4 1.6 1.9
v 1.4 1.6 1.8
v 1.4 1.6 1.4
v 1.4 1.6 1.3
v 1.4 1.6 1.2
v 1.4 1.7 1.8
v 1.4 1.7 1.4
v 1.5 0.7 1.8
v 1.5 0.7 1.7
v 1.5 0.7 1.3
v 1.5 0.7 1.2
v 1.5 0.8 1.9
v 1.5 0.8 1.8
v 1.5 0.8 1.7
v 1.5 0.8 1.6
v 1.5 0.8 1.4
v 1.5 0.8 1.3
v 1.5 0.8 1.2
v 1.5 0.8 1.1
v 1.5 0.9 1.9
v 1.5 0.9 1.8
v 1.5 0.9 1.7
v 1.5 0.9 1.6
v 1.5 0.9 1.4
v 1.5 0.9 1.3
v 1.5 0.9 1.2
v 1.5 0.9 1.1
v 1.5 1 2
v 1.5 1 1.9
v 1.5 1 1.8
v 1.5 1 1.7
v 1.5 1 1.3
v 1.5 1 1.2
v 1.5 1 1.1
v 1.5 1 1
v 1.5 1.1 1.9
v 1.5 1.1 1.8
v 1.5 1.1 1.2
v 1.5 1.1 1.1
v 1.5 1.2 2
v 1.5 1.2 1.9
v 1.5 1.3 2
v 1.5 1.3 1.9
v 1.5 1.3 1.1
v 1.5 1.3 1
v 1.5 1.4 1.9
v 1.5 1.4 1.8
v 1.5 1.4 1.2
v 1.5 1.4 1.1
v 1.5 1.5 1.9
v 1.5 1.5 1.8
v 1.5 1.5 1.3
v 1.5 1.5 1.2
v 1.5 1.5 1.1
v 1.5 1.6 1.8
v 1.5 1.6 1.3
v 1.6 0.8 1.6
v 1.6 0.8 1.4
v 1.6 0.9 1.7
v 1.6 0.9 1.6
v 1.6 0.9 1.4
v 1.6 0.9 1.3
v 1.6 1 1.8
v 1.6 1 1.7
v 1.6 1 1.6
v 1.6 1 1.4
v 1.6 1 1.3
v 1.6 1 1.2
v 1.6 1.1 1.9
v 1.6 1.1 1.8
v 1.6 1.1 1.7
v 1.6 1.1 1.5
v 1.6 1.1 1.3
v 1.6 1.1 1.2
v 1.6 1.1 1.1
v 1.6 1.2 1.7
v 1.6 1.2 1.6
v 1.6 1.2 1.5
v 1.6 1.2 1.3
v 1.6 1.3 1.4
v 1.6 1.3 1.3
v 1.6 1.4 1.9
v 1.6 1.4 1.8
v 1.6 1.4 1.7
v 1.6 1.4 1.6
v 1.6 1.4 1.5
v 1.6 1.4 1.4
v 1.6 1.4 1.2
v 1.6 1.4 1.1
v 1.6 1.5 1.8
v 1.6 1.5 1.7
v 1.6 1.5 1.5
v 1.6 1.5 1.2
v 1.7 1.4 1.7
v 1.7 1.4 1.6
v 1.7 1.5 1.7
v 1.7 1.5 1.6
v 1.8 1.1 1.7
v 1.8 1.1 1.5
v 1.8 1.2 1.7
v 1.8 1.2 1.5
v 1.8 1.2 1.3
v 1.8 1.3 1.5
v 1.8 1.3 1.3
v 1.8 1.5 1.7
v 1.8 1.5 1.6
v 1.8 1.6 1.7
v 1.8 1.6 1.6
v 1.9 1.2 1.7
v 1.9 1.2 1.5
v 1.9 1.3 1.7
v 1.9 1.3 1.5
v 1.9 1.3 1.3
v 1.9 1.5 1.4
v 1.9 1.5 1.3
v 1.9 1.6 1.7
v 1.9 1.6 1.5
v 1.9 1.6 1.4
v 1.9 1.7 1.7
v 1.9 1.7 1.5
v 2 1.3 1.7
v 2 1.3 1.5
v 2 1.6 1.7
v 2 1.6 1.5
v 0.5 1 2
v 0.5 1.2 2
v 0.5 1.3 2
v 0.6 1 2
v 0.6 1.2 2
v 0.6 1.3 2
v 0.6 1.5 2
v 0.7 1.2 2
v 0.7 1.3 2
v 0.7 1.4 2
v 0.8 1.2 2
v 0.8 1.3 2
v 0.8 1.4 2
v 0.9 1.1 2
v 0.9 1.2 2
v 0.9 1.3 2
v 1 1 2
v 1 1.1 2
v 1.1 1 2
v 1.1 1.2 2
v 1.1 1.3 2
v 1.2 1.2 2
v 1.2 1.3 2
v 1.2 1.4 2
v 1.3 1.2 2
v 1.3 1.3 2
v 1.3 1.4 2
v 1.4 1 2
v 1.4 1.2 2
v 1.4 1.3 2
v 1.4 1.5 2
v 1.5 1 2
v 1.5 1.2 2
v 1.5 1.3 2
v 0.4 1.1 1.9
v 0.4 1.4 1.9
v 0.5 0.8 1.9
v 0.5 0.9 1.9
v 0.5 1 1.9
v 0.5 1.1 1.9
v 0.5 1.2 1.9
v 0.5 1.3 1.9
v 0.5 1.4 1.9
v 0.5 1.5 1.9
v 0.6 0.7 1.9
v 0.6 0.8 1.9
v 0.6 1 1.9
v 0.6 1.2 1.9
v 0.6 1.3 1.9
v 0.6 1.5 1.9
v 0.6 1.6 1.9
v 0.7 0.8 1.9
v 0.7 0.9 1.9
v 0.7 1 1.9
v 0.7 1.2 1.9
v 0.7 1.3 1.9
v 0.8 0.8 1.9
v 0.8 1 1.9
v 0.8 1.2 1.9
v 0.8 1.3 1.9
v 0.9 1.1 1.9
v 0.9 1.2 1.9
v 1 1 1.9
v 1 1.1 1.9
v 1.1 1 1.9
v 1.1 1.2 1.9
v 1.2 0.8 1.9
v 1.2 1 1.9
v 1.2 1.2 1.9
v 1.2 1.3 1.9
v 1.3 0.8 1.9
v 1.3 0.9 1.9
v 1.3 1 1.9
v 1.3 1.2 1.9
v 1.3 1.3 1.9
v 1.4 0.7 1.9
v 1.4 0.8 1.9
v 1.4 1 1.9
v 1.4 1.2 1.9
v 1.4 1.3 1.9
v 1.4 1.5 1.9
v 1.4 1.6 1.9
v 1.5 0.8 1.9
v 1.5 0.9 1.9
v 1.5 1 1.9
v 1.5 1.1 1.9
v 1.5 1.2 1.9
v 1.5 1.3 1.9
v 1.5 1.4 1.9
v 1.5 1.5 1.9
v 1.6 1.1 1.9
v 1.6 1.4 1.9
v 0.4 1 1.8
v 0.4 1.1 1.8
v 0.4 1.4 1.8
v 0.4 1.5 1.8
v 0.5 0.7 1.8
v 0.5 0.8 1.8
v 0.5 1 1.8
v 0.5 1.1 1.8
v 0.5 1.4 1.8
v 0.5 1.5 1.8
v 0.5 1.6 1.8
v 0.6 0.7 1.8
v 0.6 0.8 1.8
v 0.6 1.5 1.8
v 0.6 1.6 1.8
v 0.6 1.7 1.8
v 1.4 0.7 1.8
v 1.4 0.8 1.8
v 1.4 1.5 1.8
v 1.4 1.6 1.8
v 1.4 1.7 1.8
v 1.5 0.7 1.8
v 1.5 0.8 1.8
v 1.5 1 1.8
v 1.5 1.1 1.8
v 1.5 1.4 1.8
v 1.5 1.5 1.8
v 1.5 1.6 1.8
v 1.6 1 1.8
v 1.6 1.1 1.8
v 1.6 1.4 1.8
v 1.6 1.5 1.8
v 0 1.3 1.7
v 0 1.6 1.7
v 0.1 1.2 1.7
v 0.1 1.3 1.7
v 0.1 1.6 1.7
v 0.1 1.7 1.7
v 0.2 1.1 1.7
v 0.2 1.2 1.7
v 0.2 1.3 1.7
v 0.2 1.5 1.7
v 0.2 1.6 1.7
v 0.2 1.7 1.7
v 0.3 1.4 1.7
v 0.3 1.5 1.7
v 0.3 1.6 1.7
v 0.4 0.9 1.7
v 0.4 1 1.7
v 0.4 1.1 1.7
v 0.4 1.2 1.7
v 0.4 1.4 1.7
v 0.4 1.5 1.7
v 0.5 0.9 1.7
v 0.5 1 1.7
v 0.7 0.1 1.7
v 0.7 0.2 1.7
v 0.7 0.5 1.7
v 0.7 0.6 1.7
v 0.7 0.7 1.7
v 0.9 0.1 1.7
v 0.9 0.2 1.7
v 1.1 0.1 1.7
v 1.1 0.2 1.7
v 1.3 0.1 1.7
v 1.3 0.2 1.7
v 1.3 0.5 1.7
v 1.3 0.6 1.7
v 1.3 0.7 1.7
v 1.5 0.9 1.7
v 1.5 1 1.7
v 1.6 0.9 1.7
v 1.6 1 1.7
v 1.6 1.1 1.7
v 1.6 1.2 1.7
v 1.6 1.4 1.7
v 1.6 1.5 1.7
v 1.7 1.4 1.7
v 1.7 1.5 1.7
v 1.7 1.6 1.7
v 1.8 1.1 1.7
v 1.8 1.2 1.7
v 1.8 1.3 1.7
v 1.8 1.5 1.7
v 1.8 1.6 1.7
v 1.8 1.7 1.7
v 1.9 1.2 1.7
v 1.9 1.3 1.7
v 1.9 1.6 1.7
v 1.9 1.7 1.7
v 2 1.3 1.7
v 2 1.6 1.7
v 0.1 1.3 1.6
v 0.1 1.6 1.6
v 0.2 1.2 1.6
v 0.2 1.3 1.6
v 0.2 1.5 1.6
v 0.2 1.6 1.6
v 0.3 1.4 1.6
v 0.3 1.5 1.6
v 0.4 0.8 1.6
v 0.4 0.9 1.6
v 0.4 1.2 1.6
v 0.4 1.4 1.6
v 0.5 0.8 1.6
v 0.5 0.9 1.6
v 0.6 0.4 1.6
v 0.6 0.5 1.6
v 0.6 0.7 1.6
v 0.7 0.2 1.6
v 0.7 0.3 1.6
v 0.7 0.4 1.6
v 0.7 0.5 1.6
v 0.7 0.6 1.6
v 0.7 0.7 1.6
v 0.9 0.2 1.6
v 0.9 0.3 1.6
v 0.9 0.4 1.6
v 1.1 0.2 1.6
v 1.1 0.3 1.6
v 1.1 0.4 1.6
v 1.3 0.2 1.6
v 1.3 0.3 1.6
v 1.3 0.4 1.6
v 1.3 0.5 1.6
v 1.3 0.6 1.6
v 1.3 0.7 1.6
v 1.4 0.4 1.6
v 1.4 0.5 1.6
v 1.4 0.7 1.6
v 1.5 0.8 1.6
v 1.5 0.9 1.6
v 1.6 0.8 1.6
v 1.6 0.9 1.6
v 1.6 1.2 1.6
v 1.6 1.4 1.6
v 1.7 1.4 1.6
v 1.7 1.5 1.6
v 1.8 1.2 1.6
v 1.8 1.3 1.6
v 1.8 1.5 1.6
v 1.8 1.6 1.6
v 1.9 1.3 1.6
v 1.9 1.6 1.6
v 0 1.3 1.5
v 0 1.6 1.5
v 0.1 1.2 1.5
v 0.1 1.3 1.5
v 0.1 1.6 1.5
v 0.1 1.7 1.5
v 0.2 1.1 1.5
v 0.2 1.2 1.5
v 0.2 1.3 1.5
v 0.2 1.5 1.5
v 0.2 1.6 1.5
v 0.2 1.7 1.5
v 0.3 1.4 1.5
v 0.3 1.5 1.5
v 0.3 1.6 1.5
v 0.4 1.1 1.5
v 0.4 1.2 1.5
v 0.4 1.4 1.5
v 0.4 1.5 1.5
v 1.6 1.1 1.5
v 1.6 1.2 1.5
v 1.6 1.4 1.5
v 1.6 1.5 1.5
v 1.7 1.4 1.5
v 1.7 1.5 1.5
v 1.7 1.6 1.5
v 1.8 1.1 1.5
v 1.8 1.2 1.5
v 1.8 1.3 1.5
v 1.8 1.5 1.5
v 1.8 1.6 1.5
v 1.8 1.7 1.5
v 1.9 1.2 1.5
v 1.9 1.3 1.5
v 1.9 1.6 1.5
v 1.9 1.7 1.5
v 2 1.3 1.5
v 2 1.6 1.5
v 0.1 1.5 1.4
v 0.1 1.6 1.4
v 0.2 1.4 1.4
v 0.2 1.5 1.4
v 0.2 1.6 1.4
v 0.3 1.3 1.4
v 0.3 1.4 1.4
v 0.3 1.5 1.4
v 0.4 0.8 1.4
v 0.4 0.9 1.4
v 0.4 1.3 1.4
v 0.4 1.4 1.4
v 0.5 0.8 1.4
v 0.5 0.9 1.4
v 0.6 0.4 1.4
v 0.6 0.5 1.4
v 0.6 0.7 1.4
v 0.6 1.6 1.4
v 0.6 1.7 1.4
v 0.7 0.1 1.4
v 0.7 0.3 1.4
v 0.7 0.4 1.4
v 0.7 0.5 1.4
v 0.7 0.6 1.4
v 0.7 0.7 1.4
v 0.7 1.6 1.4
v 0.7 1.7 1.4
v 0.9 0.1 1.4
v 0.9 0.3 1.4
v 0.9 0.4 1.4
v 1.1 0.1 1.4
v 1.1 0.3 1.4
v 1.1 0.4 1.4
v 1.3 0.1 1.4
v 1.3 0.3 1.4
v 1.3 0.4 1.4
v 1.3 0.5 1.4
v 1.3 0.6 1.4
v 1.3 0.7 1.4
v 1.3 1.6 1.4
v 1.3 1.7 1.4
v 1.4 0.4 1.4
v 1.4 0.5 1.4
v 1.4 0.7 1.4
v 1.4 1.6 1.4
v 1.4 1.7 1.4
v 1.5 0.8 1.4
v 1.5 0.9 1.4
v 1.6 0.8 1.4
v 1.6 0.9 1.4
v 1.6 1.3 1.4
v 1.6 1.4 1.4
v 1.7 1.3 1.4
v 1.7 1.4 1.4
v 1.7 1.5 1.4
v 1.8 1.4 1.4
v 1.8 1.5 1.4
v 1.8 1.6 1.4
v 1.9 1.5 1.4
v 1.9 1.6 1.4
v 0.1 1.3 1.3
v 0.1 1.5 1.3
v 0.2 1.2 1.3
v 0.2 1.3 1.3
v 0.2 1.4 1.3
v 0.2 1.5 1.3
v 0.3 1.3 1.3
v 0.3 1.4 1.3
v 0.4 0.9 1.3
v 0.4 1 1.3
v 0.4 1.2 1.3
v 0.4 1.3 1.3
v 0.5 0.9 1.3
v 0.5 1 1.3
v 0.5 1.5 1.3
v 0.5 1.6 1.3
v 0.6 1.5 1.3
v 0.6 1.6 1.3
v 0.7 0.5 1.3
v 0.7 0.6 1.3
v 0.7 0.7 1.3
v 0.7 1.6 1.3
v 0.7 1.7 1.3
v 1.3 0.5 1.3
v 1.3 0.6 1.3
v 1.3 0.7 1.3
v 1.3 1.6 1.3
v 1.3 1.7 1.3
v 1.4 1.5 1.3
v 1.4 1.6 1.3
v 1.5 0.9 1.3
v 1.5 1 1.3
v 1.5 1.5 1.3
v 1.5 1.6 1.3
v 1.6 0.9 1.3
v 1.6 1 1.3
v 1.6 1.2 1.3
v 1.6 1.3 1.3
v 1.7 1.3 1.3
v 1.7 1.4 1.3
v 1.8 1.2 1.3
v 1.8 1.3 1.3
v 1.8 1.4 1.3
v 1.8 1.5 1.3
v 1.9 1.3 1.3
v 1.9 1.5 1.3
v 0.4 1 1.2
v 0.4 1.1 1.2
v 0.4 1.4 1.2
v 0.4 1.5 1.2
v 0.5 0.7 1.2
v 0.5 0.8 1.2
v 0.5 1 1.2
v 0.5 1.1 1.2
v 0.5 1.4 1.2
v 0.5 1.5 1.2
v 0.6 0.7 1.2
v 0.6 0.8 1.2
v 0.6 1.5 1.2
v 0.6 1.6 1.2
v 1.4 0.7 1.2
v 1.4 0.8 1.2
v 1.4 1.5 1.2
v 1.4 1.6 1.2
v 1.5 0.7 1.2
v 1.5 0.8 1.2
v 1.5 1 1.2
v 1.5 1.1 1.2
v 1.5 1.4 1.2
v 1.5 1.5 1.2
v 1.6 1 1.2
v 1.6 1.1 1.2
v 1.6 1.4 1.2
v 1.6 1.5 1.2
v 0.4 1.1 1.1
v 0.4 1.4 1.1
v 0.5 0.8 1.1
v 0.5 0.9 1.1
v 0.5 1 1.1
v 0.5 1.1 1.1
v 0.5 1.3 1.1
v 0.5 1.4 1.1
v 0.5 1.5 1.1
v 0.6 0.7 1.1
v 0.6 0.8 1.1
v 0.6 1.3 1.1
v 0.6 1.4 1.1
v 0.6 1.5 1.1
v 0.7 0.8 1.1
v 0.7 0.9 1.1
v 0.7 1 1.1
v 1.3 0.8 1.1
v 1.3 0.9 1.1
v 1.3 1 1.1
v 1.4 0.7 1.1
v 1.4 0.8 1.1
v 1.4 1.3 1.1
v 1.4 1.4 1.1
v 1.4 1.5 1.1
v 1.5 0.8 1.1
v 1.5 0.9 1.1
v 1.5 1 1.1
v 1.5 1.1 1.1
v 1.5 1.3 1.1
v 1.5 1.4 1.1
v 1.5 1.5 1.1
v 1.6 1.1 1.1
v 1.6 1.4 1.1
v 0.5 1 1
v 0.5 1.3 1
v 0.6 1.1 1
v 0.6 1.3 1
v 0.6 1.5 1
v 0.7 0.9 1
v 0.7 1 1
v 0.7 1.1 1
v 0.7 1.3 1
v 0.7 1.4 1
v 1.3 0.9 1
v 1.3 1 1
v 1.3 1.1 1
v 1.3 1.3 1
v 1.3 1.4 1
v 1.4 1.1 1
v 1.4 1.3 1
v 1.4 1.5 1
v 1.5 1 1
v 1.5 1.3 1
v 0.7 0.1 1.7
v 0.9 0.1 1.7
v 1.1 0.1 1.7
v 1.3 0.1 1.7
v 1.1 0.1 1.6
v 1.2 0.1 1.6
v 1.1 0.1 1.5
v 1.2 0.1 1.5
v 0.7 0.1 1.4
v 0.9 0.1 1.4
v 1.1 0.1 1.4
v 1.3 0.1 1.4
v 0.6 0.4 1.6
v 0.7 0.4 1.6
v 0.9 0.4 1.6
v 1.1 0.4 1.6
v 1.3 0.4 1.6
v 1.4 0.4 1.6
v 0.6 0.4 1.4
v 0.7 0.4 1.4
v 0.9 0.4 1.4
v 1.1 0.4 1.4
v 1.3 0.4 1.4
v 1.4 0.4 1.4
v 0.7 0.5 1.7
v 1.3 0.5 1.7
v 0.7 0.5 1.6
v 1.3 0.5 1.6
v 0.7 0.5 1.4
v 1.3 0.5 1.4
v 0.7 0.5 1.3
v 1.3 0.5 1.3
v 0.6 0.7 1.9
v 1.4 0.7 1.9
v 0.5 0.7 1.8
v 0.6 0.7 1.8
v 1.4 0.7 1.8
v 1.5 0.7 1.8
v 0.5 0.7 1.7
v 0.6 0.7 1.7
v 0.7 0.7 1.7
v 1.3 0.7 1.7
v 1.4 0.7 1.7
v 1.5 0.7 1.7
v 0.6 0.7 1.6
v 0.7 0.7 1.6
v 1.3 0.7 1.6
v 1.4 0.7 1.6
v 0.6 0.7 1.4
v 0.7 0.7 1.4
v 1.3 0.7 1.4
v 1.4 0.7 1.4
v 0.5 0.7 1.3
v 0.6 0.7 1.3
v 0.7 0.7 1.3
v 1.3 0.7 1.3
v 1.4 0.7 1.3
v 1.5 0.7 1.3
v 0.5 0.7 1.2
v 0.6 0.7 1.2
v 1.4 0.7 1.2
v 1.5 0.7 1.2
v 0.6 0.7 1.1
v 1.4 0.7 1.1
v 0.5 0.8 1.9
v 0.6 0.8 1.9
v 1.4 0.8 1.9
v 1.5 0.8 1.9
v 0.5 0.8 1.8
v 0.6 0.8 1.8
v 1.4 0.8 1.8
v 1.5 0.8 1.8
v 0.4 0.8 1.6
v 0.5 0.8 1.6
v 1.5 0.8 1.6
v 1.6 0.8 1.6
v 0.4 0.8 1.4
v 0.5 0.8 1.4
v 1.5 0.8 1.4
v 1.6 0.8 1.4
v 0.5 0.8 1.2
v 0.6 0.8 1.2
v 1.4 0.8 1.2
v 1.5 0.8 1.2
v 0.5 0.8 1.1
v 0.6 0.8 1.1
v 1.4 0.8 1.1
v 1.5 0.8 1.1
v 0.4 0.9 1.7
v 0.5 0.9 1.7
v 1.5 0.9 1.7
v 1.6 0.9 1.7
v 0.4 0.9 1.6
v 0.5 0.9 1.6
v 1.5 0.9 1.6
v 1.6 0.9 1.6
v 0.4 0.9 1.4
v 0.5 0.9 1.4
v 1.5 0.9 1.4
v 1.6 0.9 1.4
v 0.4 0.9 1.3
v 0.5 0.9 1.3
v 1.5 0.9 1.3
v 1.6 0.9 1.3
v 0.7 0.9 1.1
v 1.3 0.9 1.1
v 0.7 0.9 1
v 1.3 0.9 1
v 0.5 1 2
v 0.6 1 2
v 1 1 2
v 1.1 1 2
v 1.4 1 2
v 1.5 1 2
v 0.5 1 1.9
v 0.6 1 1.9
v 1 1 1.9
v 1.1 1 1.9
v 1.4 1 1.9
v 1.5 1 1.9
v 0.4 1 1.8
v 0.5 1 1.8
v 1.5 1 1.8
v 1.6 1 1.8
v 0.4 1 1.7
v 0.5 1 1.7
v 1.5 1 1.7
v 1.6 1 1.7
v 0.4 1 1.3
v 0.5 1 1.3
v 1.5 1 1.3
v 1.6 1 1.3
v 0.4 1 1.2
v 0.5 1 1.2
v 1.5 1 1.2
v 1.6 1 1.2
v 0.5 1 1.1
v 0.7 1 1.1
v 1.3 1 1.1
v 1.5 1 1.1
v 0.5 1 1
v 0.7 1 1
v 1.3 1 1
v 1.5 1 1
v 0.9 1.1 2
v 1 1.1 2
v 0.4 1.1 1.9
v 0.5 1.1 1.9
v 0.9 1.1 1.9
v 1 1.1 1.9
v 1.5 1.1 1.9
v 1.6 1.1 1.9
v 0.4 1.1 1.8
v 0.5 1.1 1.8
v 1.5 1.1 1.8
v 1.6 1.1 1.8
v 0.2 1.1 1.7
v 0.4 1.1 1.7
v 1.6 1.1 1.7
v 1.8 1.1 1.7
v 0.2 1.1 1.5
v 0.4 1.1 1.5
v 1.6 1.1 1.5
v 1.8 1.1 1.5
v 0.4 1.1 1.2
v 0.5 1.1 1.2
v 1.5 1.1 1.2
v 1.6 1.1 1.2
v 0.4 1.1 1.1
v 0.5 1.1 1.1
v 1.5 1.1 1.1
v 1.6 1.1 1.1
v 0.6 1.2 2
v 0.7 1.2 2
v 0.8 1.2 2
v 0.9 1.2 2
v 1.1 1.2 2
v 1.2 1.2 2
v 1.3 1.2 2
v 1.4 1.2 2
v 0.6 1.2 1.9
v 0.7 1.2 1.9
v 0.8 1.2 1.9
v 0.9 1.2 1.9
v 1.1 1.2 1.9
v 1.2 1.2 1.9
v 1.3 1.2 1.9
v 1.4 1.2 1.9
v 0.1 1.2 1.7
v 0.2 1.2 1.7
v 1.8 1.2 1.7
v 1.9 1.2 1.7
v 0.1 1.2 1.5
v 0.2 1.2 1.5
v 0.4 1.2 1.5
v 1.6 1.2 1.5
v 1.8 1.2 1.5
v 1.9 1.2 1.5
v 0.2 1.2 1.3
v 0.4 1.2 1.3
v 1.6 1.2 1.3
v 1.8 1.2 1.3
v 0.7 1.3 2
v 0.8 1.3 2
v 1.2 1.3 2
v 1.3 1.3 2
v 0.7 1.3 1.9
v 0.8 1.3 1.9
v 1.2 1.3 1.9
v 1.3 1.3 1.9
v 0 1.3 1.7
v 0.1 1.3 1.7
v 1.9 1.3 1.7
v 2 1.3 1.7
v 0 1.3 1.5
v 0.1 1.3 1.5
v 0.2 1.3 1.5
v 1.8 1.3 1.5
v 1.9 1.3 1.5
v 2 1.3 1.5
v 0.1 1.3 1.3
v 0.2 1.3 1.3
v 1.8 1.3 1.3
v 1.9 1.3 1.3
v 0.3 1.4 1.7
v 0.4 1.4 1.7
v 1.6 1.4 1.7
v 1.7 1.4 1.7
v 0.3 1.4 1.6
v 0.4 1.4 1.6
v 1.6 1.4 1.6
v 1.7 1.4 1.6
v 0.2 1.5 1.7
v 0.3 1.5 1.7
v 1.7 1.5 1.7
v 1.8 1.5 1.7
v 0.2 1.5 1.6
v 0.3 1.5 1.6
v 1.7 1.5 1.6
v 1.8 1.5 1.6
v 0.1 1.6 1.7
v 0.2 1.6 1.7
v 1.8 1.6 1.7
v 1.9 1.6 1.7
v 0.1 1.6 1.6
v 0.2 1.6 1.6
v 1.8 1.6 1.6
v 1.9 1.6 1.6
v 0.7 0.2 1.7
v 0.9 0.2 1.7
v 1.1 0.2 1.7
v 1.3 0.2 1.7
v 0.7 0.2 1.6
v 0.9 0.2 1.6
v 1.1 0.2 1.6
v 1.3 0.2 1.6
v 0.2 1.2 1.7
v 0.4 1.2 1.7
v 1.6 1.2 1.7
v 1.8 1.2 1.7
v 0.2 1.2 1.6
v 0.4 1.2 1.6
v 1.6 1.2 1.6
v 1.8 1.2 1.6
v 0.5 1.3 2
v 0.6 1.3 2
v 1.4 1.3 2
v 1.5 1.3 2
v 0.5 1.3 1.9
v 0.6 1.3 1.9
v 1.4 1.3 1.9
v 1.5 1.3 1.9
v 0.1 1.3 1.7
v 0.2 1.3 1.7
v 1.8 1.3 1.7
v 1.9 1.3 1.7
v 0.1 1.3 1.6
v 0.2 1.3 1.6
v 1.8 1.3 1.6
v 1.9 1.3 1.6
v 0.3 1.3 1.4
v 0.4 1.3 1.4
v 1.6 1.3 1.4
v 1.7 1.3 1.4
v 0.3 1.3 1.3
v 0.4 1.3 1.3
v 1.6 1.3 1.3
v 1.7 1.3 1.3
v 0.5 1.3 1.1
v 0.6 1.3 1.1
v 1.4 1.3 1.1
v 1.5 1.3 1.1
v 0.5 1.3 1
v 0.6 1.3 1
v 1.4 1.3 1
v 1.5 1.3 1
v 0.4 1.4 1.9
v 0.5 1.4 1.9
v 1.5 1.4 1.9
v 1.6 1.4 1.9
v 0.4 1.4 1.8
v 0.5 1.4 1.8
v 1.5 1.4 1.8
v 1.6 1.4 1.8
v 0.3 1.4 1.5
v 0.4 1.4 1.5
v 1.6 1.4 1.5
v 1.7 1.4 1.5
v 0.2 1.4 1.4
v 0.3 1.4 1.4
v 0.4 1.4 1.4
v 1.6 1.4 1.4
v 1.7 1.4 1.4
v 1.8 1.4 1.4
v 0.2 1.4 1.3
v 0.3 1.4 1.3
v 1.7 1.4 1.3
v 1.8 1.4 1.3
v 0.4 1.4 1.2
v 0.5 1.4 1.2
v 1.5 1.4 1.2
v 1.6 1.4 1.2
v 0.4 1.4 1.1
v 0.5 1.4 1.1
v 1.5 1.4 1.1
v 1.6 1.4 1.1
v 0.6 1.5 2
v 1.4 1.5 2
v 0.5 1.5 1.9
v 0.6 1.5 1.9
v 1.4 1.5 1.9
v 1.5 1.5 1.9
v 0.4 1.5 1.8
v 0.5 1.5 1.8
v 0.6 1.5 1.8
v 1.4 1.5 1.8
v 1.5 1.5 1.8
v 1.6 1.5 1.8
v 0.3 1.5 1.7
v 0.4 1.5 1.7
v 1.6 1.5 1.7
v 1.7 1.5 1.7
v 0.2 1.5 1.5
v 0.3 1.5 1.5
v 0.4 1.5 1.5
v 1.6 1.5 1.5
v 1.7 1.5 1.5
v 1.8 1.5 1.5
v 0.1 1.5 1.4
v 0.2 1.5 1.4
v 0.3 1.5 1.4
v 1.7 1.5 1.4
v 1.8 1.5 1.4
v 1.9 1.5 1.4
v 0.1 1.5 1.3
v 0.2 1.5 1.3
v 0.5 1.5 1.3
v 0.6 1.5 1.3
v 1.4 1.5 1.3
v 1.5 1.5 1.3
v 1.8 1.5 1.3
v 1.9 1.5 1.3
v 0.4 1.5 1.2
v 0.5 1.5 1.2
v 0.6 1.5 1.2
v 1.4 1.5 1.2
v 1.5 1.5 1.2
v 1.6 1.5 1.2
v 0.5 1.5 1.1
v 0.6 1.5 1.1
v 1.4 1.5 1.1
v 1.5 1.5 1.1
v 0.6 1.5 1
v 1.4 1.5 1
v 0.6 1.6 1.9
v 1.4 1.6 1.9
v 0.5 1.6 1.8
v 0.6 1.6 1.8
v 1.4 1.6 1.8
v 1.5 1.6 1.8
v 0 1.6 1.7
v 0.1 1.6 1.7
v 0.2 1.6 1.7
v 0.3 1.6 1.7
v 1.7 1.6 1.7
v 1.8 1.6 1.7
v 1.9 1.6 1.7
v 2 1.6 1.7
v 0 1.6 1.5
v 0.1 1.6 1.5
v 0.2 1.6 1.5
v 0.3 1.6 1.5
v 1.7 1.6 1.5
v 1.8 1.6 1.5
v 1.9 1.6 1.5
v 2 1.6 1.5
v 0.1 1.6 1.4
v 0.2 1.6 1.4
v 0.6 1.6 1.4
v 0.7 1.6 1.4
v 1.3 1.6 1.4
v 1.4 1.6 1.4
v 1.8 1.6 1.4
v 1.9 1.6 1.4
v 0.5 1.6 1.3
v 0.6 1.6 1.3
v 0.7 1.6 1.3
v 1.3 1.6 1.3
v 1.4 1.6 1.3
v 1.5 1.6 1.3
v 0.6 1.6 1.2
v 1.4 1.6 1.2
v 0.6 1.7 1.8
v 1.4 1.7 1.8
v 0.1 1.7 1.7
v 0.2 1.7 1.7
v 1.8 1.7 1.7
v 1.9 1.7 1.7
v 0.1 1.7 1.5
v 0.2 1.7 1.5
v 1.8 1.7 1.5
v 1.9 1.7 1.5
v 0.6 1.7 1.4
v 0.7 1.7 1.4
v 1.3 1.7 1.4
v 1.4 1.7 1.4
v 0.7 1.7 1.3
v 1.3 1.7 1.3

# faces
f 3/2/1 2/2/1 1/2/1
f 4/2/1 2/2/1 3/2/1
f 7/2/1 6/2/1 5/2/1
f 8/2/1 6/2/1 7/2/1
f 10/2/1 9/2/1 8/2/1
f 11/2/1 9/2/1 10/2/1
f 13/2/1 10/2/1 8/2/1
f 14/2/1 10/2/1 13/2/1
f 15/2/1 13/2/1 12/2/1
f 16/2/1 13/2/1 15/2/1
f 19/2/1 18/2/1 17/2/1
f 20/2/1 18/2/1 19/2/1
f 22/2/1 21/2/1 20/2/1
f 23/2/1 21/2/1 22/2/1
f 26/2/1 25/2/1 24/2/1
f 27/2/1 25/2/1 26/2/1
f 30/2/1 29/2/1 28/2/1
f 31/2/1 29/2/1 30/2/1
f 35/2/1 33/2/1 32/2/1
f 36/2/1 33/2/1 35/2/1
f 39/2/1 35/2/1 34/2/1
f 40/3/1 36/3/1 35/3/1
f 40/2/1 35/2/1 39/2/1
f 41/2/1 37/2/1 36/2/1
f 41/3/1 36/3/1 40/3/1
f 42/2/1 37/2/1 41/2/1
f 45/2/1 39/2/1 38/2/1
f 46/3/1 40/3/1 39/3/1
f 46/3/1 41/3/1 40/3/1
f 46/2/1 39/2/1 45/2/1
f 46/3/1 42/3/1 41/3/1
f 47/3/1 42/3/1 46/3/1
f 48/2/1 43/2/1 42/2/1
f 48/3/1 42/3/1 47/3/1
f 49/2/1 43/2/1 48/2/1
f 51/3/1 46/3/1 45/3/1
f 53/3/1 49/3/1 48/3/1
f 53/3/1 48/3/1 47/3/1
f 54/3/1 49/3/1 53/3/1
f 56/3/1 49/3/1 54/3/1
f 57/2/1 45/2/1 44/2/1
f 58/3/1 52/3/1 51/3/1
f 58/2/1 45/2/1 57/2/1
f 58/3/1 51/3/1 45/3/1
f 59/3/1 52/3/1 58/3/1
f 60/3/1 52/3/1 59/3/1
f 62/3/1 56/3/1 55/3/1
f 63/2/1 50/2/1 49/2/1
f 63/3/1 49/3/1 56/3/1
f 63/3/1 56/3/1 62/3/1
f 64/2/1 50/2/1 63/2/1
f 65/2/1 59/2/1 58/2/1
f 66/2/1 59/2/1 65/2/1
f 67/2/1 62/2/1 61/2/1
f 67/2/1 63/2/1 62/2/1
f 68/2/1 63/2/1 67/2/1
f 74/4/1 70/4/1 69/4/1
f 75/2/1 71/2/1 70/2/1
f 75/4/1 70/4/1 74/4/1
f 76/2/1 71/2/1 75/2/1
f 77/2/1 71/2/1 76/2/1
f 78/4/1 72/4/1 71/4/1
f 78/2/1 71/2/1 77/2/1
f 79/4/1 72/4/1 78/4/1
f 81/9/1 74/9/1 73/9/1
f 82/2/1 75/2/1 74/2/1
f 82/9/1 74/9/1 81/9/1
f 82/2/1 76/2/1 75/2/1
f 83/2/1 76/2/1 82/2/1
f 84/2/1 76/2/1 83/2/1
f 85/2/1 79/2/1 78/2/1
f 85/2/1 78/2/1 77/2/1
f 86/2/1 79/2/1 85/2/1
f 87/4/1 80/4/1 79/4/1
f 87/2/1 79/2/1 86/2/1
f 88/4/1 80/4/1 87/4/1
f 90/4/1 82/4/1 81/4/1
f 91/2/1 83/2/1 82/2/1
f 91/4/1 82/4/1 90/4/1
f 92/2/1 83/2/1 91/2/1
f 93/2/1 88/2/1 87/2/1
f 93/2/1 87/2/1 86/2/1
f 94/2/1 88/2/1 93/2/1
f 95/2/1 88/2/1 94/2/1
f 97/2/1 90/2/1 89/2/1
f 97/2/1 91/2/1 90/2/1
f 98/2/1 91/2/1 97/2/1
f 99/2/1 95/2/1 94/2/1
f 99/2/1 96/2/1 95/2/1
f 100/2/1 96/2/1 99/2/1
f 101/2/1 97/2/1 89/2/1
f 102/2/1 97/2/1 101/2/1
f 103/3/1 102/3/1 101/3/1
f 104/3/1 102/3/1 103/3/1
f 105/2/1 96/2/1 100/2/1
f 106/2/1 96/2/1 105/2/1
f 111/3/1 108/3/1 107/3/1
f 112/3/1 108/3/1 111/3/1
f 114/3/1 110/3/1 109/3/1
f 115/3/1 110/3/1 114/3/1
f 116/2/1 113/2/1 112/2/1
f 117/2/1 113/2/1 116/2/1
f 120/4/1 119/4/1 118/4/1
f 121/4/1 119/4/1 120/4/1
f 124/5/1 121/5/1 120/5/1
f 125/5/1 121/5/1 124/5/1
f 128/4/1 123/4/1 122/4/1
f 129/4/1 123/4/1 128/4/1
f 130/4/1 127/4/1 126/4/1
f 131/4/1 127/4/1 130/4/1
f 136/2/1 135/2/1 134/2/1
f 137/3/1 133/3/1 132/3/1
f 138/3/1 133/3/1 137/3/1
f 142/2/1 135/2/1 136/2/1
f 143/2/1 135/2/1 142/2/1
f 144/2/1 139/2/1 138/2/1
f 145/2/1 139/2/1 144/2/1
f 147/2/1 141/2/1 140/2/1
f 148/2/1 141/2/1 147/2/1
f 149/2/1 146/2/1 145/2/1
f 150/2/1 146/2/1 149/2/1
f 153/5/1 152/5/1 151/5/1
f 154/5/1 152/5/1 153/5/1
f 155/5/1 152/5/1 154/5/1
f 156/5/1 152/5/1 155/5/1
f 157/4/1 156/4/1 155/4/1
f 158/4/1 156/4/1 157/4/1
f 163/8/1 160/8/1 159/8/1
f 164/8/1 160/8/1 163/8/1
f 165/8/1 162/8/1 161/8/1
f 166/8/1 162/8/1 165/8/1
f 167/5/1 164/5/1 163/5/1
f 168/5/1 164/5/1 167/5/1
f 169/5/1 166/5/1 165/5/1
f 170/5/1 166/5/1 169/5/1
f 173/2/1 172/2/1 171/2/1
f 174/2/1 172/2/1 173/2/1
f 177/2/1 176/2/1 175/2/1
f 178/2/1 176/2/1 177/2/1
f 181/2/1 180/2/1 179/2/1
f 182/2/1 180/2/1 181/2/1
f 185/2/1 184/2/1 183/2/1
f 186/2/1 184/2/1 185/2/1
f 189/2/1 188/2/1 187/2/1
f 190/2/1 188/2/1 189/2/1
f 195/5/1 192/5/1 191/5/1
f 196/1/1 193/1/1 192/1/1
f 196/5/1 192/5/1 195/5/1
f 197/5/1 194/5/1 193/5/1
f 197/1/1 193/1/1 196/1/1
f 198/5/1 197/5/1 196/5/1
f 199/5/1 194/5/1 197/5/1
f 199/5/1 197/5/1 198/5/1
f 200/4/1 199/4/1 198/4/1
f 201/4/1 199/4/1 200/4/1
f 204/2/1 203/2/1 202/2/1
f 205/2/1 203/2/1 204/2/1
f 208/2/1 207/2/1 206/2/1
f 209/2/1 207/2/1 208/2/1
f 213/2/1 211/2/1 210/2/1
f 214/2/1 211/2/1 213/2/1
f 216/2/1 213/2/1 212/2/1
f 217/2/1 213/2/1 216/2/1
f 218/2/1 216/2/1 215/2/1
f 219/2/1 216/2/1 218/2/1
f 222/2/1 221/2/1 220/2/1
f 223/2/1 221/2/1 222/2/1
f 227/2/1 225/2/1 224/2/1
f 228/2/1 225/2/1 227/2/1
f 230/2/1 227/2/1 226/2/1
f 231/2/1 227/2/1 230/2/1
f 232/2/1 230/2/1 229/2/1
f 233/2/1 230/2/1 232/2/1
f 236/2/1 235/2/1 234/2/1
f 237/2/1 235/2/1 236/2/1
f 238/2/2 239/2/2 240/2/2
f 240/2/2 239/2/2 241/2/2
f 242/2/2 243/2/2 244/2/2
f 244/2/2 243/2/2 245/2/2
f 246/2/2 247/2/2 249/2/2
f 249/2/2 247/2/2 250/2/2
f 248/2/2 249/2/2 252/2/2
f 252/2/2 249/2/2 253/2/2
f 251/2/2 252/2/2 254/2/2
f 254/2/2 252/2/2 255/2/2
f 256/2/2 257/2/2 259/2/2
f 259/2/2 257/2/2 260/2/2
f 258/2/2 259/2/2 262/2/2
f 262/2/2 259/2/2 263/2/2
f 261/2/2 262/2/2 264/2/2
f 264/2/2 262/2/2 265/2/2
f 266/2/2 267/2/2 268/2/2
f 268/2/2 267/2/2 269/2/2
f 270/2/2 271/2/2 272/2/2
f 272/2/2 271/2/2 273/2/2
f 274/5/2 275/5/2 276/5/2
f 276/5/2 275/5/2 277/5/2
f 277/5/2 275/5/2 278/5/2
f 278/5/2 275/5/2 279/5/2
f 278/4/2 279/4/2 280/4/2
f 280/4/2 279/4/2 281/4/2
f 282/2/2 283/2/2 284/2/2
f 284/2/2 283/2/2 285/2/2
f 286/2/2 287/2/2 288/2/2
f 288/2/2 287/2/2 289/2/2
f 290/5/2 291/5/2 292/5/2
f 292/5/2 291/5/2 293/5/2
f 293/5/2 291/5/2 294/5/2
f 294/5/2 291/5/2 295/5/2
f 294/4/2 295/4/2 296/4/2
f 296/4/2 295/4/2 297/4/2
f 298/8/2 299/8/2 302/8/2
f 302/8/2 299/8/2 303/8/2
f 300/8/2 301/8/2 304/8/2
f 304/8/2 301/8/2 305/8/2
f 302/5/2 303/5/2 306/5/2
f 306/5/2 303/5/2 307/5/2
f 304/5/2 305/5/2 308/5/2
f 308/5/2 305/5/2 309/5/2
f 310/2/2 311/2/2 312/2/2
f 312/2/2 311/2/2 313/2/2
f 314/2/2 315/2/2 316/2/2
f 316/2/2 315/2/2 317/2/2
f 318/4/2 319/4/2 320/4/2
f 320/4/2 319/4/2 321/4/2
f 320/5/2 321/5/2 324/5/2
f 324/5/2 321/5/2 325/5/2
f 322/4/2 323/4/2 328/4/2
f 328/4/2 323/4/2 329/4/2
f 326/4/2 327/4/2 330/4/2
f 330/4/2 327/4/2 331/4/2
f 334/2/2 335/2/2 336/2/2
f 332/3/2 333/3/2 337/3/2
f 337/3/2 333/3/2 338/3/2
f 336/2/2 335/2/2 342/2/2
f 342/2/2 335/2/2 343/2/2
f 338/2/2 339/2/2 344/2/2
f 344/2/2 339/2/2 345/2/2
f 340/2/2 341/2/2 347/2/2
f 347/2/2 341/2/2 348/2/2
f 345/2/2 346/2/2 349/2/2
f 349/2/2 346/2/2 350/2/2
f 351/4/2 352/4/2 356/4/2
f 352/2/2 353/2/2 357/2/2
f 356/4/2 352/4/2 357/4/2
f 357/2/2 353/2/2 358/2/2
f 358/2/2 353/2/2 359/2/2
f 353/4/2 354/4/2 360/4/2
f 359/2/2 353/2/2 360/2/2
f 360/4/2 354/4/2 361/4/2
f 355/9/2 356/9/2 363/9/2
f 356/2/2 357/2/2 364/2/2
f 363/9/2 356/9/2 364/9/2
f 357/2/2 358/2/2 364/2/2
f 364/2/2 358/2/2 365/2/2
f 365/2/2 358/2/2 366/2/2
f 360/2/2 361/2/2 367/2/2
f 359/2/2 360/2/2 367/2/2
f 367/2/2 361/2/2 368/2/2
f 361/4/2 362/4/2 369/4/2
f 368/2/2 361/2/2 369/2/2
f 369/4/2 362/4/2 370/4/2
f 363/4/2 364/4/2 372/4/2
f 364/2/2 365/2/2 373/2/2
f 372/4/2 364/4/2 373/4/2
f 373/2/2 365/2/2 374/2/2
f 369/2/2 370/2/2 375/2/2
f 368/2/2 369/2/2 375/2/2
f 375/2/2 370/2/2 376/2/2
f 376/2/2 370/2/2 377/2/2
f 371/2/2 372/2/2 379/2/2
f 372/2/2 373/2/2 379/2/2
f 379/2/2 373/2/2 380/2/2
f 376/2/2 377/2/2 381/2/2
f 377/2/2 378/2/2 381/2/2
f 381/2/2 378/2/2 382/2/2
f 371/2/2 379/2/2 383/2/2
f 383/2/2 379/2/2 384/2/2
f 383/3/2 384/3/2 385/3/2
f 385/3/2 384/3/2 386/3/2
f 382/2/2 378/2/2 387/2/2
f 387/2/2 378/2/2 388/2/2
f 389/3/2 390/3/2 393/3/2
f 393/3/2 390/3/2 394/3/2
f 391/3/2 392/3/2 396/3/2
f 396/3/2 392/3/2 397/3/2
f 394/2/2 395/2/2 398/2/2
f 398/2/2 395/2/2 399/2/2
f 400/2/2 401/2/2 403/2/2
f 403/2/2 401/2/2 404/2/2
f 402/2/2 403/2/2 407/2/2
f 403/3/2 404/3/2 408/3/2
f 407/2/2 403/2/2 408/2/2
f 404/2/2 405/2/2 409/2/2
f 408/3/2 404/3/2 409/3/2
f 409/2/2 405/2/2 410/2/2
f 406/2/2 407/2/2 413/2/2
f 407/3/2 408/3/2 414/3/2
f 408/3/2 409/3/2 414/3/2
f 413/2/2 407/2/2 414/2/2
f 409/3/2 410/3/2 414/3/2
f 414/3/2 410/3/2 415/3/2
f 410/2/2 411/2/2 416/2/2
f 415/3/2 410/3/2 416/3/2
f 416/2/2 411/2/2 417/2/2
f 413/3/2 414/3/2 419/3/2
f 416/3/2 417/3/2 421/3/2
f 415/3/2 416/3/2 421/3/2
f 421/3/2 417/3/2 422/3/2
f 422/3/2 417/3/2 424/3/2
f 412/2/2 413/2/2 425/2/2
f 419/3/2 420/3/2 426/3/2
f 425/2/2 413/2/2 426/2/2
f 413/3/2 419/3/2 426/3/2
f 426/3/2 420/3/2 427/3/2
f 427/3/2 420/3/2 428/3/2
f 423/3/2 424/3/2 430/3/2
f 417/2/2 418/2/2 431/2/2
f 424/3/2 417/3/2 431/3/2
f 430/3/2 424/3/2 431/3/2
f 431/2/2 418/2/2 432/2/2
f 426/2/2 427/2/2 433/2/2
f 433/2/2 427/2/2 434/2/2
f 429/2/2 430/2/2 435/2/2
f 430/2/2 431/2/2 435/2/2
f 435/2/2 431/2/2 436/2/2
f 437/2/2 438/2/2 439/2/2
f 439/2/2 438/2/2 440/2/2
f 441/2/2 442/2/2 443/2/2
f 443/2/2 442/2/2 444/2/2
f 444/2/2 445/2/2 446/2/2
f 446/2/2 445/2/2 447/2/2
f 448/2/2 449/2/2 450/2/2
f 450/2/2 449/2/2 451/2/2
f 452/2/2 453/2/2 454/2/2
f 454/2/2 453/2/2 455/2/2
f 455/2/2 456/2/2 457/2/2
f 457/2/2 456/2/2 458/2/2
f 455/2/2 457/2/2 460/2/2
f 460/2/2 457/2/2 461/2/2
f 459/2/2 460/2/2 462/2/2
f 462/2/2 460/2/2 463/2/2
f 464/2/2 465/2/2 466/2/2
f 466/2/2 465/2/2 467/2/2
f 471/2/3 469/2/3 468/2/3
f 472/3/3 470/3/3 469/3/3
f 472/2/3 469/2/3 471/2/3
f 473/3/3 470/3/3 472/3/3
f 475/2/3 473/2/3 472/2/3
f 476/3/3 474/3/3 473/3/3
f 476/2/3 473/2/3 475/2/3
f 477/3/3 474/3/3 476/3/3
f 479/2/3 477/2/3 476/2/3
f 480/3/3 474/3/3 477/3/3
f 480/2/3 477/2/3 479/2/3
f 482/2/3 479/2/3 478/2/3
f 483/3/3 480/3/3 479/3/3
f 483/2/3 479/2/3 482/2/3
f 485/2/3 482/2/3 481/2/3
f 486/2/3 485/2/3 484/2/3
f 487/3/3 483/3/3 482/3/3
f 487/2/3 485/2/3 486/2/3
f 487/2/3 482/2/3 485/2/3
f 488/3/3 480/3/3 483/3/3
f 488/3/3 483/3/3 487/3/3
f 489/2/3 488/2/3 487/2/3
f 490/3/3 480/3/3 488/3/3
f 490/2/3 488/2/3 489/2/3
f 491/3/3 474/3/3 480/3/3
f 491/3/3 480/3/3 490/3/3
f 493/2/3 491/2/3 490/2/3
f 494/3/3 474/3/3 491/3/3
f 494/2/3 491/2/3 493/2/3
f 496/2/3 493/2/3 492/2/3
f 497/3/3 494/3/3 493/3/3
f 497/2/3 493/2/3 496/2/3
f 498/3/3 474/3/3 494/3/3
f 498/3/3 494/3/3 497/3/3
f 499/2/3 496/2/3 495/2/3
f 500/3/3 497/3/3 496/3/3
f 500/2/3 496/2/3 499/2/3
f 501/3/3 497/3/3 500/3/3
f 507/2/3 503/2/3 502/2/3
f 508/2/3 503/2/3 507/2/3
f 509/2/3 503/2/3 508/2/3
f 510/2/3 503/2/3 509/2/3
f 513/9/3 505/9/3 504/9/3
f 514/4/3 506/4/3 505/4/3
f 516/3/3 510/3/3 509/3/3
f 516/3/3 511/3/3 510/3/3
f 517/3/3 511/3/3 516/3/3
f 519/4/3 513/4/3 512/4/3
f 519/9/3 505/9/3 513/9/3
f 520/4/3 515/4/3 514/4/3
f 520/9/3 505/9/3 519/9/3
f 520/4/3 514/4/3 505/4/3
f 521/4/3 515/4/3 520/4/3
f 522/4/3 515/4/3 521/4/3
f 524/4/3 519/4/3 512/4/3
f 524/6/3 520/6/3 519/6/3
f 524/6/3 521/6/3 520/6/3
f 525/4/3 523/4/3 522/4/3
f 525/6/3 521/6/3 524/6/3
f 525/4/3 522/4/3 521/4/3
f 526/4/3 523/4/3 525/4/3
f 527/4/3 523/4/3 526/4/3
f 528/4/3 525/4/3 524/4/3
f 528/4/3 526/4/3 525/4/3
f 529/4/3 526/4/3 528/4/3
f 530/4/3 528/4/3 524/4/3
f 531/4/3 528/4/3 530/4/3
f 532/4/3 530/4/3 524/4/3
f 534/4/3 524/4/3 512/4/3
f 534/4/3 533/4/3 532/4/3
f 534/4/3 532/4/3 524/4/3
f 535/4/3 533/4/3 534/4/3
f 536/4/3 533/4/3 535/4/3
f 538/4/3 534/4/3 512/4/3
f 538/6/3 535/6/3 534/6/3
f 539/6/3 535/6/3 538/6/3
f 540/4/3 536/4/3 535/4/3
f 540/6/3 535/6/3 539/6/3
f 540/4/3 537/4/3 536/4/3
f 541/4/3 537/4/3 540/4/3
f 542/4/3 537/4/3 541/4/3
f 543/4/3 538/4/3 512/4/3
f 544/9/3 539/9/3 538/9/3
f 544/4/3 538/4/3 543/4/3
f 545/4/3 540/4/3 539/4/3
f 545/4/3 541/4/3 540/4/3
f 546/4/3 541/4/3 545/4/3
f 548/2/3 518/2/3 517/2/3
f 549/2/3 518/2/3 548/2/3
f 550/9/3 539/9/3 544/9/3
f 551/4/3 545/4/3 539/4/3
f 551/9/3 539/9/3 550/9/3
f 552/4/3 545/4/3 551/4/3
f 555/3/3 548/3/3 547/3/3
f 556/3/3 548/3/3 555/3/3
f 557/3/3 548/3/3 556/3/3
f 558/2/3 554/2/3 553/2/3
f 558/2/3 556/2/3 555/2/3
f 558/2/3 555/2/3 554/2/3
f 559/2/3 556/2/3 558/2/3
f 566/2/3 561/2/3 560/2/3
f 567/2/3 561/2/3 566/2/3
f 568/2/3 563/2/3 562/2/3
f 569/2/3 563/2/3 568/2/3
f 571/4/3 565/4/3 564/4/3
f 572/4/3 565/4/3 571/4/3
f 573/2/3 570/2/3 569/2/3
f 574/2/3 570/2/3 573/2/3
f 579/2/3 575/2/3 574/2/3
f 580/2/3 575/2/3 579/2/3
f 581/4/3 577/4/3 576/4/3
f 582/4/3 577/4/3 581/4/3
f 586/2/3 579/2/3 578/2/3
f 587/2/3 579/2/3 586/2/3
f 588/2/3 584/2/3 583/2/3
f 589/2/3 584/2/3 588/2/3
f 590/2/3 586/2/3 585/2/3
f 591/2/3 586/2/3 590/2/3
f 595/2/3 593/2/3 592/2/3
f 596/2/3 593/2/3 595/2/3
f 599/2/3 595/2/3 594/2/3
f 600/2/3 595/2/3 599/2/3
f 602/2/3 597/2/3 596/2/3
f 603/2/3 597/2/3 602/2/3
f 605/2/3 602/2/3 601/2/3
f 606/2/3 602/2/3 605/2/3
f 609/2/3 599/2/3 598/2/3
f 610/2/3 599/2/3 609/2/3
f 611/2/3 605/2/3 604/2/3
f 612/2/3 605/2/3 611/2/3
f 613/2/3 608/2/3 607/2/3
f 614/2/3 608/2/3 613/2/3
f 620/5/3 616/5/3 615/5/3
f 621/5/3 616/5/3 620/5/3
f 624/5/3 623/5/3 622/5/3
f 625/5/3 623/5/3 624/5/3
f 626/8/3 618/8/3 617/8/3
f 627/5/3 619/5/3 618/5/3
f 627/8/3 618/8/3 626/8/3
f 628/5/3 619/5/3 627/5/3
f 631/2/3 630/2/3 629/2/3
f 632/2/3 630/2/3 631/2/3
f 637/2/3 636/2/3 635/2/3
f 638/2/3 636/2/3 637/2/3
f 640/2/3 634/2/3 633/2/3
f 641/2/3 634/2/3 640/2/3
f 643/2/3 639/2/3 638/2/3
f 644/2/3 639/2/3 643/2/3
f 646/2/3 642/2/3 641/2/3
f 647/2/3 642/2/3 646/2/3
f 648/2/3 645/2/3 644/2/3
f 649/2/3 645/2/3 648/2/3
f 650/2/3 648/2/3 647/2/3
f 651/2/3 648/2/3 650/2/3
f 655/8/3 653/8/3 652/8/3
f 656/8/3 653/8/3 655/8/3
f 657/8/3 653/8/3 656/8/3
f 658/8/3 655/8/3 654/8/3
f 658/8/3 656/8/3 655/8/3
f 659/8/3 656/8/3 658/8/3
f 662/8/3 658/8/3 654/8/3
f 663/8/3 658/8/3 662/8/3
f 664/2/3 661/2/3 660/2/3
f 665/2/3 661/2/3 664/2/3
f 671/4/3 667/4/3 666/4/3
f 672/5/3 668/5/3 667/5/3
f 672/4/3 667/4/3 671/4/3
f 673/5/3 668/5/3 672/5/3
f 674/5/3 668/5/3 673/5/3
f 675/5/3 670/5/3 669/5/3
f 676/4/3 671/4/3 670/4/3
f 676/5/3 670/5/3 675/5/3
f 677/5/3 672/5/3 671/5/3
f 677/4/3 671/4/3 676/4/3
f 680/5/3 672/5/3 677/5/3
f 681/5/3 679/5/3 678/5/3
f 682/4/3 680/4/3 679/4/3
f 682/5/3 679/5/3 681/5/3
f 683/5/3 672/5/3 680/5/3
f 683/4/3 680/4/3 682/4/3
f 684/5/3 672/5/3 683/5/3
f 687/4/3 684/4/3 683/4/3
f 688/5/3 686/5/3 685/5/3
f 688/4/3 684/4/3 687/4/3
f 688/5/3 685/5/3 684/5/3
f 689/5/3 686/5/3 688/5/3
f 692/2/3 691/2/3 690/2/3
f 693/2/3 691/2/3 692/2/3
f 696/8/3 695/8/3 694/8/3
f 698/8/3 696/8/3 694/8/3
f 698/8/3 697/8/3 696/8/3
f 699/8/3 697/8/3 698/8/3
f 700/8/3 697/8/3 699/8/3
f 702/8/3 700/8/3 699/8/3
f 702/8/3 701/8/3 700/8/3
f 703/8/3 701/8/3 702/8/3
f 704/2/4 705/2/4 707/2/4
f 707/2/4 705/2/4 708/2/4
f 706/2/4 707/2/4 711/2/4
f 711/2/4 707/2/4 712/2/4
f 708/2/4 709/2/4 714/2/4
f 714/2/4 709/2/4 715/2/4
f 713/2/4 714/2/4 717/2/4
f 717/2/4 714/2/4 718/2/4
f 710/2/4 711/2/4 719/2/4
f 719/2/4 711/2/4 720/2/4
f 716/2/4 717/2/4 721/2/4
f 721/2/4 717/2/4 722/2/4
f 725/2/4 726/2/4 727/2/4
f 727/2/4 726/2/4 728/2/4
f 723/2/4 724/2/4 730/2/4
f 730/2/4 724/2/4 731/2/4
f 728/2/4 729/2/4 733/2/4
f 733/2/4 729/2/4 734/2/4
f 731/2/4 732/2/4 736/2/4
f 736/2/4 732/2/4 737/2/4
f 734/2/4 735/2/4 738/2/4
f 738/2/4 735/2/4 739/2/4
f 737/2/4 738/2/4 740/2/4
f 740/2/4 738/2/4 741/2/4
f 742/2/4 743/2/4 745/2/4
f 745/2/4 743/2/4 746/2/4
f 744/2/4 745/2/4 748/2/4
f 748/2/4 745/2/4 749/2/4
f 747/2/4 748/2/4 752/2/4
f 752/2/4 748/2/4 753/2/4
f 750/2/4 751/2/4 754/2/4
f 754/2/4 751/2/4 755/2/4
f 756/4/4 757/4/4 763/4/4
f 757/5/4 758/5/4 764/5/4
f 763/4/4 757/4/4 764/4/4
f 764/5/4 758/5/4 765/5/4
f 765/5/4 758/5/4 766/5/4
f 759/2/4 760/2/4 767/2/4
f 767/2/4 760/2/4 768/2/4
f 761/5/4 762/5/4 769/5/4
f 762/4/4 763/4/4 770/4/4
f 769/5/4 762/5/4 770/5/4
f 763/5/4 764/5/4 771/5/4
f 770/4/4 763/4/4 771/4/4
f 771/5/4 764/5/4 774/5/4
f 772/5/4 773/5/4 775/5/4
f 773/4/4 774/4/4 776/4/4
f 775/5/4 773/5/4 776/5/4
f 774/5/4 764/5/4 777/5/4
f 776/4/4 774/4/4 777/4/4
f 777/5/4 764/5/4 778/5/4
f 777/4/4 778/4/4 783/4/4
f 779/5/4 780/5/4 784/5/4
f 783/4/4 778/4/4 784/4/4
f 778/5/4 779/5/4 784/5/4
f 784/5/4 780/5/4 785/5/4
f 781/2/4 782/2/4 786/2/4
f 786/2/4 782/2/4 787/2/4
f 788/2/4 789/2/4 790/2/4
f 790/2/4 789/2/4 791/2/4
f 792/2/4 793/2/4 794/2/4
f 794/2/4 793/2/4 795/2/4
f 795/2/4 796/2/4 797/2/4
f 797/2/4 796/2/4 798/2/4
f 798/2/4 799/2/4 800/2/4
f 800/2/4 799/2/4 801/2/4
f 802/2/4 803/2/4 805/2/4
f 805/2/4 803/2/4 806/2/4
f 806/2/4 803/2/4 807/2/4
f 804/2/4 805/2/4 808/2/4
f 805/2/4 806/2/4 808/2/4
f 808/2/4 806/2/4 809/2/4
f 804/2/4 808/2/4 812/2/4
f 812/2/4 808/2/4 813/2/4
f 810/2/4 811/2/4 814/2/4
f 814/2/4 811/2/4 815/2/4
f 816/2/4 817/2/4 818/2/4
f 818/2/4 817/2/4 819/2/4
f 820/8/4 821/8/4 825/8/4
f 821/5/4 822/5/4 826/5/4
f 825/8/4 821/8/4 826/8/4
f 826/5/4 822/5/4 827/5/4
f 823/2/4 824/2/4 828/2/4
f 828/2/4 824/2/4 829/2/4
f 830/2/4 831/2/4 834/2/4
f 834/2/4 831/2/4 835/2/4
f 832/2/4 833/2/4 836/2/4
f 836/2/4 833/2/4 837/2/4
f 838/2/4 839/2/4 840/2/4
f 838/2/4 840/2/4 842/2/4
f 840/2/4 841/2/4 842/2/4
f 842/2/4 841/2/4 843/2/4
f 843/2/4 841/2/4 844/2/4
f 844/2/4 845/2/4 846/2/4
f 843/2/4 844/2/4 846/2/4
f 846/2/4 845/2/4 847/2/4
f 848/2/4 849/2/4 854/2/4
f 854/2/4 849/2/4 855/2/4
f 850/2/4 851/2/4 856/2/4
f 856/2/4 851/2/4 857/2/4
f 852/4/4 853/4/4 858/4/4
f 858/4/4 853/4/4 859/4/4
f 860/2/4 861/2/4 864/2/4
f 864/2/4 861/2/4 865/2/4
f 862/4/4 863/4/4 866/4/4
f 866/4/4 863/4/4 867/4/4
f 868/2/4 869/2/4 872/2/4
f 872/2/4 869/2/4 873/2/4
f 870/2/4 871/2/4 874/2/4
f 874/2/4 871/2/4 875/2/4
f 876/2/4 877/2/4 881/2/4
f 881/2/4 877/2/4 882/2/4
f 882/2/4 877/2/4 883/2/4
f 878/4/4 879/4/4 886/4/4
f 882/2/4 883/2/4 887/2/4
f 883/3/4 884/3/4 888/3/4
f 887/2/4 883/2/4 888/2/4
f 888/3/4 884/3/4 889/3/4
f 885/4/4 886/4/4 890/4/4
f 886/4/4 879/4/4 890/4/4
f 879/2/4 880/2/4 891/2/4
f 890/4/4 879/4/4 891/4/4
f 891/2/4 880/2/4 892/2/4
f 885/4/4 890/4/4 893/4/4
f 890/2/4 891/2/4 893/2/4
f 893/2/4 891/2/4 894/2/4
f 885/4/4 893/4/4 896/4/4
f 893/4/4 894/4/4 896/4/4
f 896/4/4 894/4/4 897/4/4
f 897/4/4 894/4/4 901/4/4
f 894/2/4 895/2/4 902/2/4
f 901/4/4 894/4/4 902/4/4
f 902/2/4 895/2/4 903/2/4
f 898/2/4 899/2/4 905/2/4
f 899/3/4 900/3/4 906/3/4
f 905/2/4 899/2/4 906/2/4
f 906/3/4 900/3/4 907/3/4
f 904/2/4 905/2/4 908/2/4
f 905/2/4 906/2/4 908/2/4
f 908/2/4 906/2/4 909/2/4
f 910/2/4 911/2/4 912/2/4
f 912/2/4 911/2/4 913/2/4
f 910/2/4 912/2/4 916/2/4
f 912/3/4 913/3/4 917/3/4
f 916/2/4 912/2/4 917/2/4
f 913/2/4 914/2/4 918/2/4
f 917/3/4 913/3/4 918/3/4
f 918/2/4 914/2/4 919/2/4
f 915/2/4 916/2/4 920/2/4
f 916/3/4 917/3/4 921/3/4
f 920/2/4 916/2/4 921/2/4
f 917/3/4 918/3/4 921/3/4
f 918/3/4 919/3/4 921/3/4
f 921/3/4 919/3/4 922/3/4
f 922/3/4 919/3/4 923/3/4
f 919/2/4 914/2/4 924/2/4
f 923/3/4 919/3/4 924/3/4
f 922/3/4 923/3/4 925/3/4
f 921/2/4 922/2/4 925/2/4
f 923/2/4 924/2/4 926/2/4
f 925/3/4 923/3/4 926/3/4
f 924/2/4 914/2/4 927/2/4
f 926/2/4 924/2/4 927/2/4
f 925/2/4 926/2/4 928/2/4
f 921/2/4 925/2/4 928/2/4
f 928/2/4 926/2/4 929/2/4
f 934/5/5 933/5/5 932/5/5
f 935/5/5 933/5/5 934/5/5
f 936/1/5 935/1/5 934/1/5
f 937/5/5 933/5/5 935/5/5
f 937/1/5 935/1/5 936/1/5
f 938/5/5 931/5/5 930/5/5
f 939/5/5 931/5/5 938/5/5
f 940/5/5 937/5/5 936/5/5
f 941/5/5 933/5/5 937/5/5
f 941/5/5 937/5/5 940/5/5
f 948/4/5 943/4/5 942/4/5
f 949/4/5 943/4/5 948/4/5
f 950/5/5 945/5/5 944/5/5
f 951/5/5 945/5/5 950/5/5
f 952/4/5 947/4/5 946/4/5
f 953/4/5 947/4/5 952/4/5
f 956/8/5 955/8/5 954/8/5
f 957/8/5 955/8/5 956/8/5
f 960/8/5 959/8/5 958/8/5
f 961/8/5 959/8/5 960/8/5
f 965/4/5 963/4/5 962/4/5
f 966/4/5 963/4/5 965/4/5
f 968/4/5 965/4/5 964/4/5
f 968/4/5 967/4/5 966/4/5
f 968/4/5 966/4/5 965/4/5
f 969/4/5 967/4/5 968/4/5
f 970/4/5 967/4/5 969/4/5
f 971/4/5 967/4/5 970/4/5
f 972/4/5 967/4/5 971/4/5
f 973/4/5 967/4/5 972/4/5
f 974/2/5 969/2/5 968/2/5
f 974/4/5 970/4/5 969/4/5
f 975/4/5 970/4/5 974/4/5
f 976/4/5 972/4/5 971/4/5
f 977/2/5 973/2/5 972/2/5
f 977/4/5 972/4/5 976/4/5
f 978/2/5 974/2/5 968/2/5
f 981/2/5 973/2/5 977/2/5
f 982/2/5 978/2/5 968/2/5
f 983/4/5 979/4/5 978/4/5
f 983/2/5 978/2/5 982/2/5
f 984/4/5 979/4/5 983/4/5
f 985/4/5 981/4/5 980/4/5
f 986/2/5 973/2/5 981/2/5
f 986/4/5 981/4/5 985/4/5
f 987/2/5 973/2/5 986/2/5
f 988/4/5 984/4/5 983/4/5
f 988/4/5 985/4/5 984/4/5
f 988/4/5 987/4/5 986/4/5
f 988/4/5 986/4/5 985/4/5
f 988/4/5 983/4/5 982/4/5
f 989/4/5 987/4/5 988/4/5
f 990/4/5 987/4/5 989/4/5
f 991/4/5 987/4/5 990/4/5
f 992/4/5 990/4/5 989/4/5
f 993/4/5 990/4/5 992/4/5
f 998/9/5 995/9/5 994/9/5
f 999/9/5 995/9/5 998/9/5
f 1000/9/5 997/9/5 996/9/5
f 1001/9/5 997/9/5 1000/9/5
f 1006/2/5 1003/2/5 1002/2/5
f 1007/2/5 1003/2/5 1006/2/5
f 1008/2/5 1005/2/5 1004/2/5
f 1009/2/5 1005/2/5 1008/2/5
f 1014/4/5 1011/4/5 1010/4/5
f 1015/4/5 1011/4/5 1014/4/5
f 1016/4/5 1013/4/5 1012/4/5
f 1017/4/5 1013/4/5 1016/4/5
f 1022/2/5 1019/2/5 1018/2/5
f 1023/2/5 1019/2/5 1022/2/5
f 1024/2/5 1021/2/5 1020/2/5
f 1025/2/5 1021/2/5 1024/2/5
f 1030/2/5 1027/2/5 1026/2/5
f 1031/2/5 1027/2/5 1030/2/5
f 1032/2/5 1029/2/5 1028/2/5
f 1033/2/5 1029/2/5 1032/2/5
f 1036/2/5 1035/2/5 1034/2/5
f 1037/2/5 1035/2/5 1036/2/5
f 1044/2/5 1039/2/5 1038/2/5
f 1045/2/5 1039/2/5 1044/2/5
f 1046/2/5 1041/2/5 1040/2/5
f 1047/2/5 1041/2/5 1046/2/5
f 1048/2/5 1043/2/5 1042/2/5
f 1049/2/5 1043/2/5 1048/2/5
f 1054/2/5 1051/2/5 1050/2/5
f 1055/2/5 1051/2/5 1054/2/5
f 1056/2/5 1053/2/5 1052/2/5
f 1057/2/5 1053/2/5 1056/2/5
f 1062/2/5 1059/2/5 1058/2/5
f 1063/2/5 1059/2/5 1062/2/5
f 1064/2/5 1061/2/5 1060/2/5
f 1065/2/5 1061/2/5 1064/2/5
f 1070/2/5 1067/2/5 1066/2/5
f 1071/2/5 1067/2/5 1070/2/5
f 1072/2/5 1069/2/5 1068/2/5
f 1073/2/5 1069/2/5 1072/2/5
f 1078/2/5 1075/2/5 1074/2/5
f 1079/2/5 1075/2/5 1078/2/5
f 1082/2/5 1077/2/5 1076/2/5
f 1083/2/5 1077/2/5 1082/2/5
f 1084/2/5 1081/2/5 1080/2/5
f 1085/2/5 1081/2/5 1084/2/5
f 1090/2/5 1087/2/5 1086/2/5
f 1091/2/5 1087/2/5 1090/2/5
f 1092/2/5 1089/2/5 1088/2/5
f 1093/2/5 1089/2/5 1092/2/5
f 1098/2/5 1095/2/5 1094/2/5
f 1099/2/5 1095/2/5 1098/2/5
f 1100/2/5 1097/2/5 1096/2/5
f 1101/2/5 1097/2/5 1100/2/5
f 1110/2/5 1103/2/5 1102/2/5
f 1111/2/5 1103/2/5 1110/2/5
f 1112/2/5 1105/2/5 1104/2/5
f 1113/2/5 1105/2/5 1112/2/5
f 1114/2/5 1107/2/5 1106/2/5
f 1115/2/5 1107/2/5 1114/2/5
f 1116/2/5 1109/2/5 1108/2/5
f 1117/2/5 1109/2/5 1116/2/5
f 1122/2/5 1119/2/5 1118/2/5
f 1123/2/5 1119/2/5 1122/2/5
f 1126/2/5 1121/2/5 1120/2/5
f 1127/2/5 1121/2/5 1126/2/5
f 1128/2/5 1124/2/5 1123/2/5
f 1129/2/5 1124/2/5 1128/2/5
f 1130/2/5 1126/2/5 1125/2/5
f 1131/2/5 1126/2/5 1130/2/5
f 1136/2/5 1133/2/5 1132/2/5
f 1137/2/5 1133/2/5 1136/2/5
f 1138/2/5 1135/2/5 1134/2/5
f 1139/2/5 1135/2/5 1138/2/5
f 1144/2/5 1141/2/5 1140/2/5
f 1145/2/5 1141/2/5 1144/2/5
f 1148/2/5 1143/2/5 1142/2/5
f 1149/2/5 1143/2/5 1148/2/5
f 1150/2/5 1146/2/5 1145/2/5
f 1151/2/5 1146/2/5 1150/2/5
f 1152/2/5 1148/2/5 1147/2/5
f 1153/2/5 1148/2/5 1152/2/5
f 1158/2/5 1155/2/5 1154/2/5
f 1159/2/5 1155/2/5 1158/2/5
f 1160/2/5 1157/2/5 1156/2/5
f 1161/2/5 1157/2/5 1160/2/5
f 1166/2/5 1163/2/5 1162/2/5
f 1167/2/5 1163/2/5 1166/2/5
f 1168/2/5 1165/2/5 1164/2/5
f 1169/2/5 1165/2/5 1168/2/5
f 1174/2/5 1171/2/5 1170/2/5
f 1175/2/5 1171/2/5 1174/2/5
f 1176/2/5 1173/2/5 1172/2/5
f 1177/2/5 1173/2/5 1176/2/5
f 1178/5/6 1179/5/6 1182/5/6
f 1182/5/6 1179/5/6 1183/5/6
f 1180/5/6 1181/5/6 1184/5/6
f 1184/5/6 1181/5/6 1185/5/6
f 1186/2/6 1187/2/6 1190/2/6
f 1190/2/6 1187/2/6 1191/2/6
f 1188/2/6 1189/2/6 1192/2/6
f 1192/2/6 1189/2/6 1193/2/6
f 1194/3/6 1195/3/6 1198/3/6
f 1198/3/6 1195/3/6 1199/3/6
f 1196/3/6 1197/3/6 1200/3/6
f 1200/3/6 1197/3/6 1201/3/6
f 1202/2/6 1203/2/6 1206/2/6
f 1206/2/6 1203/2/6 1207/2/6
f 1204/2/6 1205/2/6 1208/2/6
f 1208/2/6 1205/2/6 1209/2/6
f 1210/2/6 1211/2/6 1214/2/6
f 1214/2/6 1211/2/6 1215/2/6
f 1212/2/6 1213/2/6 1216/2/6
f 1216/2/6 1213/2/6 1217/2/6
f 1218/2/6 1219/2/6 1222/2/6
f 1222/2/6 1219/2/6 1223/2/6
f 1220/2/6 1221/2/6 1224/2/6
f 1224/2/6 1221/2/6 1225/2/6
f 1226/2/6 1227/2/6 1230/2/6
f 1230/2/6 1227/2/6 1231/2/6
f 1228/2/6 1229/2/6 1232/2/6
f 1232/2/6 1229/2/6 1233/2/6
f 1234/2/6 1235/2/6 1239/2/6
f 1239/2/6 1235/2/6 1240/2/6
f 1236/2/6 1237/2/6 1241/2/6
f 1241/2/6 1237/2/6 1242/2/6
f 1238/2/6 1239/2/6 1244/2/6
f 1244/2/6 1239/2/6 1245/2/6
f 1242/2/6 1243/2/6 1246/2/6
f 1246/2/6 1243/2/6 1247/2/6
f 1248/2/6 1249/2/6 1252/2/6
f 1252/2/6 1249/2/6 1253/2/6
f 1250/2/6 1251/2/6 1254/2/6
f 1254/2/6 1251/2/6 1255/2/6
f 1256/3/6 1257/3/6 1259/3/6
f 1259/3/6 1257/3/6 1260/3/6
f 1258/3/6 1259/3/6 1263/3/6
f 1263/3/6 1259/3/6 1264/3/6
f 1260/3/6 1261/3/6 1265/3/6
f 1265/3/6 1261/3/6 1266/3/6
f 1262/2/6 1263/2/6 1269/2/6
f 1266/2/6 1267/2/6 1270/2/6
f 1268/2/6 1269/2/6 1273/2/6
f 1269/2/6 1263/2/6 1274/2/6
f 1273/2/6 1269/2/6 1274/2/6
f 1270/2/6 1271/2/6 1275/2/6
f 1266/2/6 1270/2/6 1275/2/6
f 1275/2/6 1271/2/6 1276/2/6
f 1272/2/6 1273/2/6 1279/2/6
f 1279/2/6 1273/2/6 1280/2/6
f 1276/2/6 1277/2/6 1281/2/6
f 1281/2/6 1277/2/6 1282/2/6
f 1278/2/6 1279/2/6 1284/2/6
f 1284/2/6 1279/2/6 1285/2/6
f 1274/2/6 1263/2/6 1286/2/6
f 1266/2/6 1275/2/6 1289/2/6
f 1282/2/6 1283/2/6 1290/2/6
f 1290/2/6 1283/2/6 1291/2/6
f 1274/2/6 1286/2/6 1292/2/6
f 1286/3/6 1287/3/6 1293/3/6
f 1292/2/6 1286/2/6 1293/2/6
f 1293/3/6 1287/3/6 1294/3/6
f 1288/3/6 1289/3/6 1295/3/6
f 1289/2/6 1275/2/6 1296/2/6
f 1295/3/6 1289/3/6 1296/3/6
f 1296/2/6 1275/2/6 1297/2/6
f 1293/3/6 1294/3/6 1298/3/6
f 1294/3/6 1295/3/6 1298/3/6
f 1295/3/6 1296/3/6 1298/3/6
f 1298/3/6 1296/3/6 1299/3/6
f 1299/3/6 1296/3/6 1300/3/6
f 1300/3/6 1296/3/6 1301/3/6
f 1299/2/6 1300/2/6 1302/2/6
f 1302/2/6 1300/2/6 1303/2/6
f 1304/2/6 1305/2/6 1307/2/6
f 1307/2/6 1305/2/6 1308/2/6
f 1310/2/6 1311/2/6 1318/2/6
f 1318/2/6 1311/2/6 1319/2/6
f 1312/2/6 1313/2/6 1320/2/6
f 1320/2/6 1313/2/6 1321/2/6
f 1314/2/6 1315/2/6 1322/2/6
f 1322/2/6 1315/2/6 1323/2/6
f 1316/2/6 1317/2/6 1324/2/6
f 1324/2/6 1317/2/6 1325/2/6
f 1319/2/6 1320/2/6 1326/2/6
f 1326/2/6 1320/2/6 1327/2/6
f 1306/2/6 1307/2/6 1328/2/6
f 1308/2/6 1309/2/6 1331/2/6
f 1323/2/6 1324/2/6 1332/2/6
f 1332/2/6 1324/2/6 1333/2/6
f 1328/2/6 1329/2/6 1334/2/6
f 1306/2/6 1328/2/6 1334/2/6
f 1334/2/6 1329/2/6 1335/2/6
f 1335/2/6 1329/2/6 1336/2/6
f 1330/2/6 1331/2/6 1337/2/6
f 1331/2/6 1309/2/6 1338/2/6
f 1337/2/6 1331/2/6 1338/2/6
f 1338/2/6 1309/2/6 1339/2/6
f 1335/2/6 1336/2/6 1340/2/6
f 1336/2/6 1337/2/6 1340/2/6
f 1337/2/6 1338/2/6 1340/2/6
f 1340/2/6 1338/2/6 1341/2/6
f 1344/2/6 1345/2/6 1348/2/6
f 1348/2/6 1345/2/6 1349/2/6
f 1346/2/6 1347/2/6 1350/2/6
f 1350/2/6 1347/2/6 1351/2/6
f 1342/2/6 1343/2/6 1352/2/6
f 1352/2/6 1343/2/6 1353/2/6
f 1353/2/6 1343/2/6 1354/2/6
f 1354/2/6 1343/2/6 1355/2/6
f 1353/2/6 1354/2/6 1356/2/6
f 1356/2/6 1354/2/6 1357/2/6
