# MagicaVoxel @ Ephtracy

# group
o 

# material
mtllib Twilght.vox.mtl
usemtl palette

# normals
vn -1 0 0
vn 1 0 0
vn 0 0 1
vn 0 0 -1
vn 0 -1 0
vn 0 1 0

# texcoords
vt 0.658203 0.5
vt 0.720703 0.5
vt 0.724609 0.5
vt 0.751953 0.5
vt 0.814453 0.5
vt 0.845703 0.5
vt 0.908203 0.5
vt 0.912109 0.5
vt 0.916016 0.5
vt 0.970703 0.5
vt 0.978516 0.5
vt 0.986328 0.5

# verts
v 0 1.3 1.7
v 0 1.3 1.5
v 0 1.6 1.7
v 0 1.6 1.5
v 0.1 1.2 1.7
v 0.1 1.2 1.5
v 0.1 1.3 1.7
v 0.1 1.3 1.5
v 0.1 1.3 1.3
v 0.1 1.5 1.4
v 0.1 1.5 1.3
v 0.1 1.6 1.7
v 0.1 1.6 1.5
v 0.1 1.6 1.4
v 0.1 1.7 1.7
v 0.1 1.7 1.5
v 0.2 1.1 1.7
v 0.2 1.1 1.5
v 0.2 1.2 1.7
v 0.2 1.2 1.5
v 0.2 1.2 1.3
v 0.2 1.3 1.5
v 0.2 1.3 1.3
v 0.2 1.5 1.7
v 0.2 1.5 1.6
v 0.2 1.6 1.7
v 0.2 1.6 1.6
v 0.3 1.4 1.7
v 0.3 1.4 1.6
v 0.3 1.5 1.7
v 0.3 1.5 1.6
v 0.4 0.8 1.6
v 0.4 0.8 1.4
v 0.4 0.9 1.7
v 0.4 0.9 1.6
v 0.4 0.9 1.4
v 0.4 0.9 1.3
v 0.4 1 1.8
v 0.4 1 1.7
v 0.4 1 1.6
v 0.4 1 1.4
v 0.4 1 1.3
v 0.4 1 1.2
v 0.4 1.1 1.9
v 0.4 1.1 1.8
v 0.4 1.1 1.7
v 0.4 1.1 1.5
v 0.4 1.1 1.3
v 0.4 1.1 1.2
v 0.4 1.1 1.1
v 0.4 1.2 1.7
v 0.4 1.2 1.6
v 0.4 1.2 1.5
v 0.4 1.2 1.3
v 0.4 1.3 1.4
v 0.4 1.3 1.3
v 0.4 1.4 1.9
v 0.4 1.4 1.8
v 0.4 1.4 1.7
v 0.4 1.4 1.6
v 0.4 1.4 1.5
v 0.4 1.4 1.4
v 0.4 1.4 1.2
v 0.4 1.4 1.1
v 0.4 1.5 1.8
v 0.4 1.5 1.7
v 0.4 1.5 1.5
v 0.4 1.5 1.2
v 0.5 0.7 1.8
v 0.5 0.7 1.7
v 0.5 0.7 1.3
v 0.5 0.7 1.2
v 0.5 0.8 1.9
v 0.5 0.8 1.8
v 0.5 0.8 1.7
v 0.5 0.8 1.6
v 0.5 0.8 1.4
v 0.5 0.8 1.3
v 0.5 0.8 1.2
v 0.5 0.8 1.1
v 0.5 0.9 1.9
v 0.5 0.9 1.8
v 0.5 0.9 1.7
v 0.5 0.9 1.6
v 0.5 0.9 1.4
v 0.5 0.9 1.3
v 0.5 0.9 1.2
v 0.5 0.9 1.1
v 0.5 1 2
v 0.5 1 1.9
v 0.5 1 1.8
v 0.5 1 1.7
v 0.5 1 1.3
v 0.5 1 1.2
v 0.5 1 1.1
v 0.5 1 1
v 0.5 1.1 1.9
v 0.5 1.1 1.8
v 0.5 1.1 1.2
v 0.5 1.1 1.1
v 0.5 1.2 2
v 0.5 1.2 1.9
v 0.5 1.3 2
v 0.5 1.3 1.9
v 0.5 1.3 1.1
v 0.5 1.3 1
v 0.5 1.4 1.9
v 0.5 1.4 1.8
v 0.5 1.4 1.2
v 0.5 1.4 1.1
v 0.5 1.5 1.9
v 0.5 1.5 1.8
v 0.5 1.5 1.3
v 0.5 1.5 1.2
v 0.5 1.5 1.1
v 0.5 1.6 1.8
v 0.5 1.6 1.3
v 0.6 0.4 1.6
v 0.6 0.4 1.4
v 0.6 0.5 1.6
v 0.6 0.5 1.4
v 0.6 0.7 1.9
v 0.6 0.7 1.8
v 0.6 0.7 1.6
v 0.6 0.7 1.4
v 0.6 0.7 1.2
v 0.6 0.7 1.1
v 0.6 0.8 1.9
v 0.6 0.8 1.8
v 0.6 0.8 1.2
v 0.6 0.8 1.1
v 0.6 1.3 2
v 0.6 1.3 1.9
v 0.6 1.3 1.1
v 0.6 1.3 1
v 0.6 1.4 1.1
v 0.6 1.5 2
v 0.6 1.5 1.9
v 0.6 1.5 1.8
v 0.6 1.5 1.3
v 0.6 1.5 1.2
v 0.6 1.5 1.1
v 0.6 1.5 1
v 0.6 1.6 1.9
v 0.6 1.6 1.8
v 0.6 1.6 1.4
v 0.6 1.6 1.3
v 0.6 1.6 1.2
v 0.6 1.7 1.8
v 0.6 1.7 1.4
v 0.7 0.1 1.7
v 0.7 0.1 1.4
v 0.7 0.2 1.7
v 0.7 0.2 1.6
v 0.7 0.3 1.6
v 0.7 0.3 1.4
v 0.7 0.4 1.6
v 0.7 0.4 1.4
v 0.7 0.5 1.7
v 0.7 0.5 1.6
v 0.7 0.5 1.4
v 0.7 0.5 1.3
v 0.7 0.6 1.7
v 0.7 0.6 1.6
v 0.7 0.7 1.7
v 0.7 0.7 1.6
v 0.7 0.7 1.4
v 0.7 0.7 1.3
v 0.7 0.9 1.1
v 0.7 0.9 1
v 0.7 1 1.1
v 0.7 1 1
v 0.7 1.6 1.4
v 0.7 1.6 1.3
v 0.7 1.7 1.4
v 0.7 1.7 1.3
v 0.8 1.2 2
v 0.8 1.2 1.9
v 0.8 1.3 2
v 0.8 1.3 1.9
v 0.9 1.1 2
v 0.9 1.1 1.9
v 0.9 1.2 2
v 0.9 1.2 1.9
v 1 1 2
v 1 1 1.9
v 1 1.1 2
v 1 1.1 1.9
v 1.1 0.1 1.7
v 1.1 0.1 1.6
v 1.1 0.1 1.5
v 1.1 0.1 1.4
v 1.1 0.2 1.7
v 1.1 0.2 1.6
v 1.1 0.2 1.5
v 1.1 0.3 1.6
v 1.1 0.3 1.4
v 1.1 0.4 1.6
v 1.1 0.4 1.4
v 1.3 1.2 2
v 1.3 1.2 1.9
v 1.3 1.3 2
v 1.3 1.3 1.9
v 1.4 1 2
v 1.4 1 1.9
v 1.4 1.2 2
v 1.4 1.2 1.9
v 1.7 1.3 1.4
v 1.7 1.3 1.3
v 1.7 1.4 1.5
v 1.7 1.4 1.4
v 1.7 1.4 1.3
v 1.7 1.5 1.7
v 1.7 1.5 1.5
v 1.7 1.5 1.4
v 1.7 1.6 1.7
v 1.7 1.6 1.5
v 1.8 1.2 1.7
v 1.8 1.2 1.6
v 1.8 1.3 1.7
v 1.8 1.3 1.6
v 1.8 1.4 1.4
v 1.8 1.4 1.3
v 1.8 1.5 1.5
v 1.8 1.5 1.4
v 1.8 1.5 1.3
v 1.8 1.6 1.7
v 1.8 1.6 1.5
v 1.8 1.6 1.4
v 1.8 1.7 1.7
v 1.8 1.7 1.5
v 1.9 1.3 1.7
v 1.9 1.3 1.6
v 1.9 1.6 1.7
v 1.9 1.6 1.6
v 0.1 1.3 1.7
v 0.1 1.3 1.6
v 0.1 1.6 1.7
v 0.1 1.6 1.6
v 0.2 1.2 1.7
v 0.2 1.2 1.6
v 0.2 1.3 1.7
v 0.2 1.3 1.6
v 0.2 1.4 1.4
v 0.2 1.4 1.3
v 0.2 1.5 1.5
v 0.2 1.5 1.4
v 0.2 1.5 1.3
v 0.2 1.6 1.7
v 0.2 1.6 1.5
v 0.2 1.6 1.4
v 0.2 1.7 1.7
v 0.2 1.7 1.5
v 0.3 1.3 1.4
v 0.3 1.3 1.3
v 0.3 1.4 1.5
v 0.3 1.4 1.4
v 0.3 1.4 1.3
v 0.3 1.5 1.7
v 0.3 1.5 1.5
v 0.3 1.5 1.4
v 0.3 1.6 1.7
v 0.3 1.6 1.5
v 0.6 1 2
v 0.6 1 1.9
v 0.6 1.2 2
v 0.6 1.2 1.9
v 0.7 1.2 2
v 0.7 1.2 1.9
v 0.7 1.3 2
v 0.7 1.3 1.9
v 0.9 0.1 1.7
v 0.9 0.1 1.4
v 0.9 0.2 1.7
v 0.9 0.2 1.6
v 0.9 0.3 1.6
v 0.9 0.3 1.4
v 0.9 0.4 1.6
v 0.9 0.4 1.4
v 1.1 1 2
v 1.1 1 1.9
v 1.1 1.2 2
v 1.1 1.2 1.9
v 1.2 1.2 2
v 1.2 1.2 1.9
v 1.2 1.3 2
v 1.2 1.3 1.9
v 1.3 0.1 1.7
v 1.3 0.1 1.4
v 1.3 0.2 1.7
v 1.3 0.2 1.6
v 1.3 0.3 1.6
v 1.3 0.3 1.4
v 1.3 0.4 1.6
v 1.3 0.4 1.4
v 1.3 0.5 1.7
v 1.3 0.5 1.6
v 1.3 0.5 1.4
v 1.3 0.5 1.3
v 1.3 0.6 1.7
v 1.3 0.6 1.6
v 1.3 0.7 1.7
v 1.3 0.7 1.6
v 1.3 0.7 1.4
v 1.3 0.7 1.3
v 1.3 0.9 1.1
v 1.3 0.9 1
v 1.3 1 1.1
v 1.3 1 1
v 1.3 1.6 1.4
v 1.3 1.6 1.3
v 1.3 1.7 1.4
v 1.3 1.7 1.3
v 1.4 0.4 1.6
v 1.4 0.4 1.4
v 1.4 0.5 1.6
v 1.4 0.5 1.4
v 1.4 0.7 1.9
v 1.4 0.7 1.8
v 1.4 0.7 1.6
v 1.4 0.7 1.4
v 1.4 0.7 1.2
v 1.4 0.7 1.1
v 1.4 0.8 1.9
v 1.4 0.8 1.8
v 1.4 0.8 1.2
v 1.4 0.8 1.1
v 1.4 1.3 2
v 1.4 1.3 1.9
v 1.4 1.3 1.1
v 1.4 1.3 1
v 1.4 1.4 1.1
v 1.4 1.5 2
v 1.4 1.5 1.9
v 1.4 1.5 1.8
v 1.4 1.5 1.3
v 1.4 1.5 1.2
v 1.4 1.5 1.1
v 1.4 1.5 1
v 1.4 1.6 1.9
v 1.4 1.6 1.8
v 1.4 1.6 1.4
v 1.4 1.6 1.3
v 1.4 1.6 1.2
v 1.4 1.7 1.8
v 1.4 1.7 1.4
v 1.5 0.7 1.8
v 1.5 0.7 1.7
v 1.5 0.7 1.3
v 1.5 0.7 1.2
v 1.5 0.8 1.9
v 1.5 0.8 1.8
v 1.5 0.8 1.7
v 1.5 0.8 1.6
v 1.5 0.8 1.4
v 1.5 0.8 1.3
v 1.5 0.8 1.2
v 1.5 0.8 1.1
v 1.5 0.9 1.9
v 1.5 0.9 1.8
v 1.5 0.9 1.7
v 1.5 0.9 1.6
v 1.5 0.9 1.4
v 1.5 0.9 1.3
v 1.5 0.9 1.2
v 1.5 0.9 1.1
v 1.5 1 2
v 1.5 1 1.9
v 1.5 1 1.8
v 1.5 1 1.7
v 1.5 1 1.3
v 1.5 1 1.2
v 1.5 1 1.1
v 1.5 1 1
v 1.5 1.1 1.9
v 1.5 1.1 1.8
v 1.5 1.1 1.2
v 1.5 1.1 1.1
v 1.5 1.2 2
v 1.5 1.2 1.9
v 1.5 1.3 2
v 1.5 1.3 1.9
v 1.5 1.3 1.1
v 1.5 1.3 1
v 1.5 1.4 1.9
v 1.5 1.4 1.8
v 1.5 1.4 1.2
v 1.5 1.4 1.1
v 1.5 1.5 1.9
v 1.5 1.5 1.8
v 1.5 1.5 1.3
v 1.5 1.5 1.2
v 1.5 1.5 1.1
v 1.5 1.6 1.8
v 1.5 1.6 1.3
v 1.6 0.8 1.6
v 1.6 0.8 1.4
v 1.6 0.9 1.7
v 1.6 0.9 1.6
v 1.6 0.9 1.4
v 1.6 0.9 1.3
v 1.6 1 1.8
v 1.6 1 1.7
v 1.6 1 1.6
v 1.6 1 1.4
v 1.6 1 1.3
v 1.6 1 1.2
v 1.6 1.1 1.9
v 1.6 1.1 1.8
v 1.6 1.1 1.7
v 1.6 1.1 1.5
v 1.6 1.1 1.3
v 1.6 1.1 1.2
v 1.6 1.1 1.1
v 1.6 1.2 1.7
v 1.6 1.2 1.6
v 1.6 1.2 1.5
v 1.6 1.2 1.3
v 1.6 1.3 1.4
v 1.6 1.3 1.3
v 1.6 1.4 1.9
v 1.6 1.4 1.8
v 1.6 1.4 1.7
v 1.6 1.4 1.6
v 1.6 1.4 1.5
v 1.6 1.4 1.4
v 1.6 1.4 1.2
v 1.6 1.4 1.1
v 1.6 1.5 1.8
v 1.6 1.5 1.7
v 1.6 1.5 1.5
v 1.6 1.5 1.2
v 1.7 1.4 1.7
v 1.7 1.4 1.6
v 1.7 1.5 1.7
v 1.7 1.5 1.6
v 1.8 1.1 1.7
v 1.8 1.1 1.5
v 1.8 1.2 1.7
v 1.8 1.2 1.5
v 1.8 1.2 1.3
v 1.8 1.3 1.5
v 1.8 1.3 1.3
v 1.8 1.5 1.7
v 1.8 1.5 1.6
v 1.8 1.6 1.7
v 1.8 1.6 1.6
v 1.9 1.2 1.7
v 1.9 1.2 1.5
v 1.9 1.3 1.7
v 1.9 1.3 1.5
v 1.9 1.3 1.3
v 1.9 1.5 1.4
v 1.9 1.5 1.3
v 1.9 1.6 1.7
v 1.9 1.6 1.5
v 1.9 1.6 1.4
v 1.9 1.7 1.7
v 1.9 1.7 1.5
v 2 1.3 1.7
v 2 1.3 1.5
v 2 1.6 1.7
v 2 1.6 1.5
v 0.5 1 2
v 0.5 1.2 2
v 0.5 1.3 2
v 0.6 1 2
v 0.6 1.2 2
v 0.6 1.3 2
v 0.6 1.5 2
v 0.7 1.2 2
v 0.7 1.3 2
v 0.7 1.4 2
v 0.8 1.2 2
v 0.8 1.3 2
v 0.8 1.4 2
v 0.9 1.1 2
v 0.9 1.2 2
v 0.9 1.3 2
v 1 1 2
v 1 1.1 2
v 1.1 1 2
v 1.1 1.2 2
v 1.1 1.3 2
v 1.2 1.2 2
v 1.2 1.3 2
v 1.2 1.4 2
v 1.3 1.2 2
v 1.3 1.3 2
v 1.3 1.4 2
v 1.4 1 2
v 1.4 1.2 2
v 1.4 1.3 2
v 1.4 1.5 2
v 1.5 1 2
v 1.5 1.2 2
v 1.5 1.3 2
v 0.4 1.1 1.9
v 0.4 1.4 1.9
v 0.5 0.8 1.9
v 0.5 0.9 1.9
v 0.5 1 1.9
v 0.5 1.1 1.9
v 0.5 1.2 1.9
v 0.5 1.3 1.9
v 0.5 1.4 1.9
v 0.5 1.5 1.9
v 0.6 0.7 1.9
v 0.6 0.8 1.9
v 0.6 1 1.9
v 0.6 1.2 1.9
v 0.6 1.3 1.9
v 0.6 1.5 1.9
v 0.6 1.6 1.9
v 0.7 0.8 1.9
v 0.7 0.9 1.9
v 0.7 1 1.9
v 0.7 1.2 1.9
v 0.7 1.3 1.9
v 0.8 0.8 1.9
v 0.8 1 1.9
v 0.8 1.2 1.9
v 0.8 1.3 1.9
v 0.9 1.1 1.9
v 0.9 1.2 1.9
v 1 1 1.9
v 1 1.1 1.9
v 1.1 1 1.9
v 1.1 1.2 1.9
v 1.2 0.8 1.9
v 1.2 1 1.9
v 1.2 1.2 1.9
v 1.2 1.3 1.9
v 1.3 0.8 1.9
v 1.3 0.9 1.9
v 1.3 1 1.9
v 1.3 1.2 1.9
v 1.3 1.3 1.9
v 1.4 0.7 1.9
v 1.4 0.8 1.9
v 1.4 1 1.9
v 1.4 1.2 1.9
v 1.4 1.3 1.9
v 1.4 1.5 1.9
v 1.4 1.6 1.9
v 1.5 0.8 1.9
v 1.5 0.9 1.9
v 1.5 1 1.9
v 1.5 1.1 1.9
v 1.5 1.2 1.9
v 1.5 1.3 1.9
v 1.5 1.4 1.9
v 1.5 1.5 1.9
v 1.6 1.1 1.9
v 1.6 1.4 1.9
v 0.4 1 1.8
v 0.4 1.1 1.8
v 0.4 1.4 1.8
v 0.4 1.5 1.8
v 0.5 0.7 1.8
v 0.5 0.8 1.8
v 0.5 1 1.8
v 0.5 1.1 1.8
v 0.5 1.4 1.8
v 0.5 1.5 1.8
v 0.5 1.6 1.8
v 0.6 0.7 1.8
v 0.6 0.8 1.8
v 0.6 1.5 1.8
v 0.6 1.6 1.8
v 0.6 1.7 1.8
v 1.4 0.7 1.8
v 1.4 0.8 1.8
v 1.4 1.5 1.8
v 1.4 1.6 1.8
v 1.4 1.7 1.8
v 1.5 0.7 1.8
v 1.5 0.8 1.8
v 1.5 1 1.8
v 1.5 1.1 1.8
v 1.5 1.4 1.8
v 1.5 1.5 1.8
v 1.5 1.6 1.8
v 1.6 1 1.8
v 1.6 1.1 1.8
v 1.6 1.4 1.8
v 1.6 1.5 1.8
v 0 1.3 1.7
v 0 1.6 1.7
v 0.1 1.2 1.7
v 0.1 1.3 1.7
v 0.1 1.6 1.7
v 0.1 1.7 1.7
v 0.2 1.1 1.7
v 0.2 1.2 1.7
v 0.2 1.3 1.7
v 0.2 1.5 1.7
v 0.2 1.6 1.7
v 0.2 1.7 1.7
v 0.3 1.4 1.7
v 0.3 1.5 1.7
v 0.3 1.6 1.7
v 0.4 0.9 1.7
v 0.4 1 1.7
v 0.4 1.1 1.7
v 0.4 1.2 1.7
v 0.4 1.4 1.7
v 0.4 1.5 1.7
v 0.5 0.9 1.7
v 0.5 1 1.7
v 0.7 0.1 1.7
v 0.7 0.2 1.7
v 0.7 0.5 1.7
v 0.7 0.6 1.7
v 0.7 0.7 1.7
v 0.9 0.1 1.7
v 0.9 0.2 1.7
v 1.1 0.1 1.7
v 1.1 0.2 1.7
v 1.3 0.1 1.7
v 1.3 0.2 1.7
v 1.3 0.5 1.7
v 1.3 0.6 1.7
v 1.3 0.7 1.7
v 1.5 0.9 1.7
v 1.5 1 1.7
v 1.6 0.9 1.7
v 1.6 1 1.7
v 1.6 1.1 1.7
v 1.6 1.2 1.7
v 1.6 1.4 1.7
v 1.6 1.5 1.7
v 1.7 1.4 1.7
v 1.7 1.5 1.7
v 1.7 1.6 1.7
v 1.8 1.1 1.7
v 1.8 1.2 1.7
v 1.8 1.3 1.7
v 1.8 1.5 1.7
v 1.8 1.6 1.7
v 1.8 1.7 1.7
v 1.9 1.2 1.7
v 1.9 1.3 1.7
v 1.9 1.6 1.7
v 1.9 1.7 1.7
v 2 1.3 1.7
v 2 1.6 1.7
v 0.1 1.3 1.6
v 0.1 1.6 1.6
v 0.2 1.2 1.6
v 0.2 1.3 1.6
v 0.2 1.5 1.6
v 0.2 1.6 1.6
v 0.3 1.4 1.6
v 0.3 1.5 1.6
v 0.4 0.8 1.6
v 0.4 0.9 1.6
v 0.4 1.2 1.6
v 0.4 1.4 1.6
v 0.5 0.8 1.6
v 0.5 0.9 1.6
v 0.6 0.4 1.6
v 0.6 0.5 1.6
v 0.6 0.7 1.6
v 0.7 0.2 1.6
v 0.7 0.3 1.6
v 0.7 0.4 1.6
v 0.7 0.5 1.6
v 0.7 0.6 1.6
v 0.7 0.7 1.6
v 0.9 0.2 1.6
v 0.9 0.3 1.6
v 0.9 0.4 1.6
v 1.1 0.2 1.6
v 1.1 0.3 1.6
v 1.1 0.4 1.6
v 1.3 0.2 1.6
v 1.3 0.3 1.6
v 1.3 0.4 1.6
v 1.3 0.5 1.6
v 1.3 0.6 1.6
v 1.3 0.7 1.6
v 1.4 0.4 1.6
v 1.4 0.5 1.6
v 1.4 0.7 1.6
v 1.5 0.8 1.6
v 1.5 0.9 1.6
v 1.6 0.8 1.6
v 1.6 0.9 1.6
v 1.6 1.2 1.6
v 1.6 1.4 1.6
v 1.7 1.4 1.6
v 1.7 1.5 1.6
v 1.8 1.2 1.6
v 1.8 1.3 1.6
v 1.8 1.5 1.6
v 1.8 1.6 1.6
v 1.9 1.3 1.6
v 1.9 1.6 1.6
v 0 1.3 1.5
v 0 1.6 1.5
v 0.1 1.2 1.5
v 0.1 1.3 1.5
v 0.1 1.6 1.5
v 0.1 1.7 1.5
v 0.2 1.1 1.5
v 0.2 1.2 1.5
v 0.2 1.3 1.5
v 0.2 1.5 1.5
v 0.2 1.6 1.5
v 0.2 1.7 1.5
v 0.3 1.4 1.5
v 0.3 1.5 1.5
v 0.3 1.6 1.5
v 0.4 1.1 1.5
v 0.4 1.2 1.5
v 0.4 1.4 1.5
v 0.4 1.5 1.5
v 1.6 1.1 1.5
v 1.6 1.2 1.5
v 1.6 1.4 1.5
v 1.6 1.5 1.5
v 1.7 1.4 1.5
v 1.7 1.5 1.5
v 1.7 1.6 1.5
v 1.8 1.1 1.5
v 1.8 1.2 1.5
v 1.8 1.3 1.5
v 1.8 1.5 1.5
v 1.8 1.6 1.5
v 1.8 1.7 1.5
v 1.9 1.2 1.5
v 1.9 1.3 1.5
v 1.9 1.6 1.5
v 1.9 1.7 1.5
v 2 1.3 1.5
v 2 1.6 1.5
v 0.1 1.5 1.4
v 0.1 1.6 1.4
v 0.2 1.4 1.4
v 0.2 1.5 1.4
v 0.2 1.6 1.4
v 0.3 1.3 1.4
v 0.3 1.4 1.4
v 0.3 1.5 1.4
v 0.4 0.8 1.4
v 0.4 0.9 1.4
v 0.4 1.3 1.4
v 0.4 1.4 1.4
v 0.5 0.8 1.4
v 0.5 0.9 1.4
v 0.6 0.4 1.4
v 0.6 0.5 1.4
v 0.6 0.7 1.4
v 0.6 1.6 1.4
v 0.6 1.7 1.4
v 0.7 0.1 1.4
v 0.7 0.3 1.4
v 0.7 0.4 1.4
v 0.7 0.5 1.4
v 0.7 0.7 1.4
v 0.7 1.6 1.4
v 0.7 1.7 1.4
v 0.9 0.1 1.4
v 0.9 0.3 1.4
v 0.9 0.4 1.4
v 1.1 0.1 1.4
v 1.1 0.3 1.4
v 1.1 0.4 1.4
v 1.3 0.1 1.4
v 1.3 0.3 1.4
v 1.3 0.4 1.4
v 1.3 0.5 1.4
v 1.3 0.7 1.4
v 1.3 1.6 1.4
v 1.3 1.7 1.4
v 1.4 0.4 1.4
v 1.4 0.5 1.4
v 1.4 0.7 1.4
v 1.4 1.6 1.4
v 1.4 1.7 1.4
v 1.5 0.8 1.4
v 1.5 0.9 1.4
v 1.6 0.8 1.4
v 1.6 0.9 1.4
v 1.6 1.3 1.4
v 1.6 1.4 1.4
v 1.7 1.3 1.4
v 1.7 1.4 1.4
v 1.7 1.5 1.4
v 1.8 1.4 1.4
v 1.8 1.5 1.4
v 1.8 1.6 1.4
v 1.9 1.5 1.4
v 1.9 1.6 1.4
v 0.1 1.3 1.3
v 0.1 1.5 1.3
v 0.2 1.2 1.3
v 0.2 1.3 1.3
v 0.2 1.4 1.3
v 0.2 1.5 1.3
v 0.3 1.3 1.3
v 0.3 1.4 1.3
v 0.4 0.9 1.3
v 0.4 1 1.3
v 0.4 1.2 1.3
v 0.4 1.3 1.3
v 0.5 0.9 1.3
v 0.5 1 1.3
v 0.5 1.5 1.3
v 0.5 1.6 1.3
v 0.6 1.5 1.3
v 0.6 1.6 1.3
v 0.7 0.5 1.3
v 0.7 0.7 1.3
v 0.7 1.6 1.3
v 0.7 1.7 1.3
v 1.3 0.5 1.3
v 1.3 0.7 1.3
v 1.3 1.6 1.3
v 1.3 1.7 1.3
v 1.4 1.5 1.3
v 1.4 1.6 1.3
v 1.5 0.9 1.3
v 1.5 1 1.3
v 1.5 1.5 1.3
v 1.5 1.6 1.3
v 1.6 0.9 1.3
v 1.6 1 1.3
v 1.6 1.2 1.3
v 1.6 1.3 1.3
v 1.7 1.3 1.3
v 1.7 1.4 1.3
v 1.8 1.2 1.3
v 1.8 1.3 1.3
v 1.8 1.4 1.3
v 1.8 1.5 1.3
v 1.9 1.3 1.3
v 1.9 1.5 1.3
v 0.4 1 1.2
v 0.4 1.1 1.2
v 0.4 1.4 1.2
v 0.4 1.5 1.2
v 0.5 0.7 1.2
v 0.5 0.8 1.2
v 0.5 1 1.2
v 0.5 1.1 1.2
v 0.5 1.4 1.2
v 0.5 1.5 1.2
v 0.6 0.7 1.2
v 0.6 0.8 1.2
v 0.6 1.5 1.2
v 0.6 1.6 1.2
v 1.4 0.7 1.2
v 1.4 0.8 1.2
v 1.4 1.5 1.2
v 1.4 1.6 1.2
v 1.5 0.7 1.2
v 1.5 0.8 1.2
v 1.5 1 1.2
v 1.5 1.1 1.2
v 1.5 1.4 1.2
v 1.5 1.5 1.2
v 1.6 1 1.2
v 1.6 1.1 1.2
v 1.6 1.4 1.2
v 1.6 1.5 1.2
v 0.4 1.1 1.1
v 0.4 1.4 1.1
v 0.5 0.8 1.1
v 0.5 0.9 1.1
v 0.5 1 1.1
v 0.5 1.1 1.1
v 0.5 1.3 1.1
v 0.5 1.4 1.1
v 0.5 1.5 1.1
v 0.6 0.7 1.1
v 0.6 0.8 1.1
v 0.6 1.3 1.1
v 0.6 1.4 1.1
v 0.6 1.5 1.1
v 0.7 0.8 1.1
v 0.7 0.9 1.1
v 0.7 1 1.1
v 1.3 0.8 1.1
v 1.3 0.9 1.1
v 1.3 1 1.1
v 1.4 0.7 1.1
v 1.4 0.8 1.1
v 1.4 1.3 1.1
v 1.4 1.4 1.1
v 1.4 1.5 1.1
v 1.5 0.8 1.1
v 1.5 0.9 1.1
v 1.5 1 1.1
v 1.5 1.1 1.1
v 1.5 1.3 1.1
v 1.5 1.4 1.1
v 1.5 1.5 1.1
v 1.6 1.1 1.1
v 1.6 1.4 1.1
v 0.5 1 1
v 0.5 1.3 1
v 0.6 1.1 1
v 0.6 1.3 1
v 0.6 1.5 1
v 0.7 0.9 1
v 0.7 1 1
v 0.7 1.1 1
v 0.7 1.3 1
v 0.7 1.4 1
v 1.3 0.9 1
v 1.3 1 1
v 1.3 1.1 1
v 1.3 1.3 1
v 1.3 1.4 1
v 1.4 1.1 1
v 1.4 1.3 1
v 1.4 1.5 1
v 1.5 1 1
v 1.5 1.3 1
v 0.7 0.1 1.7
v 0.9 0.1 1.7
v 1.1 0.1 1.7
v 1.3 0.1 1.7
v 1.1 0.1 1.6
v 1.2 0.1 1.6
v 1.1 0.1 1.5
v 1.2 0.1 1.5
v 0.7 0.1 1.4
v 0.9 0.1 1.4
v 1.1 0.1 1.4
v 1.3 0.1 1.4
v 0.6 0.4 1.6
v 0.7 0.4 1.6
v 0.9 0.4 1.6
v 1.1 0.4 1.6
v 1.3 0.4 1.6
v 1.4 0.4 1.6
v 0.6 0.4 1.4
v 0.7 0.4 1.4
v 0.9 0.4 1.4
v 1.1 0.4 1.4
v 1.3 0.4 1.4
v 1.4 0.4 1.4
v 0.7 0.5 1.7
v 1.3 0.5 1.7
v 0.7 0.5 1.6
v 1.3 0.5 1.6
v 0.7 0.5 1.4
v 1.3 0.5 1.4
v 0.7 0.5 1.3
v 1.3 0.5 1.3
v 0.6 0.7 1.9
v 1.4 0.7 1.9
v 0.5 0.7 1.8
v 0.6 0.7 1.8
v 1.4 0.7 1.8
v 1.5 0.7 1.8
v 0.5 0.7 1.7
v 0.6 0.7 1.7
v 0.7 0.7 1.7
v 1.3 0.7 1.7
v 1.4 0.7 1.7
v 1.5 0.7 1.7
v 0.6 0.7 1.6
v 0.7 0.7 1.6
v 1.3 0.7 1.6
v 1.4 0.7 1.6
v 0.6 0.7 1.4
v 0.7 0.7 1.4
v 1.3 0.7 1.4
v 1.4 0.7 1.4
v 0.5 0.7 1.3
v 0.6 0.7 1.3
v 0.7 0.7 1.3
v 1.3 0.7 1.3
v 1.4 0.7 1.3
v 1.5 0.7 1.3
v 0.5 0.7 1.2
v 0.6 0.7 1.2
v 1.4 0.7 1.2
v 1.5 0.7 1.2
v 0.6 0.7 1.1
v 1.4 0.7 1.1
v 0.5 0.8 1.9
v 0.6 0.8 1.9
v 1.4 0.8 1.9
v 1.5 0.8 1.9
v 0.5 0.8 1.8
v 0.6 0.8 1.8
v 1.4 0.8 1.8
v 1.5 0.8 1.8
v 0.4 0.8 1.6
v 0.5 0.8 1.6
v 1.5 0.8 1.6
v 1.6 0.8 1.6
v 0.4 0.8 1.4
v 0.5 0.8 1.4
v 1.5 0.8 1.4
v 1.6 0.8 1.4
v 0.5 0.8 1.2
v 0.6 0.8 1.2
v 1.4 0.8 1.2
v 1.5 0.8 1.2
v 0.5 0.8 1.1
v 0.6 0.8 1.1
v 1.4 0.8 1.1
v 1.5 0.8 1.1
v 0.4 0.9 1.7
v 0.5 0.9 1.7
v 1.5 0.9 1.7
v 1.6 0.9 1.7
v 0.4 0.9 1.6
v 0.5 0.9 1.6
v 1.5 0.9 1.6
v 1.6 0.9 1.6
v 0.4 0.9 1.4
v 0.5 0.9 1.4
v 1.5 0.9 1.4
v 1.6 0.9 1.4
v 0.4 0.9 1.3
v 0.5 0.9 1.3
v 1.5 0.9 1.3
v 1.6 0.9 1.3
v 0.7 0.9 1.1
v 1.3 0.9 1.1
v 0.7 0.9 1
v 1.3 0.9 1
v 0.5 1 2
v 0.6 1 2
v 1 1 2
v 1.1 1 2
v 1.4 1 2
v 1.5 1 2
v 0.5 1 1.9
v 0.6 1 1.9
v 1 1 1.9
v 1.1 1 1.9
v 1.4 1 1.9
v 1.5 1 1.9
v 0.4 1 1.8
v 0.5 1 1.8
v 1.5 1 1.8
v 1.6 1 1.8
v 0.4 1 1.7
v 0.5 1 1.7
v 1.5 1 1.7
v 1.6 1 1.7
v 0.4 1 1.3
v 0.5 1 1.3
v 1.5 1 1.3
v 1.6 1 1.3
v 0.4 1 1.2
v 0.5 1 1.2
v 1.5 1 1.2
v 1.6 1 1.2
v 0.5 1 1.1
v 0.7 1 1.1
v 1.3 1 1.1
v 1.5 1 1.1
v 0.5 1 1
v 0.7 1 1
v 1.3 1 1
v 1.5 1 1
v 0.9 1.1 2
v 1 1.1 2
v 0.4 1.1 1.9
v 0.5 1.1 1.9
v 0.9 1.1 1.9
v 1 1.1 1.9
v 1.5 1.1 1.9
v 1.6 1.1 1.9
v 0.4 1.1 1.8
v 0.5 1.1 1.8
v 1.5 1.1 1.8
v 1.6 1.1 1.8
v 0.2 1.1 1.7
v 0.4 1.1 1.7
v 1.6 1.1 1.7
v 1.8 1.1 1.7
v 0.2 1.1 1.5
v 0.4 1.1 1.5
v 1.6 1.1 1.5
v 1.8 1.1 1.5
v 0.4 1.1 1.2
v 0.5 1.1 1.2
v 1.5 1.1 1.2
v 1.6 1.1 1.2
v 0.4 1.1 1.1
v 0.5 1.1 1.1
v 1.5 1.1 1.1
v 1.6 1.1 1.1
v 0.6 1.2 2
v 0.7 1.2 2
v 0.8 1.2 2
v 0.9 1.2 2
v 1.1 1.2 2
v 1.2 1.2 2
v 1.3 1.2 2
v 1.4 1.2 2
v 0.6 1.2 1.9
v 0.7 1.2 1.9
v 0.8 1.2 1.9
v 0.9 1.2 1.9
v 1.1 1.2 1.9
v 1.2 1.2 1.9
v 1.3 1.2 1.9
v 1.4 1.2 1.9
v 0.1 1.2 1.7
v 0.2 1.2 1.7
v 1.8 1.2 1.7
v 1.9 1.2 1.7
v 0.1 1.2 1.5
v 0.2 1.2 1.5
v 0.4 1.2 1.5
v 1.6 1.2 1.5
v 1.8 1.2 1.5
v 1.9 1.2 1.5
v 0.2 1.2 1.3
v 0.4 1.2 1.3
v 1.6 1.2 1.3
v 1.8 1.2 1.3
v 0.7 1.3 2
v 0.8 1.3 2
v 1.2 1.3 2
v 1.3 1.3 2
v 0.7 1.3 1.9
v 0.8 1.3 1.9
v 1.2 1.3 1.9
v 1.3 1.3 1.9
v 0 1.3 1.7
v 0.1 1.3 1.7
v 1.9 1.3 1.7
v 2 1.3 1.7
v 0 1.3 1.5
v 0.1 1.3 1.5
v 0.2 1.3 1.5
v 1.8 1.3 1.5
v 1.9 1.3 1.5
v 2 1.3 1.5
v 0.1 1.3 1.3
v 0.2 1.3 1.3
v 1.8 1.3 1.3
v 1.9 1.3 1.3
v 0.3 1.4 1.7
v 0.4 1.4 1.7
v 1.6 1.4 1.7
v 1.7 1.4 1.7
v 0.3 1.4 1.6
v 0.4 1.4 1.6
v 1.6 1.4 1.6
v 1.7 1.4 1.6
v 0.2 1.5 1.7
v 0.3 1.5 1.7
v 1.7 1.5 1.7
v 1.8 1.5 1.7
v 0.2 1.5 1.6
v 0.3 1.5 1.6
v 1.7 1.5 1.6
v 1.8 1.5 1.6
v 0.1 1.6 1.7
v 0.2 1.6 1.7
v 1.8 1.6 1.7
v 1.9 1.6 1.7
v 0.1 1.6 1.6
v 0.2 1.6 1.6
v 1.8 1.6 1.6
v 1.9 1.6 1.6
v 0.7 0.2 1.7
v 0.9 0.2 1.7
v 1.1 0.2 1.7
v 1.3 0.2 1.7
v 0.7 0.2 1.6
v 0.9 0.2 1.6
v 1.1 0.2 1.6
v 1.3 0.2 1.6
v 0.2 1.2 1.7
v 0.4 1.2 1.7
v 1.6 1.2 1.7
v 1.8 1.2 1.7
v 0.2 1.2 1.6
v 0.4 1.2 1.6
v 1.6 1.2 1.6
v 1.8 1.2 1.6
v 0.5 1.3 2
v 0.6 1.3 2
v 1.4 1.3 2
v 1.5 1.3 2
v 0.5 1.3 1.9
v 0.6 1.3 1.9
v 1.4 1.3 1.9
v 1.5 1.3 1.9
v 0.1 1.3 1.7
v 0.2 1.3 1.7
v 1.8 1.3 1.7
v 1.9 1.3 1.7
v 0.1 1.3 1.6
v 0.2 1.3 1.6
v 1.8 1.3 1.6
v 1.9 1.3 1.6
v 0.3 1.3 1.4
v 0.4 1.3 1.4
v 1.6 1.3 1.4
v 1.7 1.3 1.4
v 0.3 1.3 1.3
v 0.4 1.3 1.3
v 1.6 1.3 1.3
v 1.7 1.3 1.3
v 0.5 1.3 1.1
v 0.6 1.3 1.1
v 1.4 1.3 1.1
v 1.5 1.3 1.1
v 0.5 1.3 1
v 0.6 1.3 1
v 1.4 1.3 1
v 1.5 1.3 1
v 0.4 1.4 1.9
v 0.5 1.4 1.9
v 1.5 1.4 1.9
v 1.6 1.4 1.9
v 0.4 1.4 1.8
v 0.5 1.4 1.8
v 1.5 1.4 1.8
v 1.6 1.4 1.8
v 0.3 1.4 1.5
v 0.4 1.4 1.5
v 1.6 1.4 1.5
v 1.7 1.4 1.5
v 0.2 1.4 1.4
v 0.3 1.4 1.4
v 0.4 1.4 1.4
v 1.6 1.4 1.4
v 1.7 1.4 1.4
v 1.8 1.4 1.4
v 0.2 1.4 1.3
v 0.3 1.4 1.3
v 1.7 1.4 1.3
v 1.8 1.4 1.3
v 0.4 1.4 1.2
v 0.5 1.4 1.2
v 1.5 1.4 1.2
v 1.6 1.4 1.2
v 0.4 1.4 1.1
v 0.5 1.4 1.1
v 1.5 1.4 1.1
v 1.6 1.4 1.1
v 0.6 1.5 2
v 1.4 1.5 2
v 0.5 1.5 1.9
v 0.6 1.5 1.9
v 1.4 1.5 1.9
v 1.5 1.5 1.9
v 0.4 1.5 1.8
v 0.5 1.5 1.8
v 0.6 1.5 1.8
v 1.4 1.5 1.8
v 1.5 1.5 1.8
v 1.6 1.5 1.8
v 0.3 1.5 1.7
v 0.4 1.5 1.7
v 1.6 1.5 1.7
v 1.7 1.5 1.7
v 0.2 1.5 1.5
v 0.3 1.5 1.5
v 0.4 1.5 1.5
v 1.6 1.5 1.5
v 1.7 1.5 1.5
v 1.8 1.5 1.5
v 0.1 1.5 1.4
v 0.2 1.5 1.4
v 0.3 1.5 1.4
v 1.7 1.5 1.4
v 1.8 1.5 1.4
v 1.9 1.5 1.4
v 0.1 1.5 1.3
v 0.2 1.5 1.3
v 0.5 1.5 1.3
v 0.6 1.5 1.3
v 1.4 1.5 1.3
v 1.5 1.5 1.3
v 1.8 1.5 1.3
v 1.9 1.5 1.3
v 0.4 1.5 1.2
v 0.5 1.5 1.2
v 0.6 1.5 1.2
v 1.4 1.5 1.2
v 1.5 1.5 1.2
v 1.6 1.5 1.2
v 0.5 1.5 1.1
v 0.6 1.5 1.1
v 1.4 1.5 1.1
v 1.5 1.5 1.1
v 0.6 1.5 1
v 1.4 1.5 1
v 0.6 1.6 1.9
v 1.4 1.6 1.9
v 0.5 1.6 1.8
v 0.6 1.6 1.8
v 1.4 1.6 1.8
v 1.5 1.6 1.8
v 0 1.6 1.7
v 0.1 1.6 1.7
v 0.2 1.6 1.7
v 0.3 1.6 1.7
v 1.7 1.6 1.7
v 1.8 1.6 1.7
v 1.9 1.6 1.7
v 2 1.6 1.7
v 0 1.6 1.5
v 0.1 1.6 1.5
v 0.2 1.6 1.5
v 0.3 1.6 1.5
v 1.7 1.6 1.5
v 1.8 1.6 1.5
v 1.9 1.6 1.5
v 2 1.6 1.5
v 0.1 1.6 1.4
v 0.2 1.6 1.4
v 0.6 1.6 1.4
v 0.7 1.6 1.4
v 1.3 1.6 1.4
v 1.4 1.6 1.4
v 1.8 1.6 1.4
v 1.9 1.6 1.4
v 0.5 1.6 1.3
v 0.6 1.6 1.3
v 0.7 1.6 1.3
v 1.3 1.6 1.3
v 1.4 1.6 1.3
v 1.5 1.6 1.3
v 0.6 1.6 1.2
v 1.4 1.6 1.2
v 0.6 1.7 1.8
v 1.4 1.7 1.8
v 0.1 1.7 1.7
v 0.2 1.7 1.7
v 1.8 1.7 1.7
v 1.9 1.7 1.7
v 0.1 1.7 1.5
v 0.2 1.7 1.5
v 1.8 1.7 1.5
v 1.9 1.7 1.5
v 0.6 1.7 1.4
v 0.7 1.7 1.4
v 1.3 1.7 1.4
v 1.4 1.7 1.4
v 0.7 1.7 1.3
v 1.3 1.7 1.3

# faces
f 3/2/1 2/2/1 1/2/1
f 4/2/1 2/2/1 3/2/1
f 7/2/1 6/2/1 5/2/1
f 8/2/1 6/2/1 7/2/1
f 10/2/1 9/2/1 8/2/1
f 11/2/1 9/2/1 10/2/1
f 13/2/1 10/2/1 8/2/1
f 14/2/1 10/2/1 13/2/1
f 15/2/1 13/2/1 12/2/1
f 16/2/1 13/2/1 15/2/1
f 19/2/1 18/2/1 17/2/1
f 20/2/1 18/2/1 19/2/1
f 22/2/1 21/2/1 20/2/1
f 23/2/1 21/2/1 22/2/1
f 26/2/1 25/2/1 24/2/1
f 27/2/1 25/2/1 26/2/1
f 30/2/1 29/2/1 28/2/1
f 31/2/1 29/2/1 30/2/1
f 35/2/1 33/2/1 32/2/1
f 36/2/1 33/2/1 35/2/1
f 39/2/1 35/2/1 34/2/1
f 40/3/1 36/3/1 35/3/1
f 40/2/1 35/2/1 39/2/1
f 41/2/1 37/2/1 36/2/1
f 41/3/1 36/3/1 40/3/1
f 42/2/1 37/2/1 41/2/1
f 45/2/1 39/2/1 38/2/1
f 46/3/1 40/3/1 39/3/1
f 46/3/1 41/3/1 40/3/1
f 46/2/1 39/2/1 45/2/1
f 46/3/1 42/3/1 41/3/1
f 47/3/1 42/3/1 46/3/1
f 48/2/1 43/2/1 42/2/1
f 48/3/1 42/3/1 47/3/1
f 49/2/1 43/2/1 48/2/1
f 51/3/1 46/3/1 45/3/1
f 53/3/1 49/3/1 48/3/1
f 53/3/1 48/3/1 47/3/1
f 54/3/1 49/3/1 53/3/1
f 56/3/1 49/3/1 54/3/1
f 57/2/1 45/2/1 44/2/1
f 58/3/1 52/3/1 51/3/1
f 58/2/1 45/2/1 57/2/1
f 58/3/1 51/3/1 45/3/1
f 59/3/1 52/3/1 58/3/1
f 60/3/1 52/3/1 59/3/1
f 62/3/1 56/3/1 55/3/1
f 63/2/1 50/2/1 49/2/1
f 63/3/1 49/3/1 56/3/1
f 63/3/1 56/3/1 62/3/1
f 64/2/1 50/2/1 63/2/1
f 65/2/1 59/2/1 58/2/1
f 66/2/1 59/2/1 65/2/1
f 67/2/1 62/2/1 61/2/1
f 67/2/1 63/2/1 62/2/1
f 68/2/1 63/2/1 67/2/1
f 74/4/1 70/4/1 69/4/1
f 75/2/1 71/2/1 70/2/1
f 75/4/1 70/4/1 74/4/1
f 76/2/1 71/2/1 75/2/1
f 77/2/1 71/2/1 76/2/1
f 78/4/1 72/4/1 71/4/1
f 78/2/1 71/2/1 77/2/1
f 79/4/1 72/4/1 78/4/1
f 81/9/1 74/9/1 73/9/1
f 82/2/1 75/2/1 74/2/1
f 82/9/1 74/9/1 81/9/1
f 82/2/1 76/2/1 75/2/1
f 83/2/1 76/2/1 82/2/1
f 84/2/1 76/2/1 83/2/1
f 85/2/1 79/2/1 78/2/1
f 85/2/1 78/2/1 77/2/1
f 86/2/1 79/2/1 85/2/1
f 87/4/1 80/4/1 79/4/1
f 87/2/1 79/2/1 86/2/1
f 88/4/1 80/4/1 87/4/1
f 90/4/1 82/4/1 81/4/1
f 91/2/1 83/2/1 82/2/1
f 91/4/1 82/4/1 90/4/1
f 92/2/1 83/2/1 91/2/1
f 93/2/1 88/2/1 87/2/1
f 93/2/1 87/2/1 86/2/1
f 94/2/1 88/2/1 93/2/1
f 95/2/1 88/2/1 94/2/1
f 97/2/1 90/2/1 89/2/1
f 97/2/1 91/2/1 90/2/1
f 98/2/1 91/2/1 97/2/1
f 99/2/1 95/2/1 94/2/1
f 99/2/1 96/2/1 95/2/1
f 100/2/1 96/2/1 99/2/1
f 101/2/1 97/2/1 89/2/1
f 102/2/1 97/2/1 101/2/1
f 103/3/1 102/3/1 101/3/1
f 104/3/1 102/3/1 103/3/1
f 105/2/1 96/2/1 100/2/1
f 106/2/1 96/2/1 105/2/1
f 111/3/1 108/3/1 107/3/1
f 112/3/1 108/3/1 111/3/1
f 114/3/1 110/3/1 109/3/1
f 115/3/1 110/3/1 114/3/1
f 116/2/1 113/2/1 112/2/1
f 117/2/1 113/2/1 116/2/1
f 120/4/1 119/4/1 118/4/1
f 121/4/1 119/4/1 120/4/1
f 124/5/1 121/5/1 120/5/1
f 125/5/1 121/5/1 124/5/1
f 128/4/1 123/4/1 122/4/1
f 129/4/1 123/4/1 128/4/1
f 130/4/1 127/4/1 126/4/1
f 131/4/1 127/4/1 130/4/1
f 136/2/1 135/2/1 134/2/1
f 137/3/1 133/3/1 132/3/1
f 138/3/1 133/3/1 137/3/1
f 142/2/1 135/2/1 136/2/1
f 143/2/1 135/2/1 142/2/1
f 144/2/1 139/2/1 138/2/1
f 145/2/1 139/2/1 144/2/1
f 147/2/1 141/2/1 140/2/1
f 148/2/1 141/2/1 147/2/1
f 149/2/1 146/2/1 145/2/1
f 150/2/1 146/2/1 149/2/1
f 153/5/1 152/5/1 151/5/1
f 154/5/1 152/5/1 153/5/1
f 155/5/1 152/5/1 154/5/1
f 156/5/1 152/5/1 155/5/1
f 157/4/1 156/4/1 155/4/1
f 158/4/1 156/4/1 157/4/1
f 163/8/1 160/8/1 159/8/1
f 164/8/1 160/8/1 163/8/1
f 165/5/1 164/5/1 163/5/1
f 166/5/1 164/5/1 165/5/1
f 167/5/1 162/5/1 161/5/1
f 168/5/1 162/5/1 167/5/1
f 171/2/1 170/2/1 169/2/1
f 172/2/1 170/2/1 171/2/1
f 175/2/1 174/2/1 173/2/1
f 176/2/1 174/2/1 175/2/1
f 179/2/1 178/2/1 177/2/1
f 180/2/1 178/2/1 179/2/1
f 183/2/1 182/2/1 181/2/1
f 184/2/1 182/2/1 183/2/1
f 187/2/1 186/2/1 185/2/1
f 188/2/1 186/2/1 187/2/1
f 193/5/1 190/5/1 189/5/1
f 194/1/1 191/1/1 190/1/1
f 194/5/1 190/5/1 193/5/1
f 195/5/1 192/5/1 191/5/1
f 195/1/1 191/1/1 194/1/1
f 196/5/1 195/5/1 194/5/1
f 197/5/1 192/5/1 195/5/1
f 197/5/1 195/5/1 196/5/1
f 198/4/1 197/4/1 196/4/1
f 199/4/1 197/4/1 198/4/1
f 202/2/1 201/2/1 200/2/1
f 203/2/1 201/2/1 202/2/1
f 206/2/1 205/2/1 204/2/1
f 207/2/1 205/2/1 206/2/1
f 211/2/1 209/2/1 208/2/1
f 212/2/1 209/2/1 211/2/1
f 214/2/1 211/2/1 210/2/1
f 215/2/1 211/2/1 214/2/1
f 216/2/1 214/2/1 213/2/1
f 217/2/1 214/2/1 216/2/1
f 220/2/1 219/2/1 218/2/1
f 221/2/1 219/2/1 220/2/1
f 225/2/1 223/2/1 222/2/1
f 226/2/1 223/2/1 225/2/1
f 228/2/1 225/2/1 224/2/1
f 229/2/1 225/2/1 228/2/1
f 230/2/1 228/2/1 227/2/1
f 231/2/1 228/2/1 230/2/1
f 234/2/1 233/2/1 232/2/1
f 235/2/1 233/2/1 234/2/1
f 236/2/2 237/2/2 238/2/2
f 238/2/2 237/2/2 239/2/2
f 240/2/2 241/2/2 242/2/2
f 242/2/2 241/2/2 243/2/2
f 244/2/2 245/2/2 247/2/2
f 247/2/2 245/2/2 248/2/2
f 246/2/2 247/2/2 250/2/2
f 250/2/2 247/2/2 251/2/2
f 249/2/2 250/2/2 252/2/2
f 252/2/2 250/2/2 253/2/2
f 254/2/2 255/2/2 257/2/2
f 257/2/2 255/2/2 258/2/2
f 256/2/2 257/2/2 260/2/2
f 260/2/2 257/2/2 261/2/2
f 259/2/2 260/2/2 262/2/2
f 262/2/2 260/2/2 263/2/2
f 264/2/2 265/2/2 266/2/2
f 266/2/2 265/2/2 267/2/2
f 268/2/2 269/2/2 270/2/2
f 270/2/2 269/2/2 271/2/2
f 272/5/2 273/5/2 274/5/2
f 274/5/2 273/5/2 275/5/2
f 275/5/2 273/5/2 276/5/2
f 276/5/2 273/5/2 277/5/2
f 276/4/2 277/4/2 278/4/2
f 278/4/2 277/4/2 279/4/2
f 280/2/2 281/2/2 282/2/2
f 282/2/2 281/2/2 283/2/2
f 284/2/2 285/2/2 286/2/2
f 286/2/2 285/2/2 287/2/2
f 288/5/2 289/5/2 290/5/2
f 290/5/2 289/5/2 291/5/2
f 291/5/2 289/5/2 292/5/2
f 292/5/2 289/5/2 293/5/2
f 292/4/2 293/4/2 294/4/2
f 294/4/2 293/4/2 295/4/2
f 296/8/2 297/8/2 300/8/2
f 300/8/2 297/8/2 301/8/2
f 300/5/2 301/5/2 302/5/2
f 302/5/2 301/5/2 303/5/2
f 298/5/2 299/5/2 304/5/2
f 304/5/2 299/5/2 305/5/2
f 306/2/2 307/2/2 308/2/2
f 308/2/2 307/2/2 309/2/2
f 310/2/2 311/2/2 312/2/2
f 312/2/2 311/2/2 313/2/2
f 314/4/2 315/4/2 316/4/2
f 316/4/2 315/4/2 317/4/2
f 316/5/2 317/5/2 320/5/2
f 320/5/2 317/5/2 321/5/2
f 318/4/2 319/4/2 324/4/2
f 324/4/2 319/4/2 325/4/2
f 322/4/2 323/4/2 326/4/2
f 326/4/2 323/4/2 327/4/2
f 330/2/2 331/2/2 332/2/2
f 328/3/2 329/3/2 333/3/2
f 333/3/2 329/3/2 334/3/2
f 332/2/2 331/2/2 338/2/2
f 338/2/2 331/2/2 339/2/2
f 334/2/2 335/2/2 340/2/2
f 340/2/2 335/2/2 341/2/2
f 336/2/2 337/2/2 343/2/2
f 343/2/2 337/2/2 344/2/2
f 341/2/2 342/2/2 345/2/2
f 345/2/2 342/2/2 346/2/2
f 347/4/2 348/4/2 352/4/2
f 348/2/2 349/2/2 353/2/2
f 352/4/2 348/4/2 353/4/2
f 353/2/2 349/2/2 354/2/2
f 354/2/2 349/2/2 355/2/2
f 349/4/2 350/4/2 356/4/2
f 355/2/2 349/2/2 356/2/2
f 356/4/2 350/4/2 357/4/2
f 351/9/2 352/9/2 359/9/2
f 352/2/2 353/2/2 360/2/2
f 359/9/2 352/9/2 360/9/2
f 353/2/2 354/2/2 360/2/2
f 360/2/2 354/2/2 361/2/2
f 361/2/2 354/2/2 362/2/2
f 356/2/2 357/2/2 363/2/2
f 355/2/2 356/2/2 363/2/2
f 363/2/2 357/2/2 364/2/2
f 357/4/2 358/4/2 365/4/2
f 364/2/2 357/2/2 365/2/2
f 365/4/2 358/4/2 366/4/2
f 359/4/2 360/4/2 368/4/2
f 360/2/2 361/2/2 369/2/2
f 368/4/2 360/4/2 369/4/2
f 369/2/2 361/2/2 370/2/2
f 365/2/2 366/2/2 371/2/2
f 364/2/2 365/2/2 371/2/2
f 371/2/2 366/2/2 372/2/2
f 372/2/2 366/2/2 373/2/2
f 367/2/2 368/2/2 375/2/2
f 368/2/2 369/2/2 375/2/2
f 375/2/2 369/2/2 376/2/2
f 372/2/2 373/2/2 377/2/2
f 373/2/2 374/2/2 377/2/2
f 377/2/2 374/2/2 378/2/2
f 367/2/2 375/2/2 379/2/2
f 379/2/2 375/2/2 380/2/2
f 379/3/2 380/3/2 381/3/2
f 381/3/2 380/3/2 382/3/2
f 378/2/2 374/2/2 383/2/2
f 383/2/2 374/2/2 384/2/2
f 385/3/2 386/3/2 389/3/2
f 389/3/2 386/3/2 390/3/2
f 387/3/2 388/3/2 392/3/2
f 392/3/2 388/3/2 393/3/2
f 390/2/2 391/2/2 394/2/2
f 394/2/2 391/2/2 395/2/2
f 396/2/2 397/2/2 399/2/2
f 399/2/2 397/2/2 400/2/2
f 398/2/2 399/2/2 403/2/2
f 399/3/2 400/3/2 404/3/2
f 403/2/2 399/2/2 404/2/2
f 400/2/2 401/2/2 405/2/2
f 404/3/2 400/3/2 405/3/2
f 405/2/2 401/2/2 406/2/2
f 402/2/2 403/2/2 409/2/2
f 403/3/2 404/3/2 410/3/2
f 404/3/2 405/3/2 410/3/2
f 409/2/2 403/2/2 410/2/2
f 405/3/2 406/3/2 410/3/2
f 410/3/2 406/3/2 411/3/2
f 406/2/2 407/2/2 412/2/2
f 411/3/2 406/3/2 412/3/2
f 412/2/2 407/2/2 413/2/2
f 409/3/2 410/3/2 415/3/2
f 412/3/2 413/3/2 417/3/2
f 411/3/2 412/3/2 417/3/2
f 417/3/2 413/3/2 418/3/2
f 418/3/2 413/3/2 420/3/2
f 408/2/2 409/2/2 421/2/2
f 415/3/2 416/3/2 422/3/2
f 421/2/2 409/2/2 422/2/2
f 409/3/2 415/3/2 422/3/2
f 422/3/2 416/3/2 423/3/2
f 423/3/2 416/3/2 424/3/2
f 419/3/2 420/3/2 426/3/2
f 413/2/2 414/2/2 427/2/2
f 420/3/2 413/3/2 427/3/2
f 426/3/2 420/3/2 427/3/2
f 427/2/2 414/2/2 428/2/2
f 422/2/2 423/2/2 429/2/2
f 429/2/2 423/2/2 430/2/2
f 425/2/2 426/2/2 431/2/2
f 426/2/2 427/2/2 431/2/2
f 431/2/2 427/2/2 432/2/2
f 433/2/2 434/2/2 435/2/2
f 435/2/2 434/2/2 436/2/2
f 437/2/2 438/2/2 439/2/2
f 439/2/2 438/2/2 440/2/2
f 440/2/2 441/2/2 442/2/2
f 442/2/2 441/2/2 443/2/2
f 444/2/2 445/2/2 446/2/2
f 446/2/2 445/2/2 447/2/2
f 448/2/2 449/2/2 450/2/2
f 450/2/2 449/2/2 451/2/2
f 451/2/2 452/2/2 453/2/2
f 453/2/2 452/2/2 454/2/2
f 451/2/2 453/2/2 456/2/2
f 456/2/2 453/2/2 457/2/2
f 455/2/2 456/2/2 458/2/2
f 458/2/2 456/2/2 459/2/2
f 460/2/2 461/2/2 462/2/2
f 462/2/2 461/2/2 463/2/2
f 467/2/3 465/2/3 464/2/3
f 468/3/3 466/3/3 465/3/3
f 468/2/3 465/2/3 467/2/3
f 469/3/3 466/3/3 468/3/3
f 471/2/3 469/2/3 468/2/3
f 472/3/3 470/3/3 469/3/3
f 472/2/3 469/2/3 471/2/3
f 473/3/3 470/3/3 472/3/3
f 475/2/3 473/2/3 472/2/3
f 476/3/3 470/3/3 473/3/3
f 476/2/3 473/2/3 475/2/3
f 478/2/3 475/2/3 474/2/3
f 479/3/3 476/3/3 475/3/3
f 479/2/3 475/2/3 478/2/3
f 481/2/3 478/2/3 477/2/3
f 482/2/3 481/2/3 480/2/3
f 483/3/3 479/3/3 478/3/3
f 483/2/3 481/2/3 482/2/3
f 483/2/3 478/2/3 481/2/3
f 484/3/3 476/3/3 479/3/3
f 484/3/3 479/3/3 483/3/3
f 485/2/3 484/2/3 483/2/3
f 486/3/3 476/3/3 484/3/3
f 486/2/3 484/2/3 485/2/3
f 487/3/3 470/3/3 476/3/3
f 487/3/3 476/3/3 486/3/3
f 489/2/3 487/2/3 486/2/3
f 490/3/3 470/3/3 487/3/3
f 490/2/3 487/2/3 489/2/3
f 492/2/3 489/2/3 488/2/3
f 493/3/3 490/3/3 489/3/3
f 493/2/3 489/2/3 492/2/3
f 494/3/3 470/3/3 490/3/3
f 494/3/3 490/3/3 493/3/3
f 495/2/3 492/2/3 491/2/3
f 496/3/3 493/3/3 492/3/3
f 496/2/3 492/2/3 495/2/3
f 497/3/3 493/3/3 496/3/3
f 503/2/3 499/2/3 498/2/3
f 504/2/3 499/2/3 503/2/3
f 505/2/3 499/2/3 504/2/3
f 506/2/3 499/2/3 505/2/3
f 509/9/3 501/9/3 500/9/3
f 510/4/3 502/4/3 501/4/3
f 512/3/3 506/3/3 505/3/3
f 512/3/3 507/3/3 506/3/3
f 513/3/3 507/3/3 512/3/3
f 515/4/3 509/4/3 508/4/3
f 515/9/3 501/9/3 509/9/3
f 516/4/3 511/4/3 510/4/3
f 516/9/3 501/9/3 515/9/3
f 516/4/3 510/4/3 501/4/3
f 517/4/3 511/4/3 516/4/3
f 518/4/3 511/4/3 517/4/3
f 520/4/3 515/4/3 508/4/3
f 520/6/3 516/6/3 515/6/3
f 520/6/3 517/6/3 516/6/3
f 521/4/3 519/4/3 518/4/3
f 521/6/3 517/6/3 520/6/3
f 521/4/3 518/4/3 517/4/3
f 522/4/3 519/4/3 521/4/3
f 523/4/3 519/4/3 522/4/3
f 524/4/3 521/4/3 520/4/3
f 524/4/3 522/4/3 521/4/3
f 525/4/3 522/4/3 524/4/3
f 526/4/3 524/4/3 520/4/3
f 527/4/3 524/4/3 526/4/3
f 528/4/3 526/4/3 520/4/3
f 530/4/3 520/4/3 508/4/3
f 530/4/3 529/4/3 528/4/3
f 530/4/3 528/4/3 520/4/3
f 531/4/3 529/4/3 530/4/3
f 532/4/3 529/4/3 531/4/3
f 534/4/3 530/4/3 508/4/3
f 534/6/3 531/6/3 530/6/3
f 535/6/3 531/6/3 534/6/3
f 536/4/3 532/4/3 531/4/3
f 536/6/3 531/6/3 535/6/3
f 536/4/3 533/4/3 532/4/3
f 537/4/3 533/4/3 536/4/3
f 538/4/3 533/4/3 537/4/3
f 539/4/3 534/4/3 508/4/3
f 540/9/3 535/9/3 534/9/3
f 540/4/3 534/4/3 539/4/3
f 541/4/3 536/4/3 535/4/3
f 541/4/3 537/4/3 536/4/3
f 542/4/3 537/4/3 541/4/3
f 544/2/3 514/2/3 513/2/3
f 545/2/3 514/2/3 544/2/3
f 546/9/3 535/9/3 540/9/3
f 547/4/3 541/4/3 535/4/3
f 547/9/3 535/9/3 546/9/3
f 548/4/3 541/4/3 547/4/3
f 551/3/3 544/3/3 543/3/3
f 552/3/3 544/3/3 551/3/3
f 553/3/3 544/3/3 552/3/3
f 554/2/3 550/2/3 549/2/3
f 554/2/3 552/2/3 551/2/3
f 554/2/3 551/2/3 550/2/3
f 555/2/3 552/2/3 554/2/3
f 562/2/3 557/2/3 556/2/3
f 563/2/3 557/2/3 562/2/3
f 564/2/3 559/2/3 558/2/3
f 565/2/3 559/2/3 564/2/3
f 567/4/3 561/4/3 560/4/3
f 568/4/3 561/4/3 567/4/3
f 569/2/3 566/2/3 565/2/3
f 570/2/3 566/2/3 569/2/3
f 575/2/3 571/2/3 570/2/3
f 576/2/3 571/2/3 575/2/3
f 577/4/3 573/4/3 572/4/3
f 578/4/3 573/4/3 577/4/3
f 582/2/3 575/2/3 574/2/3
f 583/2/3 575/2/3 582/2/3
f 584/2/3 580/2/3 579/2/3
f 585/2/3 580/2/3 584/2/3
f 586/2/3 582/2/3 581/2/3
f 587/2/3 582/2/3 586/2/3
f 591/2/3 589/2/3 588/2/3
f 592/2/3 589/2/3 591/2/3
f 595/2/3 591/2/3 590/2/3
f 596/2/3 591/2/3 595/2/3
f 598/2/3 593/2/3 592/2/3
f 599/2/3 593/2/3 598/2/3
f 601/2/3 598/2/3 597/2/3
f 602/2/3 598/2/3 601/2/3
f 605/2/3 595/2/3 594/2/3
f 606/2/3 595/2/3 605/2/3
f 607/2/3 601/2/3 600/2/3
f 608/2/3 601/2/3 607/2/3
f 609/2/3 604/2/3 603/2/3
f 610/2/3 604/2/3 609/2/3
f 616/5/3 612/5/3 611/5/3
f 617/5/3 612/5/3 616/5/3
f 620/5/3 619/5/3 618/5/3
f 621/5/3 619/5/3 620/5/3
f 622/8/3 614/8/3 613/8/3
f 623/5/3 615/5/3 614/5/3
f 623/8/3 614/8/3 622/8/3
f 624/5/3 615/5/3 623/5/3
f 627/2/3 626/2/3 625/2/3
f 628/2/3 626/2/3 627/2/3
f 633/2/3 632/2/3 631/2/3
f 634/2/3 632/2/3 633/2/3
f 636/2/3 630/2/3 629/2/3
f 637/2/3 630/2/3 636/2/3
f 639/2/3 635/2/3 634/2/3
f 640/2/3 635/2/3 639/2/3
f 642/2/3 638/2/3 637/2/3
f 643/2/3 638/2/3 642/2/3
f 644/2/3 641/2/3 640/2/3
f 645/2/3 641/2/3 644/2/3
f 646/2/3 644/2/3 643/2/3
f 647/2/3 644/2/3 646/2/3
f 651/8/3 649/8/3 648/8/3
f 652/8/3 649/8/3 651/8/3
f 653/8/3 649/8/3 652/8/3
f 654/8/3 651/8/3 650/8/3
f 654/8/3 652/8/3 651/8/3
f 655/8/3 652/8/3 654/8/3
f 658/8/3 654/8/3 650/8/3
f 659/8/3 654/8/3 658/8/3
f 660/2/3 657/2/3 656/2/3
f 661/2/3 657/2/3 660/2/3
f 667/4/3 663/4/3 662/4/3
f 668/5/3 664/5/3 663/5/3
f 668/4/3 663/4/3 667/4/3
f 669/5/3 664/5/3 668/5/3
f 670/5/3 664/5/3 669/5/3
f 671/5/3 666/5/3 665/5/3
f 672/4/3 667/4/3 666/4/3
f 672/5/3 666/5/3 671/5/3
f 673/5/3 668/5/3 667/5/3
f 673/4/3 667/4/3 672/4/3
f 676/5/3 668/5/3 673/5/3
f 677/5/3 675/5/3 674/5/3
f 678/4/3 676/4/3 675/4/3
f 678/5/3 675/5/3 677/5/3
f 679/5/3 668/5/3 676/5/3
f 679/4/3 676/4/3 678/4/3
f 680/5/3 668/5/3 679/5/3
f 683/4/3 680/4/3 679/4/3
f 684/5/3 682/5/3 681/5/3
f 684/4/3 680/4/3 683/4/3
f 684/5/3 681/5/3 680/5/3
f 685/5/3 682/5/3 684/5/3
f 688/2/3 687/2/3 686/2/3
f 689/2/3 687/2/3 688/2/3
f 692/8/3 691/8/3 690/8/3
f 694/8/3 692/8/3 690/8/3
f 694/8/3 693/8/3 692/8/3
f 695/8/3 693/8/3 694/8/3
f 696/8/3 693/8/3 695/8/3
f 698/8/3 696/8/3 695/8/3
f 698/8/3 697/8/3 696/8/3
f 699/8/3 697/8/3 698/8/3
f 700/2/4 701/2/4 703/2/4
f 703/2/4 701/2/4 704/2/4
f 702/2/4 703/2/4 707/2/4
f 707/2/4 703/2/4 708/2/4
f 704/2/4 705/2/4 710/2/4
f 710/2/4 705/2/4 711/2/4
f 709/2/4 710/2/4 713/2/4
f 713/2/4 710/2/4 714/2/4
f 706/2/4 707/2/4 715/2/4
f 715/2/4 707/2/4 716/2/4
f 712/2/4 713/2/4 717/2/4
f 717/2/4 713/2/4 718/2/4
f 721/2/4 722/2/4 723/2/4
f 723/2/4 722/2/4 724/2/4
f 719/2/4 720/2/4 726/2/4
f 726/2/4 720/2/4 727/2/4
f 724/2/4 725/2/4 729/2/4
f 729/2/4 725/2/4 730/2/4
f 727/2/4 728/2/4 732/2/4
f 732/2/4 728/2/4 733/2/4
f 730/2/4 731/2/4 734/2/4
f 734/2/4 731/2/4 735/2/4
f 733/2/4 734/2/4 736/2/4
f 736/2/4 734/2/4 737/2/4
f 738/2/4 739/2/4 741/2/4
f 741/2/4 739/2/4 742/2/4
f 740/2/4 741/2/4 744/2/4
f 744/2/4 741/2/4 745/2/4
f 743/2/4 744/2/4 748/2/4
f 748/2/4 744/2/4 749/2/4
f 746/2/4 747/2/4 750/2/4
f 750/2/4 747/2/4 751/2/4
f 752/4/4 753/4/4 759/4/4
f 753/5/4 754/5/4 760/5/4
f 759/4/4 753/4/4 760/4/4
f 760/5/4 754/5/4 761/5/4
f 755/2/4 756/2/4 762/2/4
f 762/2/4 756/2/4 763/2/4
f 757/5/4 758/5/4 764/5/4
f 758/4/4 759/4/4 765/4/4
f 764/5/4 758/5/4 765/5/4
f 759/5/4 760/5/4 766/5/4
f 765/4/4 759/4/4 766/4/4
f 766/5/4 760/5/4 769/5/4
f 767/5/4 768/5/4 770/5/4
f 768/4/4 769/4/4 771/4/4
f 770/5/4 768/5/4 771/5/4
f 769/5/4 760/5/4 772/5/4
f 771/4/4 769/4/4 772/4/4
f 772/5/4 760/5/4 773/5/4
f 772/4/4 773/4/4 777/4/4
f 773/5/4 774/5/4 778/5/4
f 777/4/4 773/4/4 778/4/4
f 778/5/4 774/5/4 779/5/4
f 775/2/4 776/2/4 780/2/4
f 780/2/4 776/2/4 781/2/4
f 782/2/4 783/2/4 784/2/4
f 784/2/4 783/2/4 785/2/4
f 786/2/4 787/2/4 788/2/4
f 788/2/4 787/2/4 789/2/4
f 789/2/4 790/2/4 791/2/4
f 791/2/4 790/2/4 792/2/4
f 792/2/4 793/2/4 794/2/4
f 794/2/4 793/2/4 795/2/4
f 796/2/4 797/2/4 799/2/4
f 799/2/4 797/2/4 800/2/4
f 800/2/4 797/2/4 801/2/4
f 798/2/4 799/2/4 802/2/4
f 799/2/4 800/2/4 802/2/4
f 802/2/4 800/2/4 803/2/4
f 798/2/4 802/2/4 806/2/4
f 806/2/4 802/2/4 807/2/4
f 804/2/4 805/2/4 808/2/4
f 808/2/4 805/2/4 809/2/4
f 810/2/4 811/2/4 812/2/4
f 812/2/4 811/2/4 813/2/4
f 814/5/4 815/5/4 818/5/4
f 818/5/4 815/5/4 819/5/4
f 816/2/4 817/2/4 820/2/4
f 820/2/4 817/2/4 821/2/4
f 822/2/4 823/2/4 826/2/4
f 826/2/4 823/2/4 827/2/4
f 824/2/4 825/2/4 828/2/4
f 828/2/4 825/2/4 829/2/4
f 830/2/4 831/2/4 832/2/4
f 830/2/4 832/2/4 834/2/4
f 832/2/4 833/2/4 834/2/4
f 834/2/4 833/2/4 835/2/4
f 835/2/4 833/2/4 836/2/4
f 836/2/4 837/2/4 838/2/4
f 835/2/4 836/2/4 838/2/4
f 838/2/4 837/2/4 839/2/4
f 840/2/4 841/2/4 846/2/4
f 846/2/4 841/2/4 847/2/4
f 842/2/4 843/2/4 848/2/4
f 848/2/4 843/2/4 849/2/4
f 844/4/4 845/4/4 850/4/4
f 850/4/4 845/4/4 851/4/4
f 852/2/4 853/2/4 856/2/4
f 856/2/4 853/2/4 857/2/4
f 854/4/4 855/4/4 858/4/4
f 858/4/4 855/4/4 859/4/4
f 860/2/4 861/2/4 864/2/4
f 864/2/4 861/2/4 865/2/4
f 862/2/4 863/2/4 866/2/4
f 866/2/4 863/2/4 867/2/4
f 868/2/4 869/2/4 873/2/4
f 873/2/4 869/2/4 874/2/4
f 874/2/4 869/2/4 875/2/4
f 870/4/4 871/4/4 878/4/4
f 874/2/4 875/2/4 879/2/4
f 875/3/4 876/3/4 880/3/4
f 879/2/4 875/2/4 880/2/4
f 880/3/4 876/3/4 881/3/4
f 877/4/4 878/4/4 882/4/4
f 878/4/4 871/4/4 882/4/4
f 871/2/4 872/2/4 883/2/4
f 882/4/4 871/4/4 883/4/4
f 883/2/4 872/2/4 884/2/4
f 877/4/4 882/4/4 885/4/4
f 882/2/4 883/2/4 885/2/4
f 885/2/4 883/2/4 886/2/4
f 877/4/4 885/4/4 888/4/4
f 885/4/4 886/4/4 888/4/4
f 888/4/4 886/4/4 889/4/4
f 889/4/4 886/4/4 893/4/4
f 886/2/4 887/2/4 894/2/4
f 893/4/4 886/4/4 894/4/4
f 894/2/4 887/2/4 895/2/4
f 890/2/4 891/2/4 897/2/4
f 891/3/4 892/3/4 898/3/4
f 897/2/4 891/2/4 898/2/4
f 898/3/4 892/3/4 899/3/4
f 896/2/4 897/2/4 900/2/4
f 897/2/4 898/2/4 900/2/4
f 900/2/4 898/2/4 901/2/4
f 902/2/4 903/2/4 904/2/4
f 904/2/4 903/2/4 905/2/4
f 902/2/4 904/2/4 908/2/4
f 904/3/4 905/3/4 909/3/4
f 908/2/4 904/2/4 909/2/4
f 905/2/4 906/2/4 910/2/4
f 909/3/4 905/3/4 910/3/4
f 910/2/4 906/2/4 911/2/4
f 907/2/4 908/2/4 912/2/4
f 908/3/4 909/3/4 913/3/4
f 912/2/4 908/2/4 913/2/4
f 909/3/4 910/3/4 913/3/4
f 910/3/4 911/3/4 913/3/4
f 913/3/4 911/3/4 914/3/4
f 914/3/4 911/3/4 915/3/4
f 911/2/4 906/2/4 916/2/4
f 915/3/4 911/3/4 916/3/4
f 914/3/4 915/3/4 917/3/4
f 913/2/4 914/2/4 917/2/4
f 915/2/4 916/2/4 918/2/4
f 917/3/4 915/3/4 918/3/4
f 916/2/4 906/2/4 919/2/4
f 918/2/4 916/2/4 919/2/4
f 917/2/4 918/2/4 920/2/4
f 913/2/4 917/2/4 920/2/4
f 920/2/4 918/2/4 921/2/4
f 926/5/5 925/5/5 924/5/5
f 927/5/5 925/5/5 926/5/5
f 928/1/5 927/1/5 926/1/5
f 929/5/5 925/5/5 927/5/5
f 929/1/5 927/1/5 928/1/5
f 930/5/5 923/5/5 922/5/5
f 931/5/5 923/5/5 930/5/5
f 932/5/5 929/5/5 928/5/5
f 933/5/5 925/5/5 929/5/5
f 933/5/5 929/5/5 932/5/5
f 940/4/5 935/4/5 934/4/5
f 941/4/5 935/4/5 940/4/5
f 942/5/5 937/5/5 936/5/5
f 943/5/5 937/5/5 942/5/5
f 944/4/5 939/4/5 938/4/5
f 945/4/5 939/4/5 944/4/5
f 948/8/5 947/8/5 946/8/5
f 949/8/5 947/8/5 948/8/5
f 952/5/5 951/5/5 950/5/5
f 953/5/5 951/5/5 952/5/5
f 957/4/5 955/4/5 954/4/5
f 958/4/5 955/4/5 957/4/5
f 960/4/5 957/4/5 956/4/5
f 960/4/5 959/4/5 958/4/5
f 960/4/5 958/4/5 957/4/5
f 961/4/5 959/4/5 960/4/5
f 962/4/5 959/4/5 961/4/5
f 963/4/5 959/4/5 962/4/5
f 964/4/5 959/4/5 963/4/5
f 965/4/5 959/4/5 964/4/5
f 966/2/5 961/2/5 960/2/5
f 966/4/5 962/4/5 961/4/5
f 967/4/5 962/4/5 966/4/5
f 968/4/5 964/4/5 963/4/5
f 969/2/5 965/2/5 964/2/5
f 969/4/5 964/4/5 968/4/5
f 970/2/5 966/2/5 960/2/5
f 973/2/5 965/2/5 969/2/5
f 974/2/5 970/2/5 960/2/5
f 975/4/5 971/4/5 970/4/5
f 975/2/5 970/2/5 974/2/5
f 976/4/5 971/4/5 975/4/5
f 977/4/5 973/4/5 972/4/5
f 978/2/5 965/2/5 973/2/5
f 978/4/5 973/4/5 977/4/5
f 979/2/5 965/2/5 978/2/5
f 980/4/5 976/4/5 975/4/5
f 980/4/5 977/4/5 976/4/5
f 980/4/5 979/4/5 978/4/5
f 980/4/5 978/4/5 977/4/5
f 980/4/5 975/4/5 974/4/5
f 981/4/5 979/4/5 980/4/5
f 982/4/5 979/4/5 981/4/5
f 983/4/5 979/4/5 982/4/5
f 984/4/5 982/4/5 981/4/5
f 985/4/5 982/4/5 984/4/5
f 990/9/5 987/9/5 986/9/5
f 991/9/5 987/9/5 990/9/5
f 992/9/5 989/9/5 988/9/5
f 993/9/5 989/9/5 992/9/5
f 998/2/5 995/2/5 994/2/5
f 999/2/5 995/2/5 998/2/5
f 1000/2/5 997/2/5 996/2/5
f 1001/2/5 997/2/5 1000/2/5
f 1006/4/5 1003/4/5 1002/4/5
f 1007/4/5 1003/4/5 1006/4/5
f 1008/4/5 1005/4/5 1004/4/5
f 1009/4/5 1005/4/5 1008/4/5
f 1014/2/5 1011/2/5 1010/2/5
f 1015/2/5 1011/2/5 1014/2/5
f 1016/2/5 1013/2/5 1012/2/5
f 1017/2/5 1013/2/5 1016/2/5
f 1022/2/5 1019/2/5 1018/2/5
f 1023/2/5 1019/2/5 1022/2/5
f 1024/2/5 1021/2/5 1020/2/5
f 1025/2/5 1021/2/5 1024/2/5
f 1028/2/5 1027/2/5 1026/2/5
f 1029/2/5 1027/2/5 1028/2/5
f 1036/2/5 1031/2/5 1030/2/5
f 1037/2/5 1031/2/5 1036/2/5
f 1038/2/5 1033/2/5 1032/2/5
f 1039/2/5 1033/2/5 1038/2/5
f 1040/2/5 1035/2/5 1034/2/5
f 1041/2/5 1035/2/5 1040/2/5
f 1046/2/5 1043/2/5 1042/2/5
f 1047/2/5 1043/2/5 1046/2/5
f 1048/2/5 1045/2/5 1044/2/5
f 1049/2/5 1045/2/5 1048/2/5
f 1054/2/5 1051/2/5 1050/2/5
f 1055/2/5 1051/2/5 1054/2/5
f 1056/2/5 1053/2/5 1052/2/5
f 1057/2/5 1053/2/5 1056/2/5
f 1062/2/5 1059/2/5 1058/2/5
f 1063/2/5 1059/2/5 1062/2/5
f 1064/2/5 1061/2/5 1060/2/5
f 1065/2/5 1061/2/5 1064/2/5
f 1070/2/5 1067/2/5 1066/2/5
f 1071/2/5 1067/2/5 1070/2/5
f 1074/2/5 1069/2/5 1068/2/5
f 1075/2/5 1069/2/5 1074/2/5
f 1076/2/5 1073/2/5 1072/2/5
f 1077/2/5 1073/2/5 1076/2/5
f 1082/2/5 1079/2/5 1078/2/5
f 1083/2/5 1079/2/5 1082/2/5
f 1084/2/5 1081/2/5 1080/2/5
f 1085/2/5 1081/2/5 1084/2/5
f 1090/2/5 1087/2/5 1086/2/5
f 1091/2/5 1087/2/5 1090/2/5
f 1092/2/5 1089/2/5 1088/2/5
f 1093/2/5 1089/2/5 1092/2/5
f 1102/2/5 1095/2/5 1094/2/5
f 1103/2/5 1095/2/5 1102/2/5
f 1104/2/5 1097/2/5 1096/2/5
f 1105/2/5 1097/2/5 1104/2/5
f 1106/2/5 1099/2/5 1098/2/5
f 1107/2/5 1099/2/5 1106/2/5
f 1108/2/5 1101/2/5 1100/2/5
f 1109/2/5 1101/2/5 1108/2/5
f 1114/2/5 1111/2/5 1110/2/5
f 1115/2/5 1111/2/5 1114/2/5
f 1118/2/5 1113/2/5 1112/2/5
f 1119/2/5 1113/2/5 1118/2/5
f 1120/2/5 1116/2/5 1115/2/5
f 1121/2/5 1116/2/5 1120/2/5
f 1122/2/5 1118/2/5 1117/2/5
f 1123/2/5 1118/2/5 1122/2/5
f 1128/2/5 1125/2/5 1124/2/5
f 1129/2/5 1125/2/5 1128/2/5
f 1130/2/5 1127/2/5 1126/2/5
f 1131/2/5 1127/2/5 1130/2/5
f 1136/2/5 1133/2/5 1132/2/5
f 1137/2/5 1133/2/5 1136/2/5
f 1140/2/5 1135/2/5 1134/2/5
f 1141/2/5 1135/2/5 1140/2/5
f 1142/2/5 1138/2/5 1137/2/5
f 1143/2/5 1138/2/5 1142/2/5
f 1144/2/5 1140/2/5 1139/2/5
f 1145/2/5 1140/2/5 1144/2/5
f 1150/2/5 1147/2/5 1146/2/5
f 1151/2/5 1147/2/5 1150/2/5
f 1152/2/5 1149/2/5 1148/2/5
f 1153/2/5 1149/2/5 1152/2/5
f 1158/2/5 1155/2/5 1154/2/5
f 1159/2/5 1155/2/5 1158/2/5
f 1160/2/5 1157/2/5 1156/2/5
f 1161/2/5 1157/2/5 1160/2/5
f 1166/2/5 1163/2/5 1162/2/5
f 1167/2/5 1163/2/5 1166/2/5
f 1168/2/5 1165/2/5 1164/2/5
f 1169/2/5 1165/2/5 1168/2/5
f 1170/5/6 1171/5/6 1174/5/6
f 1174/5/6 1171/5/6 1175/5/6
f 1172/5/6 1173/5/6 1176/5/6
f 1176/5/6 1173/5/6 1177/5/6
f 1178/2/6 1179/2/6 1182/2/6
f 1182/2/6 1179/2/6 1183/2/6
f 1180/2/6 1181/2/6 1184/2/6
f 1184/2/6 1181/2/6 1185/2/6
f 1186/3/6 1187/3/6 1190/3/6
f 1190/3/6 1187/3/6 1191/3/6
f 1188/3/6 1189/3/6 1192/3/6
f 1192/3/6 1189/3/6 1193/3/6
f 1194/2/6 1195/2/6 1198/2/6
f 1198/2/6 1195/2/6 1199/2/6
f 1196/2/6 1197/2/6 1200/2/6
f 1200/2/6 1197/2/6 1201/2/6
f 1202/2/6 1203/2/6 1206/2/6
f 1206/2/6 1203/2/6 1207/2/6
f 1204/2/6 1205/2/6 1208/2/6
f 1208/2/6 1205/2/6 1209/2/6
f 1210/2/6 1211/2/6 1214/2/6
f 1214/2/6 1211/2/6 1215/2/6
f 1212/2/6 1213/2/6 1216/2/6
f 1216/2/6 1213/2/6 1217/2/6
f 1218/2/6 1219/2/6 1222/2/6
f 1222/2/6 1219/2/6 1223/2/6
f 1220/2/6 1221/2/6 1224/2/6
f 1224/2/6 1221/2/6 1225/2/6
f 1226/2/6 1227/2/6 1231/2/6
f 1231/2/6 1227/2/6 1232/2/6
f 1228/2/6 1229/2/6 1233/2/6
f 1233/2/6 1229/2/6 1234/2/6
f 1230/2/6 1231/2/6 1236/2/6
f 1236/2/6 1231/2/6 1237/2/6
f 1234/2/6 1235/2/6 1238/2/6
f 1238/2/6 1235/2/6 1239/2/6
f 1240/2/6 1241/2/6 1244/2/6
f 1244/2/6 1241/2/6 1245/2/6
f 1242/2/6 1243/2/6 1246/2/6
f 1246/2/6 1243/2/6 1247/2/6
f 1248/3/6 1249/3/6 1251/3/6
f 1251/3/6 1249/3/6 1252/3/6
f 1250/3/6 1251/3/6 1255/3/6
f 1255/3/6 1251/3/6 1256/3/6
f 1252/3/6 1253/3/6 1257/3/6
f 1257/3/6 1253/3/6 1258/3/6
f 1254/2/6 1255/2/6 1261/2/6
f 1258/2/6 1259/2/6 1262/2/6
f 1260/2/6 1261/2/6 1265/2/6
f 1261/2/6 1255/2/6 1266/2/6
f 1265/2/6 1261/2/6 1266/2/6
f 1262/2/6 1263/2/6 1267/2/6
f 1258/2/6 1262/2/6 1267/2/6
f 1267/2/6 1263/2/6 1268/2/6
f 1264/2/6 1265/2/6 1271/2/6
f 1271/2/6 1265/2/6 1272/2/6
f 1268/2/6 1269/2/6 1273/2/6
f 1273/2/6 1269/2/6 1274/2/6
f 1270/2/6 1271/2/6 1276/2/6
f 1276/2/6 1271/2/6 1277/2/6
f 1266/2/6 1255/2/6 1278/2/6
f 1258/2/6 1267/2/6 1281/2/6
f 1274/2/6 1275/2/6 1282/2/6
f 1282/2/6 1275/2/6 1283/2/6
f 1266/2/6 1278/2/6 1284/2/6
f 1278/3/6 1279/3/6 1285/3/6
f 1284/2/6 1278/2/6 1285/2/6
f 1285/3/6 1279/3/6 1286/3/6
f 1280/3/6 1281/3/6 1287/3/6
f 1281/2/6 1267/2/6 1288/2/6
f 1287/3/6 1281/3/6 1288/3/6
f 1288/2/6 1267/2/6 1289/2/6
f 1285/3/6 1286/3/6 1290/3/6
f 1286/3/6 1287/3/6 1290/3/6
f 1287/3/6 1288/3/6 1290/3/6
f 1290/3/6 1288/3/6 1291/3/6
f 1291/3/6 1288/3/6 1292/3/6
f 1292/3/6 1288/3/6 1293/3/6
f 1291/2/6 1292/2/6 1294/2/6
f 1294/2/6 1292/2/6 1295/2/6
f 1296/2/6 1297/2/6 1299/2/6
f 1299/2/6 1297/2/6 1300/2/6
f 1302/2/6 1303/2/6 1310/2/6
f 1310/2/6 1303/2/6 1311/2/6
f 1304/2/6 1305/2/6 1312/2/6
f 1312/2/6 1305/2/6 1313/2/6
f 1306/2/6 1307/2/6 1314/2/6
f 1314/2/6 1307/2/6 1315/2/6
f 1308/2/6 1309/2/6 1316/2/6
f 1316/2/6 1309/2/6 1317/2/6
f 1311/2/6 1312/2/6 1318/2/6
f 1318/2/6 1312/2/6 1319/2/6
f 1298/2/6 1299/2/6 1320/2/6
f 1300/2/6 1301/2/6 1323/2/6
f 1315/2/6 1316/2/6 1324/2/6
f 1324/2/6 1316/2/6 1325/2/6
f 1320/2/6 1321/2/6 1326/2/6
f 1298/2/6 1320/2/6 1326/2/6
f 1326/2/6 1321/2/6 1327/2/6
f 1327/2/6 1321/2/6 1328/2/6
f 1322/2/6 1323/2/6 1329/2/6
f 1323/2/6 1301/2/6 1330/2/6
f 1329/2/6 1323/2/6 1330/2/6
f 1330/2/6 1301/2/6 1331/2/6
f 1327/2/6 1328/2/6 1332/2/6
f 1328/2/6 1329/2/6 1332/2/6
f 1329/2/6 1330/2/6 1332/2/6
f 1332/2/6 1330/2/6 1333/2/6
f 1336/2/6 1337/2/6 1340/2/6
f 1340/2/6 1337/2/6 1341/2/6
f 1338/2/6 1339/2/6 1342/2/6
f 1342/2/6 1339/2/6 1343/2/6
f 1334/2/6 1335/2/6 1344/2/6
f 1344/2/6 1335/2/6 1345/2/6
f 1345/2/6 1335/2/6 1346/2/6
f 1346/2/6 1335/2/6 1347/2/6
f 1345/2/6 1346/2/6 1348/2/6
f 1348/2/6 1346/2/6 1349/2/6
