# MagicaVoxel @ Ephtracy

# group
o 

# material
mtllib Boonyboo.vox.mtl
usemtl palette

# normals
vn -1 0 0
vn 1 0 0
vn 0 0 1
vn 0 0 -1
vn 0 -1 0
vn 0 1 0

# texcoords
vt 0.626953 0.5
vt 0.658203 0.5
vt 0.783203 0.5
vt 0.814453 0.5
vt 0.845703 0.5
vt 0.876953 0.5
vt 0.908203 0.5
vt 0.912109 0.5
vt 0.939453 0.5
vt 0.943359 0.5
vt 0.970703 0.5
vt 0.978516 0.5
vt 0.982422 0.5
vt 0.986328 0.5

# verts
v -0.2 1 0.8
v -0.2 1 0.6
v -0.2 1.3 0.8
v -0.2 1.3 0.6
v -0.1 0.9 1
v -0.1 0.9 0.4
v -0.1 1 0.9
v -0.1 1 0.8
v -0.1 1 0.6
v -0.1 1 0.5
v -0.1 1.3 0.9
v -0.1 1.3 0.8
v -0.1 1.3 0.6
v -0.1 1.3 0.5
v -0.1 1.4 1
v -0.1 1.4 0.4
v -0.1 1.5 0.8
v -0.1 1.5 0.6
v -0.1 1.7 0.7
v -0.1 1.7 0.6
v -0.1 1.8 0.8
v -0.1 1.8 0.7
v 0 0.7 1
v 0 0.7 0.4
v 0 0.8 1.1
v 0 0.8 1
v 0 0.8 0.9
v 0 0.8 0.5
v 0 0.8 0.4
v 0 0.8 0.3
v 0 0.9 1.1
v 0 0.9 1
v 0 0.9 0.9
v 0 0.9 0.5
v 0 0.9 0.4
v 0 0.9 0.3
v 0 1.4 1.1
v 0 1.4 1
v 0 1.4 0.4
v 0 1.4 0.3
v 0 1.5 1
v 0 1.5 0.8
v 0 1.5 0.6
v 0 1.5 0.5
v 0 1.5 0.4
v 0 1.7 0.7
v 0 1.7 0.6
v 0 1.7 0.5
v 0 1.8 0.8
v 0 1.8 0.7
v 0 1.8 0.6
v 0 1.9 0.8
v 0 1.9 0.7
v 0.1 0.4 0.8
v 0.1 0.4 0.6
v 0.1 0.5 0.8
v 0.1 0.5 0.6
v 0.1 0.7 1.1
v 0.1 0.7 1
v 0.1 0.7 0.8
v 0.1 0.7 0.6
v 0.1 0.7 0.4
v 0.1 0.7 0.3
v 0.1 0.8 1.1
v 0.1 0.8 1
v 0.1 0.8 0.4
v 0.1 0.8 0.3
v 0.1 1 0.3
v 0.1 1 0.2
v 0.1 1.2 1.2
v 0.1 1.2 1.1
v 0.1 1.3 0.3
v 0.1 1.3 0.2
v 0.1 1.4 1.2
v 0.1 1.4 1.1
v 0.1 1.4 1
v 0.1 1.4 0.4
v 0.1 1.4 0.3
v 0.1 1.5 1.1
v 0.1 1.5 1
v 0.1 1.5 0.4
v 0.1 1.5 0.3
v 0.1 1.7 0.6
v 0.1 1.7 0.5
v 0.1 1.8 0.7
v 0.1 1.8 0.6
v 0.1 1.8 0.5
v 0.1 1.9 0.8
v 0.1 1.9 0.7
v 0.1 1.9 0.6
v 0.1 2 0.8
v 0.1 2 0.7
v 0.2 0.1 0.9
v 0.2 0.1 0.6
v 0.2 0.2 0.9
v 0.2 0.2 0.8
v 0.2 0.3 0.8
v 0.2 0.3 0.6
v 0.2 0.4 0.8
v 0.2 0.4 0.6
v 0.2 0.5 0.9
v 0.2 0.5 0.8
v 0.2 0.5 0.6
v 0.2 0.5 0.5
v 0.2 0.6 0.9
v 0.2 0.6 0.8
v 0.2 0.6 0.6
v 0.2 0.6 0.5
v 0.2 0.7 0.9
v 0.2 0.7 0.8
v 0.2 0.7 0.6
v 0.2 0.7 0.5
v 0.2 0.9 0.3
v 0.2 0.9 0.2
v 0.2 1 0.3
v 0.2 1 0.2
v 0.2 1.1 1.2
v 0.2 1.1 1.1
v 0.2 1.2 1.2
v 0.2 1.2 1.1
v 0.2 1.3 0.3
v 0.2 1.3 0.2
v 0.2 1.4 0.3
v 0.2 1.4 0.2
v 0.2 1.7 0.8
v 0.2 1.7 0.7
v 0.2 1.8 0.8
v 0.2 1.8 0.7
v 0.3 1.5 0.8
v 0.3 1.5 0.7
v 0.3 1.7 0.8
v 0.3 1.7 0.7
v 0.6 0.1 0.9
v 0.6 0.1 0.6
v 0.6 0.2 0.9
v 0.6 0.2 0.8
v 0.6 0.3 0.8
v 0.6 0.3 0.6
v 0.6 0.4 0.8
v 0.6 0.4 0.6
v 0.6 1.5 0.8
v 0.6 1.5 0.6
v 0.6 1.7 0.7
v 0.6 1.7 0.6
v 0.6 1.8 0.8
v 0.6 1.8 0.7
v 0.7 1.5 0.6
v 0.7 1.5 0.5
v 0.7 1.7 0.7
v 0.7 1.7 0.6
v 0.7 1.7 0.5
v 0.7 1.8 0.8
v 0.7 1.8 0.7
v 0.7 1.8 0.6
v 0.7 1.9 0.8
v 0.7 1.9 0.7
v 0.8 1.7 0.6
v 0.8 1.7 0.5
v 0.8 1.8 0.7
v 0.8 1.8 0.6
v 0.8 1.8 0.5
v 0.8 1.9 0.8
v 0.8 1.9 0.7
v 0.8 1.9 0.6
v 0.8 2 0.8
v 0.8 2 0.7
v 0.9 1.7 0.8
v 0.9 1.7 0.7
v 0.9 1.8 0.8
v 0.9 1.8 0.7
v 1 1.5 0.8
v 1 1.5 0.7
v 1 1.7 0.8
v 1 1.7 0.7
v 0 1.5 0.8
v 0 1.5 0.7
v 0 1.7 0.8
v 0 1.7 0.7
v 0.1 1.7 0.8
v 0.1 1.7 0.7
v 0.1 1.8 0.8
v 0.1 1.8 0.7
v 0.2 1.7 0.6
v 0.2 1.7 0.5
v 0.2 1.8 0.7
v 0.2 1.8 0.6
v 0.2 1.8 0.5
v 0.2 1.9 0.8
v 0.2 1.9 0.7
v 0.2 1.9 0.6
v 0.2 2 0.8
v 0.2 2 0.7
v 0.3 1.5 0.6
v 0.3 1.5 0.5
v 0.3 1.7 0.7
v 0.3 1.7 0.6
v 0.3 1.7 0.5
v 0.3 1.8 0.8
v 0.3 1.8 0.7
v 0.3 1.8 0.6
v 0.3 1.9 0.8
v 0.3 1.9 0.7
v 0.4 0.1 0.9
v 0.4 0.1 0.6
v 0.4 0.2 0.9
v 0.4 0.2 0.8
v 0.4 0.3 0.8
v 0.4 0.3 0.6
v 0.4 0.4 0.8
v 0.4 0.4 0.6
v 0.4 1.5 0.8
v 0.4 1.5 0.6
v 0.4 1.7 0.7
v 0.4 1.7 0.6
v 0.4 1.8 0.8
v 0.4 1.8 0.7
v 0.7 1.5 0.8
v 0.7 1.5 0.7
v 0.7 1.7 0.8
v 0.7 1.7 0.7
v 0.8 0.1 0.9
v 0.8 0.1 0.6
v 0.8 0.2 0.9
v 0.8 0.2 0.8
v 0.8 0.3 0.8
v 0.8 0.3 0.6
v 0.8 0.4 0.8
v 0.8 0.4 0.6
v 0.8 0.5 0.9
v 0.8 0.5 0.8
v 0.8 0.5 0.6
v 0.8 0.5 0.5
v 0.8 0.6 0.9
v 0.8 0.6 0.8
v 0.8 0.6 0.6
v 0.8 0.6 0.5
v 0.8 0.7 0.9
v 0.8 0.7 0.8
v 0.8 0.7 0.6
v 0.8 0.7 0.5
v 0.8 0.9 0.3
v 0.8 0.9 0.2
v 0.8 1 0.3
v 0.8 1 0.2
v 0.8 1.1 1.2
v 0.8 1.1 1.1
v 0.8 1.2 1.2
v 0.8 1.2 1.1
v 0.8 1.3 0.3
v 0.8 1.3 0.2
v 0.8 1.4 0.3
v 0.8 1.4 0.2
v 0.8 1.7 0.8
v 0.8 1.7 0.7
v 0.8 1.8 0.8
v 0.8 1.8 0.7
v 0.9 0.4 0.8
v 0.9 0.4 0.6
v 0.9 0.5 0.8
v 0.9 0.5 0.6
v 0.9 0.7 1.1
v 0.9 0.7 1
v 0.9 0.7 0.8
v 0.9 0.7 0.6
v 0.9 0.7 0.4
v 0.9 0.7 0.3
v 0.9 0.8 1.1
v 0.9 0.8 1
v 0.9 0.8 0.4
v 0.9 0.8 0.3
v 0.9 1 0.3
v 0.9 1 0.2
v 0.9 1.2 1.2
v 0.9 1.2 1.1
v 0.9 1.3 0.3
v 0.9 1.3 0.2
v 0.9 1.4 1.2
v 0.9 1.4 1.1
v 0.9 1.4 1
v 0.9 1.4 0.4
v 0.9 1.4 0.3
v 0.9 1.5 1.1
v 0.9 1.5 1
v 0.9 1.5 0.4
v 0.9 1.5 0.3
v 0.9 1.7 0.6
v 0.9 1.7 0.5
v 0.9 1.8 0.7
v 0.9 1.8 0.6
v 0.9 1.8 0.5
v 0.9 1.9 0.8
v 0.9 1.9 0.7
v 0.9 1.9 0.6
v 0.9 2 0.8
v 0.9 2 0.7
v 1 0.7 1
v 1 0.7 0.4
v 1 0.8 1.1
v 1 0.8 1
v 1 0.8 0.9
v 1 0.8 0.5
v 1 0.8 0.4
v 1 0.8 0.3
v 1 0.9 1.1
v 1 0.9 1
v 1 0.9 0.9
v 1 0.9 0.5
v 1 0.9 0.4
v 1 0.9 0.3
v 1 1.4 1.1
v 1 1.4 1
v 1 1.4 0.4
v 1 1.4 0.3
v 1 1.5 1
v 1 1.5 0.8
v 1 1.5 0.6
v 1 1.5 0.5
v 1 1.5 0.4
v 1 1.7 0.7
v 1 1.7 0.6
v 1 1.7 0.5
v 1 1.8 0.8
v 1 1.8 0.7
v 1 1.8 0.6
v 1 1.9 0.8
v 1 1.9 0.7
v 1.1 0.9 1
v 1.1 0.9 0.4
v 1.1 1 0.9
v 1.1 1 0.8
v 1.1 1 0.6
v 1.1 1 0.5
v 1.1 1.3 0.9
v 1.1 1.3 0.8
v 1.1 1.3 0.6
v 1.1 1.3 0.5
v 1.1 1.4 1
v 1.1 1.4 0.4
v 1.1 1.5 0.8
v 1.1 1.5 0.6
v 1.1 1.7 0.7
v 1.1 1.7 0.6
v 1.1 1.8 0.8
v 1.1 1.8 0.7
v 1.2 1 0.8
v 1.2 1 0.6
v 1.2 1.3 0.8
v 1.2 1.3 0.6
v 0.1 1.2 1.2
v 0.1 1.4 1.2
v 0.2 1.1 1.2
v 0.2 1.2 1.2
v 0.2 1.3 1.2
v 0.8 1.1 1.2
v 0.8 1.2 1.2
v 0.8 1.3 1.2
v 0.9 1.2 1.2
v 0.9 1.4 1.2
v 0 0.8 1.1
v 0 0.9 1.1
v 0 1.4 1.1
v 0.1 0.7 1.1
v 0.1 0.8 1.1
v 0.1 0.9 1.1
v 0.1 1.1 1.1
v 0.1 1.2 1.1
v 0.1 1.4 1.1
v 0.1 1.5 1.1
v 0.2 0.8 1.1
v 0.2 0.9 1.1
v 0.2 1 1.1
v 0.2 1.1 1.1
v 0.2 1.2 1.1
v 0.3 0.8 1.1
v 0.3 1 1.1
v 0.7 0.8 1.1
v 0.7 1 1.1
v 0.8 0.8 1.1
v 0.8 0.9 1.1
v 0.8 1 1.1
v 0.8 1.1 1.1
v 0.8 1.2 1.1
v 0.9 0.7 1.1
v 0.9 0.8 1.1
v 0.9 0.9 1.1
v 0.9 1.1 1.1
v 0.9 1.2 1.1
v 0.9 1.4 1.1
v 0.9 1.5 1.1
v 1 0.8 1.1
v 1 0.9 1.1
v 1 1.4 1.1
v -0.1 0.9 1
v -0.1 1.4 1
v 0 0.7 1
v 0 0.8 1
v 0 0.9 1
v 0 1.4 1
v 0 1.5 1
v 0.1 0.7 1
v 0.1 0.8 1
v 0.1 1.4 1
v 0.1 1.5 1
v 0.9 0.7 1
v 0.9 0.8 1
v 0.9 1.4 1
v 0.9 1.5 1
v 1 0.7 1
v 1 0.8 1
v 1 0.9 1
v 1 1.4 1
v 1 1.5 1
v 1.1 0.9 1
v 1.1 1.4 1
v 0.2 0.1 0.9
v 0.2 0.2 0.9
v 0.2 0.5 0.9
v 0.2 0.6 0.9
v 0.2 0.7 0.9
v 0.4 0.1 0.9
v 0.4 0.2 0.9
v 0.6 0.1 0.9
v 0.6 0.2 0.9
v 0.8 0.1 0.9
v 0.8 0.2 0.9
v 0.8 0.5 0.9
v 0.8 0.6 0.9
v 0.8 0.7 0.9
v -0.2 1 0.8
v -0.2 1.3 0.8
v -0.1 1 0.8
v -0.1 1.3 0.8
v -0.1 1.5 0.8
v -0.1 1.8 0.8
v 0 1.5 0.8
v 0 1.7 0.8
v 0 1.8 0.8
v 0 1.9 0.8
v 0.1 0.4 0.8
v 0.1 0.5 0.8
v 0.1 0.7 0.8
v 0.1 1.7 0.8
v 0.1 1.8 0.8
v 0.1 1.9 0.8
v 0.1 2 0.8
v 0.2 0.2 0.8
v 0.2 0.3 0.8
v 0.2 0.4 0.8
v 0.2 0.5 0.8
v 0.2 0.6 0.8
v 0.2 0.7 0.8
v 0.2 1.7 0.8
v 0.2 1.8 0.8
v 0.2 1.9 0.8
v 0.2 2 0.8
v 0.3 1.5 0.8
v 0.3 1.7 0.8
v 0.3 1.8 0.8
v 0.3 1.9 0.8
v 0.4 0.2 0.8
v 0.4 0.3 0.8
v 0.4 0.4 0.8
v 0.4 1.5 0.8
v 0.4 1.8 0.8
v 0.6 0.2 0.8
v 0.6 0.3 0.8
v 0.6 0.4 0.8
v 0.6 1.5 0.8
v 0.6 1.8 0.8
v 0.7 1.5 0.8
v 0.7 1.7 0.8
v 0.7 1.8 0.8
v 0.7 1.9 0.8
v 0.8 0.2 0.8
v 0.8 0.3 0.8
v 0.8 0.4 0.8
v 0.8 0.5 0.8
v 0.8 0.6 0.8
v 0.8 0.7 0.8
v 0.8 1.7 0.8
v 0.8 1.8 0.8
v 0.8 1.9 0.8
v 0.8 2 0.8
v 0.9 0.4 0.8
v 0.9 0.5 0.8
v 0.9 0.7 0.8
v 0.9 1.7 0.8
v 0.9 1.8 0.8
v 0.9 1.9 0.8
v 0.9 2 0.8
v 1 1.5 0.8
v 1 1.7 0.8
v 1 1.8 0.8
v 1 1.9 0.8
v 1.1 1 0.8
v 1.1 1.3 0.8
v 1.1 1.5 0.8
v 1.1 1.8 0.8
v 1.2 1 0.8
v 1.2 1.3 0.8
v 0 1.5 0.7
v 0 1.7 0.7
v 0.1 1.7 0.7
v 0.1 1.8 0.7
v 0.2 1.7 0.7
v 0.2 1.8 0.7
v 0.3 1.5 0.7
v 0.3 1.7 0.7
v 0.7 1.5 0.7
v 0.7 1.7 0.7
v 0.8 1.7 0.7
v 0.8 1.8 0.7
v 0.9 1.7 0.7
v 0.9 1.8 0.7
v 1 1.5 0.7
v 1 1.7 0.7
v -0.1 1.7 0.7
v -0.1 1.8 0.7
v 0 1.7 0.7
v 0 1.8 0.7
v 0 1.9 0.7
v 0.1 1.8 0.7
v 0.1 1.9 0.7
v 0.1 2 0.7
v 0.2 1.8 0.7
v 0.2 1.9 0.7
v 0.2 2 0.7
v 0.3 1.7 0.7
v 0.3 1.8 0.7
v 0.3 1.9 0.7
v 0.4 1.7 0.7
v 0.4 1.8 0.7
v 0.6 1.7 0.7
v 0.6 1.8 0.7
v 0.7 1.7 0.7
v 0.7 1.8 0.7
v 0.7 1.9 0.7
v 0.8 1.8 0.7
v 0.8 1.9 0.7
v 0.8 2 0.7
v 0.9 1.8 0.7
v 0.9 1.9 0.7
v 0.9 2 0.7
v 1 1.7 0.7
v 1 1.8 0.7
v 1 1.9 0.7
v 1.1 1.7 0.7
v 1.1 1.8 0.7
v -0.2 1 0.6
v -0.2 1.3 0.6
v -0.1 1 0.6
v -0.1 1.3 0.6
v -0.1 1.5 0.6
v -0.1 1.7 0.6
v 0 1.5 0.6
v 0 1.7 0.6
v 0 1.8 0.6
v 0.1 0.4 0.6
v 0.1 0.5 0.6
v 0.1 0.7 0.6
v 0.1 1.7 0.6
v 0.1 1.8 0.6
v 0.1 1.9 0.6
v 0.2 0.1 0.6
v 0.2 0.3 0.6
v 0.2 0.4 0.6
v 0.2 0.5 0.6
v 0.2 0.6 0.6
v 0.2 0.7 0.6
v 0.2 1.7 0.6
v 0.2 1.8 0.6
v 0.2 1.9 0.6
v 0.3 1.5 0.6
v 0.3 1.7 0.6
v 0.3 1.8 0.6
v 0.4 0.1 0.6
v 0.4 0.3 0.6
v 0.4 0.4 0.6
v 0.4 1.5 0.6
v 0.4 1.7 0.6
v 0.6 0.1 0.6
v 0.6 0.3 0.6
v 0.6 0.4 0.6
v 0.6 1.5 0.6
v 0.6 1.7 0.6
v 0.7 1.5 0.6
v 0.7 1.7 0.6
v 0.7 1.8 0.6
v 0.8 0.1 0.6
v 0.8 0.3 0.6
v 0.8 0.4 0.6
v 0.8 0.5 0.6
v 0.8 0.6 0.6
v 0.8 0.7 0.6
v 0.8 1.7 0.6
v 0.8 1.8 0.6
v 0.8 1.9 0.6
v 0.9 0.4 0.6
v 0.9 0.5 0.6
v 0.9 0.7 0.6
v 0.9 1.7 0.6
v 0.9 1.8 0.6
v 0.9 1.9 0.6
v 1 1.5 0.6
v 1 1.7 0.6
v 1 1.8 0.6
v 1.1 1 0.6
v 1.1 1.3 0.6
v 1.1 1.5 0.6
v 1.1 1.7 0.6
v 1.2 1 0.6
v 1.2 1.3 0.6
v 0 1.5 0.5
v 0 1.7 0.5
v 0.1 1.7 0.5
v 0.1 1.8 0.5
v 0.2 0.5 0.5
v 0.2 0.6 0.5
v 0.2 0.7 0.5
v 0.2 1.7 0.5
v 0.2 1.8 0.5
v 0.3 1.5 0.5
v 0.3 1.7 0.5
v 0.7 1.5 0.5
v 0.7 1.7 0.5
v 0.8 0.5 0.5
v 0.8 0.6 0.5
v 0.8 0.7 0.5
v 0.8 1.7 0.5
v 0.8 1.8 0.5
v 0.9 1.7 0.5
v 0.9 1.8 0.5
v 1 1.5 0.5
v 1 1.7 0.5
v -0.1 0.9 0.4
v -0.1 1.4 0.4
v 0 0.7 0.4
v 0 0.8 0.4
v 0 0.9 0.4
v 0 1.4 0.4
v 0 1.5 0.4
v 0.1 0.7 0.4
v 0.1 0.8 0.4
v 0.1 1.4 0.4
v 0.1 1.5 0.4
v 0.9 0.7 0.4
v 0.9 0.8 0.4
v 0.9 1.4 0.4
v 0.9 1.5 0.4
v 1 0.7 0.4
v 1 0.8 0.4
v 1 0.9 0.4
v 1 1.4 0.4
v 1 1.5 0.4
v 1.1 0.9 0.4
v 1.1 1.4 0.4
v 0 0.8 0.3
v 0 0.9 0.3
v 0 1.4 0.3
v 0.1 0.7 0.3
v 0.1 0.8 0.3
v 0.1 1 0.3
v 0.1 1.3 0.3
v 0.1 1.4 0.3
v 0.1 1.5 0.3
v 0.2 0.8 0.3
v 0.2 0.9 0.3
v 0.2 1 0.3
v 0.2 1.3 0.3
v 0.2 1.4 0.3
v 0.8 0.8 0.3
v 0.8 0.9 0.3
v 0.8 1 0.3
v 0.8 1.3 0.3
v 0.8 1.4 0.3
v 0.9 0.7 0.3
v 0.9 0.8 0.3
v 0.9 1 0.3
v 0.9 1.3 0.3
v 0.9 1.4 0.3
v 0.9 1.5 0.3
v 1 0.8 0.3
v 1 0.9 0.3
v 1 1.4 0.3
v 0.1 1 0.2
v 0.1 1.3 0.2
v 0.2 0.9 0.2
v 0.2 1 0.2
v 0.2 1.3 0.2
v 0.2 1.4 0.2
v 0.8 0.9 0.2
v 0.8 1 0.2
v 0.8 1.3 0.2
v 0.8 1.4 0.2
v 0.9 1 0.2
v 0.9 1.3 0.2
v 0.2 0.1 0.9
v 0.4 0.1 0.9
v 0.6 0.1 0.9
v 0.8 0.1 0.9
v 0.2 0.1 0.6
v 0.4 0.1 0.6
v 0.6 0.1 0.6
v 0.8 0.1 0.6
v 0.1 0.4 0.8
v 0.2 0.4 0.8
v 0.4 0.4 0.8
v 0.6 0.4 0.8
v 0.8 0.4 0.8
v 0.9 0.4 0.8
v 0.1 0.4 0.6
v 0.2 0.4 0.6
v 0.4 0.4 0.6
v 0.6 0.4 0.6
v 0.8 0.4 0.6
v 0.9 0.4 0.6
v 0.2 0.5 0.9
v 0.8 0.5 0.9
v 0.2 0.5 0.8
v 0.8 0.5 0.8
v 0.2 0.5 0.6
v 0.8 0.5 0.6
v 0.2 0.5 0.5
v 0.8 0.5 0.5
v 0.1 0.7 1.1
v 0.9 0.7 1.1
v 0 0.7 1
v 0.1 0.7 1
v 0.9 0.7 1
v 1 0.7 1
v 0.2 0.7 0.9
v 0.8 0.7 0.9
v 0.1 0.7 0.8
v 0.2 0.7 0.8
v 0.8 0.7 0.8
v 0.9 0.7 0.8
v 0.1 0.7 0.6
v 0.2 0.7 0.6
v 0.8 0.7 0.6
v 0.9 0.7 0.6
v 0.2 0.7 0.5
v 0.8 0.7 0.5
v 0 0.7 0.4
v 0.1 0.7 0.4
v 0.9 0.7 0.4
v 1 0.7 0.4
v 0.1 0.7 0.3
v 0.9 0.7 0.3
v 0 0.8 1.1
v 0.1 0.8 1.1
v 0.9 0.8 1.1
v 1 0.8 1.1
v 0 0.8 1
v 0.1 0.8 1
v 0.9 0.8 1
v 1 0.8 1
v 0 0.8 0.4
v 0.1 0.8 0.4
v 0.9 0.8 0.4
v 1 0.8 0.4
v 0 0.8 0.3
v 0.1 0.8 0.3
v 0.9 0.8 0.3
v 1 0.8 0.3
v -0.1 0.9 1
v 0 0.9 1
v 1 0.9 1
v 1.1 0.9 1
v 0 0.9 0.9
v 1 0.9 0.9
v 0 0.9 0.5
v 1 0.9 0.5
v -0.1 0.9 0.4
v 0 0.9 0.4
v 1 0.9 0.4
v 1.1 0.9 0.4
v 0.2 0.9 0.3
v 0.8 0.9 0.3
v 0.2 0.9 0.2
v 0.8 0.9 0.2
v -0.2 1 0.8
v -0.1 1 0.8
v 1.1 1 0.8
v 1.2 1 0.8
v -0.2 1 0.6
v -0.1 1 0.6
v 1.1 1 0.6
v 1.2 1 0.6
v 0.1 1 0.3
v 0.2 1 0.3
v 0.8 1 0.3
v 0.9 1 0.3
v 0.1 1 0.2
v 0.2 1 0.2
v 0.8 1 0.2
v 0.9 1 0.2
v 0.2 1.1 1.2
v 0.8 1.1 1.2
v 0.2 1.1 1.1
v 0.8 1.1 1.1
v 0.1 1.2 1.2
v 0.2 1.2 1.2
v 0.8 1.2 1.2
v 0.9 1.2 1.2
v 0.1 1.2 1.1
v 0.2 1.2 1.1
v 0.8 1.2 1.1
v 0.9 1.2 1.1
v -0.1 1.5 0.8
v 0 1.5 0.8
v 1 1.5 0.8
v 1.1 1.5 0.8
v -0.1 1.5 0.6
v 0 1.5 0.6
v 1 1.5 0.6
v 1.1 1.5 0.6
v 0 1.7 0.8
v 0.1 1.7 0.8
v 0.2 1.7 0.8
v 0.3 1.7 0.8
v 0.7 1.7 0.8
v 0.8 1.7 0.8
v 0.9 1.7 0.8
v 1 1.7 0.8
v 0 1.7 0.7
v 0.1 1.7 0.7
v 0.2 1.7 0.7
v 0.3 1.7 0.7
v 0.7 1.7 0.7
v 0.8 1.7 0.7
v 0.9 1.7 0.7
v 1 1.7 0.7
v 0.1 1.8 0.8
v 0.2 1.8 0.8
v 0.8 1.8 0.8
v 0.9 1.8 0.8
v 0.1 1.8 0.7
v 0.2 1.8 0.7
v 0.8 1.8 0.7
v 0.9 1.8 0.7
v 0.2 0.2 0.9
v 0.4 0.2 0.9
v 0.6 0.2 0.9
v 0.8 0.2 0.9
v 0.2 0.2 0.8
v 0.4 0.2 0.8
v 0.6 0.2 0.8
v 0.8 0.2 0.8
v -0.2 1.3 0.8
v -0.1 1.3 0.8
v 1.1 1.3 0.8
v 1.2 1.3 0.8
v -0.2 1.3 0.6
v -0.1 1.3 0.6
v 1.1 1.3 0.6
v 1.2 1.3 0.6
v 0.1 1.3 0.3
v 0.2 1.3 0.3
v 0.8 1.3 0.3
v 0.9 1.3 0.3
v 0.1 1.3 0.2
v 0.2 1.3 0.2
v 0.8 1.3 0.2
v 0.9 1.3 0.2
v 0.1 1.4 1.2
v 0.9 1.4 1.2
v 0 1.4 1.1
v 0.1 1.4 1.1
v 0.9 1.4 1.1
v 1 1.4 1.1
v -0.1 1.4 1
v 0 1.4 1
v 0.1 1.4 1
v 0.9 1.4 1
v 1 1.4 1
v 1.1 1.4 1
v -0.1 1.4 0.4
v 0 1.4 0.4
v 0.1 1.4 0.4
v 0.9 1.4 0.4
v 1 1.4 0.4
v 1.1 1.4 0.4
v 0 1.4 0.3
v 0.1 1.4 0.3
v 0.2 1.4 0.3
v 0.8 1.4 0.3
v 0.9 1.4 0.3
v 1 1.4 0.3
v 0.2 1.4 0.2
v 0.8 1.4 0.2
v 0.1 1.5 1.1
v 0.9 1.5 1.1
v 0 1.5 1
v 0.1 1.5 1
v 0.9 1.5 1
v 1 1.5 1
v 0 1.5 0.8
v 0.3 1.5 0.8
v 0.4 1.5 0.8
v 0.6 1.5 0.8
v 0.7 1.5 0.8
v 1 1.5 0.8
v 0 1.5 0.7
v 0.3 1.5 0.7
v 0.7 1.5 0.7
v 1 1.5 0.7
v 0.3 1.5 0.6
v 0.4 1.5 0.6
v 0.6 1.5 0.6
v 0.7 1.5 0.6
v 0 1.5 0.5
v 0.3 1.5 0.5
v 0.7 1.5 0.5
v 1 1.5 0.5
v 0 1.5 0.4
v 0.1 1.5 0.4
v 0.9 1.5 0.4
v 1 1.5 0.4
v 0.1 1.5 0.3
v 0.9 1.5 0.3
v -0.1 1.7 0.7
v 0 1.7 0.7
v 0.3 1.7 0.7
v 0.4 1.7 0.7
v 0.6 1.7 0.7
v 0.7 1.7 0.7
v 1 1.7 0.7
v 1.1 1.7 0.7
v -0.1 1.7 0.6
v 0 1.7 0.6
v 0.1 1.7 0.6
v 0.2 1.7 0.6
v 0.3 1.7 0.6
v 0.4 1.7 0.6
v 0.6 1.7 0.6
v 0.7 1.7 0.6
v 0.8 1.7 0.6
v 0.9 1.7 0.6
v 1 1.7 0.6
v 1.1 1.7 0.6
v 0 1.7 0.5
v 0.1 1.7 0.5
v 0.2 1.7 0.5
v 0.3 1.7 0.5
v 0.7 1.7 0.5
v 0.8 1.7 0.5
v 0.9 1.7 0.5
v 1 1.7 0.5
v -0.1 1.8 0.8
v 0 1.8 0.8
v 0.3 1.8 0.8
v 0.4 1.8 0.8
v 0.6 1.8 0.8
v 0.7 1.8 0.8
v 1 1.8 0.8
v 1.1 1.8 0.8
v -0.1 1.8 0.7
v 0 1.8 0.7
v 0.1 1.8 0.7
v 0.2 1.8 0.7
v 0.3 1.8 0.7
v 0.4 1.8 0.7
v 0.6 1.8 0.7
v 0.7 1.8 0.7
v 0.8 1.8 0.7
v 0.9 1.8 0.7
v 1 1.8 0.7
v 1.1 1.8 0.7
v 0 1.8 0.6
v 0.1 1.8 0.6
v 0.2 1.8 0.6
v 0.3 1.8 0.6
v 0.7 1.8 0.6
v 0.8 1.8 0.6
v 0.9 1.8 0.6
v 1 1.8 0.6
v 0.1 1.8 0.5
v 0.2 1.8 0.5
v 0.8 1.8 0.5
v 0.9 1.8 0.5
v 0 1.9 0.8
v 0.1 1.9 0.8
v 0.2 1.9 0.8
v 0.3 1.9 0.8
v 0.7 1.9 0.8
v 0.8 1.9 0.8
v 0.9 1.9 0.8
v 1 1.9 0.8
v 0 1.9 0.7
v 0.1 1.9 0.7
v 0.2 1.9 0.7
v 0.3 1.9 0.7
v 0.7 1.9 0.7
v 0.8 1.9 0.7
v 0.9 1.9 0.7
v 1 1.9 0.7
v 0.1 1.9 0.6
v 0.2 1.9 0.6
v 0.8 1.9 0.6
v 0.9 1.9 0.6
v 0.1 2 0.8
v 0.2 2 0.8
v 0.8 2 0.8
v 0.9 2 0.8
v 0.1 2 0.7
v 0.2 2 0.7
v 0.8 2 0.7
v 0.9 2 0.7

# faces
f 3/9/1 2/9/1 1/9/1
f 4/9/1 2/9/1 3/9/1
f 7/9/1 6/9/1 5/9/1
f 8/9/1 6/9/1 7/9/1
f 9/9/1 6/9/1 8/9/1
f 10/9/1 6/9/1 9/9/1
f 11/9/1 7/9/1 5/9/1
f 11/10/1 8/10/1 7/10/1
f 12/10/1 8/10/1 11/10/1
f 13/10/1 10/10/1 9/10/1
f 14/9/1 6/9/1 10/9/1
f 14/10/1 10/10/1 13/10/1
f 15/9/1 13/9/1 12/9/1
f 15/9/1 12/9/1 11/9/1
f 15/9/1 14/9/1 13/9/1
f 15/9/1 11/9/1 5/9/1
f 16/9/1 6/9/1 14/9/1
f 16/9/1 14/9/1 15/9/1
f 19/9/1 18/9/1 17/9/1
f 20/9/1 18/9/1 19/9/1
f 21/9/1 19/9/1 17/9/1
f 22/9/1 19/9/1 21/9/1
f 26/6/1 24/6/1 23/6/1
f 27/6/1 24/6/1 26/6/1
f 28/6/1 24/6/1 27/6/1
f 29/6/1 24/6/1 28/6/1
f 31/8/1 26/8/1 25/8/1
f 32/6/1 27/6/1 26/6/1
f 32/8/1 26/8/1 31/8/1
f 33/10/1 28/10/1 27/10/1
f 33/6/1 27/6/1 32/6/1
f 34/6/1 30/6/1 29/6/1
f 34/10/1 28/10/1 33/10/1
f 34/6/1 29/6/1 28/6/1
f 35/6/1 30/6/1 34/6/1
f 36/6/1 30/6/1 35/6/1
f 37/10/1 32/10/1 31/10/1
f 38/10/1 32/10/1 37/10/1
f 39/10/1 36/10/1 35/10/1
f 40/10/1 36/10/1 39/10/1
f 41/10/1 39/10/1 38/10/1
f 42/10/1 39/10/1 41/10/1
f 43/10/1 39/10/1 42/10/1
f 44/10/1 39/10/1 43/10/1
f 45/10/1 39/10/1 44/10/1
f 47/9/1 44/9/1 43/9/1
f 48/9/1 44/9/1 47/9/1
f 50/9/1 47/9/1 46/9/1
f 51/9/1 47/9/1 50/9/1
f 52/9/1 50/9/1 49/9/1
f 53/9/1 50/9/1 52/9/1
f 56/6/1 55/6/1 54/6/1
f 57/6/1 55/6/1 56/6/1
f 60/4/1 57/4/1 56/4/1
f 61/4/1 57/4/1 60/4/1
f 64/6/1 59/6/1 58/6/1
f 65/6/1 59/6/1 64/6/1
f 66/6/1 63/6/1 62/6/1
f 67/6/1 63/6/1 66/6/1
f 72/9/1 69/9/1 68/9/1
f 73/9/1 69/9/1 72/9/1
f 74/9/1 71/9/1 70/9/1
f 75/9/1 71/9/1 74/9/1
f 79/10/1 76/10/1 75/10/1
f 80/10/1 76/10/1 79/10/1
f 81/10/1 78/10/1 77/10/1
f 82/10/1 78/10/1 81/10/1
f 86/9/1 84/9/1 83/9/1
f 87/9/1 84/9/1 86/9/1
f 89/9/1 86/9/1 85/9/1
f 90/9/1 86/9/1 89/9/1
f 91/9/1 89/9/1 88/9/1
f 92/9/1 89/9/1 91/9/1
f 95/4/1 94/4/1 93/4/1
f 96/4/1 94/4/1 95/4/1
f 97/4/1 94/4/1 96/4/1
f 98/4/1 94/4/1 97/4/1
f 99/6/1 98/6/1 97/6/1
f 100/6/1 98/6/1 99/6/1
f 105/3/1 102/3/1 101/3/1
f 106/3/1 102/3/1 105/3/1
f 107/3/1 104/3/1 103/3/1
f 108/3/1 104/3/1 107/3/1
f 109/4/1 106/4/1 105/4/1
f 110/4/1 106/4/1 109/4/1
f 111/4/1 108/4/1 107/4/1
f 112/4/1 108/4/1 111/4/1
f 115/9/1 114/9/1 113/9/1
f 116/9/1 114/9/1 115/9/1
f 119/9/1 118/9/1 117/9/1
f 120/9/1 118/9/1 119/9/1
f 123/9/1 122/9/1 121/9/1
f 124/9/1 122/9/1 123/9/1
f 127/9/1 126/9/1 125/9/1
f 128/9/1 126/9/1 127/9/1
f 131/9/1 130/9/1 129/9/1
f 132/9/1 130/9/1 131/9/1
f 135/4/1 134/4/1 133/4/1
f 136/4/1 134/4/1 135/4/1
f 137/4/1 134/4/1 136/4/1
f 138/4/1 134/4/1 137/4/1
f 139/6/1 138/6/1 137/6/1
f 140/6/1 138/6/1 139/6/1
f 143/9/1 142/9/1 141/9/1
f 144/9/1 142/9/1 143/9/1
f 145/9/1 143/9/1 141/9/1
f 146/9/1 143/9/1 145/9/1
f 150/9/1 148/9/1 147/9/1
f 151/9/1 148/9/1 150/9/1
f 153/9/1 150/9/1 149/9/1
f 154/9/1 150/9/1 153/9/1
f 155/9/1 153/9/1 152/9/1
f 156/9/1 153/9/1 155/9/1
f 160/9/1 158/9/1 157/9/1
f 161/9/1 158/9/1 160/9/1
f 163/9/1 160/9/1 159/9/1
f 164/9/1 160/9/1 163/9/1
f 165/9/1 163/9/1 162/9/1
f 166/9/1 163/9/1 165/9/1
f 169/9/1 168/9/1 167/9/1
f 170/9/1 168/9/1 169/9/1
f 173/9/1 172/9/1 171/9/1
f 174/9/1 172/9/1 173/9/1
f 175/9/2 176/9/2 177/9/2
f 177/9/2 176/9/2 178/9/2
f 179/9/2 180/9/2 181/9/2
f 181/9/2 180/9/2 182/9/2
f 183/9/2 184/9/2 186/9/2
f 186/9/2 184/9/2 187/9/2
f 185/9/2 186/9/2 189/9/2
f 189/9/2 186/9/2 190/9/2
f 188/9/2 189/9/2 191/9/2
f 191/9/2 189/9/2 192/9/2
f 193/9/2 194/9/2 196/9/2
f 196/9/2 194/9/2 197/9/2
f 195/9/2 196/9/2 199/9/2
f 199/9/2 196/9/2 200/9/2
f 198/9/2 199/9/2 201/9/2
f 201/9/2 199/9/2 202/9/2
f 203/4/2 204/4/2 205/4/2
f 205/4/2 204/4/2 206/4/2
f 206/4/2 204/4/2 207/4/2
f 207/4/2 204/4/2 208/4/2
f 207/6/2 208/6/2 209/6/2
f 209/6/2 208/6/2 210/6/2
f 211/9/2 212/9/2 213/9/2
f 213/9/2 212/9/2 214/9/2
f 211/9/2 213/9/2 215/9/2
f 215/9/2 213/9/2 216/9/2
f 217/9/2 218/9/2 219/9/2
f 219/9/2 218/9/2 220/9/2
f 221/4/2 222/4/2 223/4/2
f 223/4/2 222/4/2 224/4/2
f 224/4/2 222/4/2 225/4/2
f 225/4/2 222/4/2 226/4/2
f 225/6/2 226/6/2 227/6/2
f 227/6/2 226/6/2 228/6/2
f 229/3/2 230/3/2 233/3/2
f 233/3/2 230/3/2 234/3/2
f 231/3/2 232/3/2 235/3/2
f 235/3/2 232/3/2 236/3/2
f 233/4/2 234/4/2 237/4/2
f 237/4/2 234/4/2 238/4/2
f 235/4/2 236/4/2 239/4/2
f 239/4/2 236/4/2 240/4/2
f 241/9/2 242/9/2 243/9/2
f 243/9/2 242/9/2 244/9/2
f 245/9/2 246/9/2 247/9/2
f 247/9/2 246/9/2 248/9/2
f 249/9/2 250/9/2 251/9/2
f 251/9/2 250/9/2 252/9/2
f 253/9/2 254/9/2 255/9/2
f 255/9/2 254/9/2 256/9/2
f 257/6/2 258/6/2 259/6/2
f 259/6/2 258/6/2 260/6/2
f 259/4/2 260/4/2 263/4/2
f 263/4/2 260/4/2 264/4/2
f 261/6/2 262/6/2 267/6/2
f 267/6/2 262/6/2 268/6/2
f 265/6/2 266/6/2 269/6/2
f 269/6/2 266/6/2 270/6/2
f 271/9/2 272/9/2 275/9/2
f 275/9/2 272/9/2 276/9/2
f 273/9/2 274/9/2 277/9/2
f 277/9/2 274/9/2 278/9/2
f 278/10/2 279/10/2 282/10/2
f 282/10/2 279/10/2 283/10/2
f 280/10/2 281/10/2 284/10/2
f 284/10/2 281/10/2 285/10/2
f 286/9/2 287/9/2 289/9/2
f 289/9/2 287/9/2 290/9/2
f 288/9/2 289/9/2 292/9/2
f 292/9/2 289/9/2 293/9/2
f 291/9/2 292/9/2 294/9/2
f 294/9/2 292/9/2 295/9/2
f 296/6/2 297/6/2 299/6/2
f 299/6/2 297/6/2 300/6/2
f 300/6/2 297/6/2 301/6/2
f 301/6/2 297/6/2 302/6/2
f 298/8/2 299/8/2 304/8/2
f 299/6/2 300/6/2 305/6/2
f 304/8/2 299/8/2 305/8/2
f 300/10/2 301/10/2 306/10/2
f 305/6/2 300/6/2 306/6/2
f 302/6/2 303/6/2 307/6/2
f 306/10/2 301/10/2 307/10/2
f 301/6/2 302/6/2 307/6/2
f 307/6/2 303/6/2 308/6/2
f 308/6/2 303/6/2 309/6/2
f 304/10/2 305/10/2 310/10/2
f 310/10/2 305/10/2 311/10/2
f 308/10/2 309/10/2 312/10/2
f 312/10/2 309/10/2 313/10/2
f 311/10/2 312/10/2 314/10/2
f 314/10/2 312/10/2 315/10/2
f 315/10/2 312/10/2 316/10/2
f 316/10/2 312/10/2 317/10/2
f 317/10/2 312/10/2 318/10/2
f 316/9/2 317/9/2 320/9/2
f 320/9/2 317/9/2 321/9/2
f 319/9/2 320/9/2 323/9/2
f 323/9/2 320/9/2 324/9/2
f 322/9/2 323/9/2 325/9/2
f 325/9/2 323/9/2 326/9/2
f 327/9/2 328/9/2 329/9/2
f 329/9/2 328/9/2 330/9/2
f 330/9/2 328/9/2 331/9/2
f 331/9/2 328/9/2 332/9/2
f 327/9/2 329/9/2 333/9/2
f 329/10/2 330/10/2 333/10/2
f 333/10/2 330/10/2 334/10/2
f 331/10/2 332/10/2 335/10/2
f 332/9/2 328/9/2 336/9/2
f 335/10/2 332/10/2 336/10/2
f 334/9/2 335/9/2 337/9/2
f 333/9/2 334/9/2 337/9/2
f 335/9/2 336/9/2 337/9/2
f 327/9/2 333/9/2 337/9/2
f 336/9/2 328/9/2 338/9/2
f 337/9/2 336/9/2 338/9/2
f 339/9/2 340/9/2 341/9/2
f 341/9/2 340/9/2 342/9/2
f 339/9/2 341/9/2 343/9/2
f 343/9/2 341/9/2 344/9/2
f 345/9/2 346/9/2 347/9/2
f 347/9/2 346/9/2 348/9/2
f 352/9/3 350/9/3 349/9/3
f 353/9/3 350/9/3 352/9/3
f 354/9/3 352/9/3 351/9/3
f 355/10/3 353/10/3 352/10/3
f 355/9/3 352/9/3 354/9/3
f 356/9/3 350/9/3 353/9/3
f 356/10/3 353/10/3 355/10/3
f 357/9/3 356/9/3 355/9/3
f 358/9/3 350/9/3 356/9/3
f 358/9/3 356/9/3 357/9/3
f 363/8/3 360/8/3 359/8/3
f 364/10/3 361/10/3 360/10/3
f 364/8/3 360/8/3 363/8/3
f 365/10/3 361/10/3 364/10/3
f 366/10/3 361/10/3 365/10/3
f 367/10/3 361/10/3 366/10/3
f 369/6/3 363/6/3 362/6/3
f 369/8/3 364/8/3 363/8/3
f 370/6/3 365/6/3 364/6/3
f 370/8/3 364/8/3 369/8/3
f 371/6/3 365/6/3 370/6/3
f 372/10/3 366/10/3 365/10/3
f 372/6/3 365/6/3 371/6/3
f 373/10/3 366/10/3 372/10/3
f 374/5/3 371/5/3 370/5/3
f 374/6/3 369/6/3 362/6/3
f 374/5/3 370/5/3 369/5/3
f 375/6/3 372/6/3 371/6/3
f 375/5/3 371/5/3 374/5/3
f 376/6/3 374/6/3 362/6/3
f 376/6/3 375/6/3 374/6/3
f 377/6/3 372/6/3 375/6/3
f 377/6/3 375/6/3 376/6/3
f 378/6/3 376/6/3 362/6/3
f 378/5/3 377/5/3 376/5/3
f 379/5/3 377/5/3 378/5/3
f 380/6/3 372/6/3 377/6/3
f 380/5/3 377/5/3 379/5/3
f 381/6/3 372/6/3 380/6/3
f 383/6/3 378/6/3 362/6/3
f 384/8/3 379/8/3 378/8/3
f 384/6/3 378/6/3 383/6/3
f 385/6/3 380/6/3 379/6/3
f 385/8/3 379/8/3 384/8/3
f 385/6/3 381/6/3 380/6/3
f 386/10/3 382/10/3 381/10/3
f 386/6/3 381/6/3 385/6/3
f 387/10/3 382/10/3 386/10/3
f 388/10/3 368/10/3 367/10/3
f 389/10/3 368/10/3 388/10/3
f 390/8/3 385/8/3 384/8/3
f 391/10/3 387/10/3 386/10/3
f 391/8/3 385/8/3 390/8/3
f 391/10/3 386/10/3 385/10/3
f 391/10/3 388/10/3 387/10/3
f 392/10/3 388/10/3 391/10/3
f 397/9/3 394/9/3 393/9/3
f 398/9/3 394/9/3 397/9/3
f 400/6/3 396/6/3 395/6/3
f 401/6/3 396/6/3 400/6/3
f 402/10/3 399/10/3 398/10/3
f 403/10/3 399/10/3 402/10/3
f 408/6/3 405/6/3 404/6/3
f 409/6/3 405/6/3 408/6/3
f 411/10/3 407/10/3 406/10/3
f 412/10/3 407/10/3 411/10/3
f 413/9/3 411/9/3 410/9/3
f 414/9/3 411/9/3 413/9/3
f 420/4/3 416/4/3 415/4/3
f 421/4/3 416/4/3 420/4/3
f 424/4/3 423/4/3 422/4/3
f 425/4/3 423/4/3 424/4/3
f 426/3/3 418/3/3 417/3/3
f 427/4/3 419/4/3 418/4/3
f 427/3/3 418/3/3 426/3/3
f 428/4/3 419/4/3 427/4/3
f 431/9/3 430/9/3 429/9/3
f 432/9/3 430/9/3 431/9/3
f 435/9/3 434/9/3 433/9/3
f 436/9/3 434/9/3 435/9/3
f 437/9/3 434/9/3 436/9/3
f 442/9/3 438/9/3 437/9/3
f 442/9/3 437/9/3 436/9/3
f 443/9/3 438/9/3 442/9/3
f 444/9/3 438/9/3 443/9/3
f 448/6/3 440/6/3 439/6/3
f 449/4/3 441/4/3 440/4/3
f 449/6/3 440/6/3 448/6/3
f 450/4/3 441/4/3 449/4/3
f 451/4/3 441/4/3 450/4/3
f 453/9/3 445/9/3 444/9/3
f 453/9/3 444/9/3 443/9/3
f 454/9/3 445/9/3 453/9/3
f 455/9/3 445/9/3 454/9/3
f 457/9/3 454/9/3 453/9/3
f 457/9/3 453/9/3 452/9/3
f 458/9/3 454/9/3 457/9/3
f 459/9/3 454/9/3 458/9/3
f 460/4/3 447/4/3 446/4/3
f 461/6/3 448/6/3 447/6/3
f 461/4/3 447/4/3 460/4/3
f 462/4/3 449/4/3 448/4/3
f 462/6/3 448/6/3 461/6/3
f 463/9/3 457/9/3 456/9/3
f 463/9/3 458/9/3 457/9/3
f 464/9/3 458/9/3 463/9/3
f 467/4/3 449/4/3 462/4/3
f 470/9/3 469/9/3 468/9/3
f 471/9/3 469/9/3 470/9/3
f 472/9/3 469/9/3 471/9/3
f 474/4/3 466/4/3 465/4/3
f 475/6/3 467/6/3 466/6/3
f 475/4/3 466/4/3 474/4/3
f 476/4/3 449/4/3 467/4/3
f 476/6/3 467/6/3 475/6/3
f 477/4/3 449/4/3 476/4/3
f 480/9/3 472/9/3 471/9/3
f 480/9/3 473/9/3 472/9/3
f 481/9/3 473/9/3 480/9/3
f 482/9/3 473/9/3 481/9/3
f 484/6/3 477/6/3 476/6/3
f 485/4/3 479/4/3 478/4/3
f 485/6/3 477/6/3 484/6/3
f 485/4/3 478/4/3 477/4/3
f 486/4/3 479/4/3 485/4/3
f 488/9/3 482/9/3 481/9/3
f 488/9/3 483/9/3 482/9/3
f 489/9/3 483/9/3 488/9/3
f 490/9/3 483/9/3 489/9/3
f 492/9/3 489/9/3 488/9/3
f 492/9/3 488/9/3 487/9/3
f 493/9/3 489/9/3 492/9/3
f 494/9/3 489/9/3 493/9/3
f 497/9/3 492/9/3 491/9/3
f 497/9/3 493/9/3 492/9/3
f 498/9/3 493/9/3 497/9/3
f 499/9/3 496/9/3 495/9/3
f 500/9/3 496/9/3 499/9/3
f 503/7/3 502/7/3 501/7/3
f 505/7/3 503/7/3 501/7/3
f 505/7/3 504/7/3 503/7/3
f 506/7/3 504/7/3 505/7/3
f 507/7/3 505/7/3 501/7/3
f 508/7/3 505/7/3 507/7/3
f 511/7/3 510/7/3 509/7/3
f 513/7/3 511/7/3 509/7/3
f 513/7/3 512/7/3 511/7/3
f 514/7/3 512/7/3 513/7/3
f 515/7/3 513/7/3 509/7/3
f 516/7/3 513/7/3 515/7/3
f 517/9/4 518/9/4 519/9/4
f 519/9/4 518/9/4 520/9/4
f 520/9/4 521/9/4 522/9/4
f 522/9/4 521/9/4 523/9/4
f 523/9/4 524/9/4 526/9/4
f 526/9/4 524/9/4 527/9/4
f 525/9/4 526/9/4 529/9/4
f 529/9/4 526/9/4 530/9/4
f 528/9/4 529/9/4 531/9/4
f 531/9/4 529/9/4 532/9/4
f 533/9/4 534/9/4 535/9/4
f 535/9/4 534/9/4 536/9/4
f 536/9/4 537/9/4 538/9/4
f 538/9/4 537/9/4 539/9/4
f 539/9/4 540/9/4 542/9/4
f 542/9/4 540/9/4 543/9/4
f 541/9/4 542/9/4 545/9/4
f 545/9/4 542/9/4 546/9/4
f 544/9/4 545/9/4 547/9/4
f 547/9/4 545/9/4 548/9/4
f 549/9/4 550/9/4 551/9/4
f 551/9/4 550/9/4 552/9/4
f 553/9/4 554/9/4 555/9/4
f 555/9/4 554/9/4 556/9/4
f 556/9/4 557/9/4 561/9/4
f 561/9/4 557/9/4 562/9/4
f 558/6/4 559/6/4 566/6/4
f 559/4/4 560/4/4 567/4/4
f 566/6/4 559/6/4 567/6/4
f 567/4/4 560/4/4 568/4/4
f 568/4/4 560/4/4 569/4/4
f 562/9/4 563/9/4 571/9/4
f 571/9/4 563/9/4 572/9/4
f 570/9/4 571/9/4 574/9/4
f 574/9/4 571/9/4 575/9/4
f 564/4/4 565/4/4 576/4/4
f 565/6/4 566/6/4 577/6/4
f 576/4/4 565/4/4 577/4/4
f 566/4/4 567/4/4 578/4/4
f 577/6/4 566/6/4 578/6/4
f 573/9/4 574/9/4 579/9/4
f 579/9/4 574/9/4 580/9/4
f 578/4/4 567/4/4 583/4/4
f 584/9/4 585/9/4 586/9/4
f 586/9/4 585/9/4 587/9/4
f 581/4/4 582/4/4 589/4/4
f 582/6/4 583/6/4 590/6/4
f 589/4/4 582/4/4 590/4/4
f 583/4/4 567/4/4 591/4/4
f 590/6/4 583/6/4 591/6/4
f 591/4/4 567/4/4 592/4/4
f 587/9/4 588/9/4 595/9/4
f 595/9/4 588/9/4 596/9/4
f 591/6/4 592/6/4 598/6/4
f 593/4/4 594/4/4 599/4/4
f 598/6/4 592/6/4 599/6/4
f 592/4/4 593/4/4 599/4/4
f 599/4/4 594/4/4 600/4/4
f 596/9/4 597/9/4 602/9/4
f 602/9/4 597/9/4 603/9/4
f 601/9/4 602/9/4 605/9/4
f 605/9/4 602/9/4 606/9/4
f 604/9/4 605/9/4 609/9/4
f 609/9/4 605/9/4 610/9/4
f 607/9/4 608/9/4 611/9/4
f 611/9/4 608/9/4 612/9/4
f 613/9/4 614/9/4 615/9/4
f 613/9/4 615/9/4 620/9/4
f 615/9/4 616/9/4 620/9/4
f 620/9/4 616/9/4 621/9/4
f 613/9/4 620/9/4 622/9/4
f 622/9/4 620/9/4 623/9/4
f 617/3/4 618/3/4 626/3/4
f 618/4/4 619/4/4 627/4/4
f 626/3/4 618/3/4 627/3/4
f 627/4/4 619/4/4 628/4/4
f 624/9/4 625/9/4 629/9/4
f 629/9/4 630/9/4 631/9/4
f 624/9/4 629/9/4 631/9/4
f 631/9/4 630/9/4 632/9/4
f 624/9/4 631/9/4 633/9/4
f 633/9/4 631/9/4 634/9/4
f 635/9/4 636/9/4 639/9/4
f 639/9/4 636/9/4 640/9/4
f 637/6/4 638/6/4 642/6/4
f 642/6/4 638/6/4 643/6/4
f 640/10/4 641/10/4 644/10/4
f 644/10/4 641/10/4 645/10/4
f 646/6/4 647/6/4 650/6/4
f 650/6/4 647/6/4 651/6/4
f 648/10/4 649/10/4 653/10/4
f 653/10/4 649/10/4 654/10/4
f 652/9/4 653/9/4 655/9/4
f 655/9/4 653/9/4 656/9/4
f 657/6/4 658/6/4 661/6/4
f 658/10/4 659/10/4 662/10/4
f 662/10/4 659/10/4 663/10/4
f 663/10/4 659/10/4 664/10/4
f 660/6/4 661/6/4 666/6/4
f 661/6/4 658/6/4 666/6/4
f 658/10/4 662/10/4 667/10/4
f 666/6/4 658/6/4 667/6/4
f 667/10/4 662/10/4 668/10/4
f 664/10/4 665/10/4 669/10/4
f 663/10/4 664/10/4 669/10/4
f 669/10/4 665/10/4 670/10/4
f 666/10/4 667/10/4 671/10/4
f 660/6/4 666/6/4 671/6/4
f 671/10/4 667/10/4 672/10/4
f 670/10/4 665/10/4 675/10/4
f 660/6/4 671/6/4 676/6/4
f 671/6/4 672/6/4 676/6/4
f 676/6/4 672/6/4 677/6/4
f 672/10/4 673/10/4 678/10/4
f 674/10/4 675/10/4 679/10/4
f 675/10/4 665/10/4 680/10/4
f 679/10/4 675/10/4 680/10/4
f 680/10/4 665/10/4 681/10/4
f 677/6/4 672/6/4 682/6/4
f 672/10/4 678/10/4 683/10/4
f 682/6/4 672/6/4 683/6/4
f 678/10/4 679/10/4 683/10/4
f 679/10/4 680/10/4 683/10/4
f 683/10/4 680/10/4 684/10/4
f 685/9/4 686/9/4 688/9/4
f 688/9/4 686/9/4 689/9/4
f 687/9/4 688/9/4 691/9/4
f 688/10/4 689/10/4 692/10/4
f 691/9/4 688/9/4 692/9/4
f 689/9/4 690/9/4 693/9/4
f 692/10/4 689/10/4 693/10/4
f 693/9/4 690/9/4 694/9/4
f 692/9/4 693/9/4 695/9/4
f 695/9/4 693/9/4 696/9/4
f 701/4/5 698/4/5 697/4/5
f 702/4/5 698/4/5 701/4/5
f 703/4/5 700/4/5 699/4/5
f 704/4/5 700/4/5 703/4/5
f 711/6/5 706/6/5 705/6/5
f 712/6/5 706/6/5 711/6/5
f 713/4/5 708/4/5 707/4/5
f 714/4/5 708/4/5 713/4/5
f 715/6/5 710/6/5 709/6/5
f 716/6/5 710/6/5 715/6/5
f 719/3/5 718/3/5 717/3/5
f 720/3/5 718/3/5 719/3/5
f 723/3/5 722/3/5 721/3/5
f 724/3/5 722/3/5 723/3/5
f 728/6/5 726/6/5 725/6/5
f 729/6/5 726/6/5 728/6/5
f 731/6/5 728/6/5 727/6/5
f 731/6/5 730/6/5 729/6/5
f 731/6/5 729/6/5 728/6/5
f 732/6/5 730/6/5 731/6/5
f 733/6/5 731/6/5 727/6/5
f 734/6/5 731/6/5 733/6/5
f 735/6/5 730/6/5 732/6/5
f 736/6/5 730/6/5 735/6/5
f 737/6/5 733/6/5 727/6/5
f 740/6/5 730/6/5 736/6/5
f 741/6/5 738/6/5 737/6/5
f 742/6/5 740/6/5 739/6/5
f 743/6/5 741/6/5 737/6/5
f 743/6/5 742/6/5 741/6/5
f 743/6/5 737/6/5 727/6/5
f 744/6/5 742/6/5 743/6/5
f 745/6/5 740/6/5 742/6/5
f 745/6/5 742/6/5 744/6/5
f 745/6/5 730/6/5 740/6/5
f 746/6/5 730/6/5 745/6/5
f 747/6/5 745/6/5 744/6/5
f 748/6/5 745/6/5 747/6/5
f 753/8/5 750/8/5 749/8/5
f 754/8/5 750/8/5 753/8/5
f 755/8/5 752/8/5 751/8/5
f 756/8/5 752/8/5 755/8/5
f 761/6/5 758/6/5 757/6/5
f 762/6/5 758/6/5 761/6/5
f 763/6/5 760/6/5 759/6/5
f 764/6/5 760/6/5 763/6/5
f 769/9/5 766/9/5 765/9/5
f 770/9/5 768/9/5 767/9/5
f 771/9/5 769/9/5 765/9/5
f 772/9/5 768/9/5 770/9/5
f 773/9/5 771/9/5 765/9/5
f 774/9/5 771/9/5 773/9/5
f 775/9/5 768/9/5 772/9/5
f 776/9/5 768/9/5 775/9/5
f 779/9/5 778/9/5 777/9/5
f 780/9/5 778/9/5 779/9/5
f 785/9/5 782/9/5 781/9/5
f 786/9/5 782/9/5 785/9/5
f 787/9/5 784/9/5 783/9/5
f 788/9/5 784/9/5 787/9/5
f 793/9/5 790/9/5 789/9/5
f 794/9/5 790/9/5 793/9/5
f 795/9/5 792/9/5 791/9/5
f 796/9/5 792/9/5 795/9/5
f 799/9/5 798/9/5 797/9/5
f 800/9/5 798/9/5 799/9/5
f 805/9/5 802/9/5 801/9/5
f 806/9/5 802/9/5 805/9/5
f 807/9/5 804/9/5 803/9/5
f 808/9/5 804/9/5 807/9/5
f 813/9/5 810/9/5 809/9/5
f 814/9/5 810/9/5 813/9/5
f 815/9/5 812/9/5 811/9/5
f 816/9/5 812/9/5 815/9/5
f 825/9/5 818/9/5 817/9/5
f 826/9/5 818/9/5 825/9/5
f 827/9/5 820/9/5 819/9/5
f 828/9/5 820/9/5 827/9/5
f 829/9/5 822/9/5 821/9/5
f 830/9/5 822/9/5 829/9/5
f 831/9/5 824/9/5 823/9/5
f 832/9/5 824/9/5 831/9/5
f 837/9/5 834/9/5 833/9/5
f 838/9/5 834/9/5 837/9/5
f 839/9/5 836/9/5 835/9/5
f 840/9/5 836/9/5 839/9/5
f 841/4/6 842/4/6 845/4/6
f 845/4/6 842/4/6 846/4/6
f 843/4/6 844/4/6 847/4/6
f 847/4/6 844/4/6 848/4/6
f 849/9/6 850/9/6 853/9/6
f 853/9/6 850/9/6 854/9/6
f 851/9/6 852/9/6 855/9/6
f 855/9/6 852/9/6 856/9/6
f 857/9/6 858/9/6 861/9/6
f 861/9/6 858/9/6 862/9/6
f 859/9/6 860/9/6 863/9/6
f 863/9/6 860/9/6 864/9/6
f 865/9/6 866/9/6 868/9/6
f 868/9/6 866/9/6 869/9/6
f 867/10/6 868/10/6 872/10/6
f 872/10/6 868/10/6 873/10/6
f 869/10/6 870/10/6 874/10/6
f 874/10/6 870/10/6 875/10/6
f 871/9/6 872/9/6 877/9/6
f 877/9/6 872/9/6 878/9/6
f 875/9/6 876/9/6 881/9/6
f 881/9/6 876/9/6 882/9/6
f 878/10/6 879/10/6 883/10/6
f 883/10/6 879/10/6 884/10/6
f 880/10/6 881/10/6 887/10/6
f 887/10/6 881/10/6 888/10/6
f 885/9/6 886/9/6 889/9/6
f 889/9/6 886/9/6 890/9/6
f 891/10/6 892/10/6 894/10/6
f 894/10/6 892/10/6 895/10/6
f 893/10/6 894/10/6 897/10/6
f 895/10/6 896/10/6 897/10/6
f 894/10/6 895/10/6 897/10/6
f 897/10/6 896/10/6 898/10/6
f 898/10/6 896/10/6 899/10/6
f 899/10/6 896/10/6 900/10/6
f 900/10/6 896/10/6 901/10/6
f 901/10/6 896/10/6 902/10/6
f 897/10/6 898/10/6 903/10/6
f 903/10/6 898/10/6 904/10/6
f 901/10/6 902/10/6 905/10/6
f 905/10/6 902/10/6 906/10/6
f 899/10/6 900/10/6 908/10/6
f 908/10/6 900/10/6 909/10/6
f 907/10/6 908/10/6 912/10/6
f 909/10/6 910/10/6 912/10/6
f 908/10/6 909/10/6 912/10/6
f 912/10/6 910/10/6 913/10/6
f 911/10/6 912/10/6 915/10/6
f 913/10/6 914/10/6 915/10/6
f 912/10/6 913/10/6 915/10/6
f 915/10/6 914/10/6 916/10/6
f 916/10/6 914/10/6 917/10/6
f 917/10/6 914/10/6 918/10/6
f 916/10/6 917/10/6 919/10/6
f 919/10/6 917/10/6 920/10/6
f 921/9/6 922/9/6 929/9/6
f 929/9/6 922/9/6 930/9/6
f 923/9/6 924/9/6 933/9/6
f 933/9/6 924/9/6 934/9/6
f 925/9/6 926/9/6 935/9/6
f 935/9/6 926/9/6 936/9/6
f 927/9/6 928/9/6 939/9/6
f 939/9/6 928/9/6 940/9/6
f 930/9/6 931/9/6 941/9/6
f 941/9/6 931/9/6 942/9/6
f 932/9/6 933/9/6 943/9/6
f 943/9/6 933/9/6 944/9/6
f 936/9/6 937/9/6 945/9/6
f 945/9/6 937/9/6 946/9/6
f 938/9/6 939/9/6 947/9/6
f 947/9/6 939/9/6 948/9/6
f 949/9/6 950/9/6 957/9/6
f 957/9/6 950/9/6 958/9/6
f 951/9/6 952/9/6 961/9/6
f 961/9/6 952/9/6 962/9/6
f 953/9/6 954/9/6 963/9/6
f 963/9/6 954/9/6 964/9/6
f 955/9/6 956/9/6 967/9/6
f 967/9/6 956/9/6 968/9/6
f 958/9/6 959/9/6 969/9/6
f 969/9/6 959/9/6 970/9/6
f 960/9/6 961/9/6 971/9/6
f 971/9/6 961/9/6 972/9/6
f 964/9/6 965/9/6 973/9/6
f 973/9/6 965/9/6 974/9/6
f 966/9/6 967/9/6 975/9/6
f 975/9/6 967/9/6 976/9/6
f 970/9/6 971/9/6 977/9/6
f 977/9/6 971/9/6 978/9/6
f 974/9/6 975/9/6 979/9/6
f 979/9/6 975/9/6 980/9/6
f 981/9/6 982/9/6 989/9/6
f 989/9/6 982/9/6 990/9/6
f 983/9/6 984/9/6 991/9/6
f 991/9/6 984/9/6 992/9/6
f 985/9/6 986/9/6 993/9/6
f 993/9/6 986/9/6 994/9/6
f 987/9/6 988/9/6 995/9/6
f 995/9/6 988/9/6 996/9/6
f 990/9/6 991/9/6 997/9/6
f 997/9/6 991/9/6 998/9/6
f 994/9/6 995/9/6 999/9/6
f 999/9/6 995/9/6 1000/9/6
f 1001/9/6 1002/9/6 1005/9/6
f 1005/9/6 1002/9/6 1006/9/6
f 1003/9/6 1004/9/6 1007/9/6
f 1007/9/6 1004/9/6 1008/9/6
