# MagicaVoxel @ Ephtracy

# group
o 

# material
mtllib Hopper.vox.mtl
usemtl palette

# normals
vn -1 0 0
vn 1 0 0
vn 0 0 1
vn 0 0 -1
vn 0 -1 0
vn 0 1 0

# texcoords
vt 0.720703 0.5
vt 0.740234 0.5
vt 0.751953 0.5
vt 0.814453 0.5
vt 0.845703 0.5
vt 0.880859 0.5
vt 0.916016 0.5
vt 0.970703 0.5
vt 0.974609 0.5
vt 0.978516 0.5
vt 0.982422 0.5
vt 0.986328 0.5

# verts
v 1.7 1 3.2
v 1.7 1 2.8
v 1.7 1.1 3.3
v 1.7 1.1 3.2
v 1.7 1.1 2.9
v 1.7 1.3 3.2
v 1.7 1.3 2.9
v 1.7 1.4 3.3
v 1.7 1.4 2.8
v 1.7 1.7 3.2
v 1.7 1.7 3.1
v 1.7 1.8 3.2
v 1.7 1.8 3.1
v 1.8 0.8 3.4
v 1.8 0.8 2.7
v 1.8 0.9 3.5
v 1.8 0.9 3.4
v 1.8 0.9 3.3
v 1.8 0.9 2.8
v 1.8 0.9 2.7
v 1.8 1 3.4
v 1.8 1 3.3
v 1.8 1 3.2
v 1.8 1 2.8
v 1.8 1.1 3.5
v 1.8 1.1 3.4
v 1.8 1.1 3.3
v 1.8 1.1 3.2
v 1.8 1.4 3.5
v 1.8 1.4 3.4
v 1.8 1.4 3.3
v 1.8 1.4 2.8
v 1.8 1.4 2.7
v 1.8 1.5 3.4
v 1.8 1.5 2.8
v 1.8 1.6 3.2
v 1.8 1.6 3.1
v 1.8 1.7 3.2
v 1.8 1.7 3.1
v 1.8 1.8 3.2
v 1.8 1.8 3.1
v 1.8 1.9 3.2
v 1.8 1.9 3.1
v 1.9 0.4 3.2
v 1.9 0.4 3
v 1.9 0.5 3.2
v 1.9 0.5 3
v 1.9 0.7 3.4
v 1.9 0.7 3.2
v 1.9 0.7 3
v 1.9 0.7 2.8
v 1.9 0.8 3.5
v 1.9 0.8 3.4
v 1.9 0.8 2.8
v 1.9 0.9 3.5
v 1.9 0.9 3.4
v 1.9 1.3 3.6
v 1.9 1.3 3.5
v 1.9 1.4 3.6
v 1.9 1.4 3.5
v 1.9 1.4 3.4
v 1.9 1.4 2.8
v 1.9 1.4 2.7
v 1.9 1.5 3.5
v 1.9 1.5 3.4
v 1.9 1.5 2.8
v 1.9 1.6 3.4
v 1.9 1.6 3.2
v 1.9 1.6 3.1
v 1.9 1.6 2.8
v 1.9 1.6 2.7
v 2 0.1 3.3
v 2 0.1 3
v 2 0.2 3.3
v 2 0.2 3.2
v 2 0.3 3.2
v 2 0.3 3
v 2 0.4 3.2
v 2 0.4 3
v 2 0.5 3.3
v 2 0.5 3.2
v 2 0.5 3
v 2 0.5 2.9
v 2 0.6 3.3
v 2 0.6 3.2
v 2 0.6 3
v 2 0.6 2.9
v 2 0.7 3.5
v 2 0.7 3.4
v 2 0.7 3.3
v 2 0.7 3.2
v 2 0.7 3
v 2 0.7 2.9
v 2 0.7 2.8
v 2 0.7 2.7
v 2 0.8 3.5
v 2 0.8 3.4
v 2 0.8 2.8
v 2 0.8 2.7
v 2 0.9 2.7
v 2 0.9 2.6
v 2 1.2 3.6
v 2 1.2 3.5
v 2 1.3 3.6
v 2 1.3 3.5
v 2 1.3 2.7
v 2 1.3 2.6
v 2 1.4 3.6
v 2 1.4 3.5
v 2 1.5 3.6
v 2 1.5 3.5
v 2 1.5 3.4
v 2 1.6 3.5
v 2 1.6 3.4
v 2.1 1.3 2.7
v 2.1 1.3 2.6
v 2.1 1.4 2.7
v 2.1 1.4 2.6
v 2.1 1.6 3.3
v 2.1 1.6 3.2
v 2.1 1.6 3.1
v 2.1 1.6 3
v 2.1 1.7 3.3
v 2.1 1.7 3.2
v 2.1 1.7 3.1
v 2.1 1.7 3
v 2.1 1.8 3.2
v 2.1 1.8 3.1
v 2.2 1.6 3.4
v 2.2 1.6 3.3
v 2.2 1.6 3
v 2.2 1.6 2.9
v 2.2 1.7 3.4
v 2.2 1.7 3.3
v 2.2 1.7 3
v 2.2 1.7 2.9
v 2.4 0.6 3.2
v 2.4 0.6 3
v 2.4 0.7 3.2
v 2.4 0.7 3.1
v 2.4 0.7 3
v 2.4 0.8 3.2
v 2.4 0.8 3.1
v 2.5 0.1 3.3
v 2.5 0.1 3
v 2.5 0.2 3.3
v 2.5 0.2 3.2
v 2.5 0.3 3.2
v 2.5 0.3 3
v 2.5 0.4 3.2
v 2.5 0.4 3
v 2.5 1.7 3.2
v 2.5 1.7 3.1
v 2.5 1.8 3.2
v 2.5 1.8 3.1
v 2.6 1.8 3.2
v 2.6 1.8 3.1
v 2.6 1.9 3.2
v 2.6 1.9 3.1
v 2.7 1.7 3.2
v 2.7 1.7 3.1
v 2.7 1.8 3.2
v 2.7 1.8 3.1
v 2.8 1.6 3.2
v 2.8 1.6 3.1
v 2.8 1.7 3.2
v 2.8 1.7 3.1
v 1.9 1.6 3.2
v 1.9 1.6 3.1
v 1.9 1.7 3.2
v 1.9 1.7 3.1
v 2 1.7 3.2
v 2 1.7 3.1
v 2 1.8 3.2
v 2 1.8 3.1
v 2.1 1.8 3.2
v 2.1 1.8 3.1
v 2.1 1.9 3.2
v 2.1 1.9 3.1
v 2.2 0.1 3.3
v 2.2 0.1 3
v 2.2 0.2 3.3
v 2.2 0.2 3.2
v 2.2 0.3 3.2
v 2.2 0.3 3
v 2.2 0.4 3.2
v 2.2 0.4 3
v 2.2 1.7 3.2
v 2.2 1.7 3.1
v 2.2 1.8 3.2
v 2.2 1.8 3.1
v 2.3 0.6 3.2
v 2.3 0.6 3.1
v 2.3 0.6 3
v 2.3 0.7 3.2
v 2.3 0.7 3.1
v 2.3 0.7 3
v 2.3 0.8 3.2
v 2.3 0.8 3.1
v 2.5 1.6 3.4
v 2.5 1.6 3.3
v 2.5 1.6 3
v 2.5 1.6 2.9
v 2.5 1.7 3.4
v 2.5 1.7 3.3
v 2.5 1.7 3
v 2.5 1.7 2.9
v 2.6 0.7 2.8
v 2.6 0.7 2.7
v 2.6 0.8 2.8
v 2.6 0.8 2.7
v 2.6 1.3 2.7
v 2.6 1.3 2.6
v 2.6 1.4 2.7
v 2.6 1.4 2.6
v 2.6 1.6 3.3
v 2.6 1.6 3.2
v 2.6 1.6 3.1
v 2.6 1.6 3
v 2.6 1.7 3.3
v 2.6 1.7 3.2
v 2.6 1.7 3.1
v 2.6 1.7 3
v 2.6 1.8 3.2
v 2.6 1.8 3.1
v 2.7 0.1 3.3
v 2.7 0.1 3
v 2.7 0.2 3.3
v 2.7 0.2 3.2
v 2.7 0.3 3.2
v 2.7 0.3 3
v 2.7 0.4 3.2
v 2.7 0.4 3
v 2.7 0.5 3.3
v 2.7 0.5 3.2
v 2.7 0.5 3
v 2.7 0.5 2.9
v 2.7 0.6 3.3
v 2.7 0.6 3.2
v 2.7 0.6 3
v 2.7 0.6 2.9
v 2.7 0.7 3.5
v 2.7 0.7 3.4
v 2.7 0.7 3.3
v 2.7 0.7 3.2
v 2.7 0.7 3.1
v 2.7 0.7 3
v 2.7 0.7 2.9
v 2.7 0.7 2.8
v 2.7 0.8 3.5
v 2.7 0.8 3.4
v 2.7 0.8 3.1
v 2.7 0.8 2.8
v 2.7 0.9 2.7
v 2.7 0.9 2.6
v 2.7 1.2 3.6
v 2.7 1.2 3.5
v 2.7 1.3 3.6
v 2.7 1.3 3.5
v 2.7 1.3 2.7
v 2.7 1.3 2.6
v 2.7 1.4 3.6
v 2.7 1.4 3.5
v 2.7 1.5 3.6
v 2.7 1.5 3.5
v 2.7 1.5 3.4
v 2.7 1.6 3.5
v 2.7 1.6 3.4
v 2.8 0.4 3.2
v 2.8 0.4 3
v 2.8 0.5 3.2
v 2.8 0.5 3
v 2.8 0.7 3.4
v 2.8 0.7 3.2
v 2.8 0.7 3.1
v 2.8 0.7 3
v 2.8 0.8 3.5
v 2.8 0.8 3.4
v 2.8 0.8 3.1
v 2.8 0.9 3.5
v 2.8 0.9 3.4
v 2.8 1.3 3.6
v 2.8 1.3 3.5
v 2.8 1.4 3.6
v 2.8 1.4 3.5
v 2.8 1.4 3.4
v 2.8 1.4 2.8
v 2.8 1.4 2.7
v 2.8 1.5 3.5
v 2.8 1.5 3.4
v 2.8 1.5 2.8
v 2.8 1.6 3.4
v 2.8 1.6 3.2
v 2.8 1.6 3.1
v 2.8 1.6 2.8
v 2.8 1.6 2.7
v 2.9 0.8 3.4
v 2.9 0.8 2.7
v 2.9 0.9 3.5
v 2.9 0.9 3.4
v 2.9 0.9 3.3
v 2.9 0.9 2.8
v 2.9 0.9 2.7
v 2.9 1 3.4
v 2.9 1 3.3
v 2.9 1 3.2
v 2.9 1 2.8
v 2.9 1.1 3.5
v 2.9 1.1 3.4
v 2.9 1.1 3.3
v 2.9 1.1 3.2
v 2.9 1.4 3.5
v 2.9 1.4 3.4
v 2.9 1.4 3.3
v 2.9 1.4 2.8
v 2.9 1.4 2.7
v 2.9 1.5 3.4
v 2.9 1.5 2.8
v 2.9 1.6 3.2
v 2.9 1.6 3.1
v 2.9 1.7 3.2
v 2.9 1.7 3.1
v 2.9 1.8 3.2
v 2.9 1.8 3.1
v 2.9 1.9 3.2
v 2.9 1.9 3.1
v 3 1 3.2
v 3 1 2.8
v 3 1.1 3.3
v 3 1.1 3.2
v 3 1.1 2.9
v 3 1.3 3.2
v 3 1.3 2.9
v 3 1.4 3.3
v 3 1.4 2.8
v 3 1.7 3.2
v 3 1.7 3.1
v 3 1.8 3.2
v 3 1.8 3.1
v 1.9 1.3 3.6
v 1.9 1.4 3.6
v 2 1.2 3.6
v 2 1.3 3.6
v 2 1.4 3.6
v 2 1.5 3.6
v 2.1 1.3 3.6
v 2.1 1.4 3.6
v 2.6 1.3 3.6
v 2.6 1.4 3.6
v 2.7 1.2 3.6
v 2.7 1.3 3.6
v 2.7 1.4 3.6
v 2.7 1.5 3.6
v 2.8 1.3 3.6
v 2.8 1.4 3.6
v 1.8 0.9 3.5
v 1.8 1.1 3.5
v 1.8 1.4 3.5
v 1.9 0.8 3.5
v 1.9 0.9 3.5
v 1.9 1.1 3.5
v 1.9 1.3 3.5
v 1.9 1.4 3.5
v 1.9 1.5 3.5
v 2 0.7 3.5
v 2 0.8 3.5
v 2 0.9 3.5
v 2 1 3.5
v 2 1.2 3.5
v 2 1.3 3.5
v 2 1.4 3.5
v 2 1.5 3.5
v 2 1.6 3.5
v 2.1 0.8 3.5
v 2.1 1 3.5
v 2.2 1 3.5
v 2.2 1.1 3.5
v 2.3 0.9 3.5
v 2.3 1 3.5
v 2.3 1.1 3.5
v 2.3 1.2 3.5
v 2.4 0.9 3.5
v 2.4 1 3.5
v 2.4 1.1 3.5
v 2.4 1.2 3.5
v 2.5 1 3.5
v 2.5 1.1 3.5
v 2.6 0.8 3.5
v 2.6 1 3.5
v 2.7 0.7 3.5
v 2.7 0.8 3.5
v 2.7 0.9 3.5
v 2.7 1 3.5
v 2.7 1.2 3.5
v 2.7 1.3 3.5
v 2.7 1.4 3.5
v 2.7 1.5 3.5
v 2.7 1.6 3.5
v 2.8 0.8 3.5
v 2.8 0.9 3.5
v 2.8 1.1 3.5
v 2.8 1.3 3.5
v 2.8 1.4 3.5
v 2.8 1.5 3.5
v 2.9 0.9 3.5
v 2.9 1.1 3.5
v 2.9 1.4 3.5
v 1.8 0.8 3.4
v 1.8 0.9 3.4
v 1.8 1.4 3.4
v 1.8 1.5 3.4
v 1.9 0.7 3.4
v 1.9 0.8 3.4
v 1.9 0.9 3.4
v 1.9 1.4 3.4
v 1.9 1.5 3.4
v 1.9 1.6 3.4
v 2 0.7 3.4
v 2 0.8 3.4
v 2 1.5 3.4
v 2 1.6 3.4
v 2.2 1.6 3.4
v 2.2 1.7 3.4
v 2.5 1.6 3.4
v 2.5 1.7 3.4
v 2.7 0.7 3.4
v 2.7 0.8 3.4
v 2.7 1.5 3.4
v 2.7 1.6 3.4
v 2.8 0.7 3.4
v 2.8 0.8 3.4
v 2.8 0.9 3.4
v 2.8 1.4 3.4
v 2.8 1.5 3.4
v 2.8 1.6 3.4
v 2.9 0.8 3.4
v 2.9 0.9 3.4
v 2.9 1.4 3.4
v 2.9 1.5 3.4
v 1.7 1.1 3.3
v 1.7 1.4 3.3
v 1.8 1.1 3.3
v 1.8 1.4 3.3
v 2 0.1 3.3
v 2 0.2 3.3
v 2 0.5 3.3
v 2 0.6 3.3
v 2 0.7 3.3
v 2.1 1.6 3.3
v 2.1 1.7 3.3
v 2.2 0.1 3.3
v 2.2 0.2 3.3
v 2.2 1.6 3.3
v 2.2 1.7 3.3
v 2.5 0.1 3.3
v 2.5 0.2 3.3
v 2.5 1.6 3.3
v 2.5 1.7 3.3
v 2.6 1.6 3.3
v 2.6 1.7 3.3
v 2.7 0.1 3.3
v 2.7 0.2 3.3
v 2.7 0.5 3.3
v 2.7 0.6 3.3
v 2.7 0.7 3.3
v 2.9 1.1 3.3
v 2.9 1.4 3.3
v 3 1.1 3.3
v 3 1.4 3.3
v 1.7 1 3.2
v 1.7 1.1 3.2
v 1.7 1.7 3.2
v 1.7 1.8 3.2
v 1.8 1 3.2
v 1.8 1.1 3.2
v 1.8 1.6 3.2
v 1.8 1.7 3.2
v 1.8 1.8 3.2
v 1.8 1.9 3.2
v 1.9 0.4 3.2
v 1.9 0.5 3.2
v 1.9 0.7 3.2
v 1.9 1.6 3.2
v 1.9 1.7 3.2
v 1.9 1.8 3.2
v 2 0.2 3.2
v 2 0.3 3.2
v 2 0.4 3.2
v 2 0.5 3.2
v 2 0.6 3.2
v 2 0.7 3.2
v 2 1.7 3.2
v 2 1.8 3.2
v 2.1 1.7 3.2
v 2.1 1.8 3.2
v 2.1 1.9 3.2
v 2.2 0.2 3.2
v 2.2 0.3 3.2
v 2.2 0.4 3.2
v 2.2 1.7 3.2
v 2.2 1.8 3.2
v 2.5 0.2 3.2
v 2.5 0.3 3.2
v 2.5 0.4 3.2
v 2.5 1.7 3.2
v 2.5 1.8 3.2
v 2.6 1.7 3.2
v 2.6 1.8 3.2
v 2.6 1.9 3.2
v 2.7 0.2 3.2
v 2.7 0.3 3.2
v 2.7 0.4 3.2
v 2.7 0.5 3.2
v 2.7 0.6 3.2
v 2.7 0.7 3.2
v 2.7 1.7 3.2
v 2.7 1.8 3.2
v 2.8 0.4 3.2
v 2.8 0.5 3.2
v 2.8 0.7 3.2
v 2.8 1.6 3.2
v 2.8 1.7 3.2
v 2.8 1.8 3.2
v 2.9 1 3.2
v 2.9 1.1 3.2
v 2.9 1.6 3.2
v 2.9 1.7 3.2
v 2.9 1.8 3.2
v 2.9 1.9 3.2
v 3 1 3.2
v 3 1.1 3.2
v 3 1.7 3.2
v 3 1.8 3.2
v 2.3 0.7 3.1
v 2.3 0.8 3.1
v 2.4 0.7 3.1
v 2.4 0.8 3.1
v 2.3 0.6 3
v 2.3 0.7 3
v 2.4 0.6 3
v 2.4 0.7 3
v 2.3 0.6 3.2
v 2.3 0.7 3.2
v 2.3 0.8 3.2
v 2.4 0.6 3.2
v 2.4 0.7 3.2
v 2.4 0.8 3.2
v 1.7 1.7 3.1
v 1.7 1.8 3.1
v 1.8 1.6 3.1
v 1.8 1.7 3.1
v 1.8 1.8 3.1
v 1.8 1.9 3.1
v 1.9 1.6 3.1
v 1.9 1.7 3.1
v 1.9 1.8 3.1
v 2 1.7 3.1
v 2 1.8 3.1
v 2.1 1.7 3.1
v 2.1 1.8 3.1
v 2.1 1.9 3.1
v 2.2 1.7 3.1
v 2.2 1.8 3.1
v 2.5 1.7 3.1
v 2.5 1.8 3.1
v 2.6 1.7 3.1
v 2.6 1.8 3.1
v 2.6 1.9 3.1
v 2.7 0.7 3.1
v 2.7 0.8 3.1
v 2.7 1.7 3.1
v 2.7 1.8 3.1
v 2.8 0.7 3.1
v 2.8 0.8 3.1
v 2.8 1.6 3.1
v 2.8 1.7 3.1
v 2.8 1.8 3.1
v 2.9 1.6 3.1
v 2.9 1.7 3.1
v 2.9 1.8 3.1
v 2.9 1.9 3.1
v 3 1.7 3.1
v 3 1.8 3.1
v 1.9 0.4 3
v 1.9 0.5 3
v 1.9 0.7 3
v 2 0.1 3
v 2 0.3 3
v 2 0.4 3
v 2 0.5 3
v 2 0.6 3
v 2 0.7 3
v 2.1 1.6 3
v 2.1 1.7 3
v 2.2 0.1 3
v 2.2 0.3 3
v 2.2 0.4 3
v 2.2 1.6 3
v 2.2 1.7 3
v 2.5 0.1 3
v 2.5 0.3 3
v 2.5 0.4 3
v 2.5 1.6 3
v 2.5 1.7 3
v 2.6 1.6 3
v 2.6 1.7 3
v 2.7 0.1 3
v 2.7 0.3 3
v 2.7 0.4 3
v 2.7 0.5 3
v 2.7 0.6 3
v 2.7 0.7 3
v 2.8 0.4 3
v 2.8 0.5 3
v 2.8 0.7 3
v 2 0.5 2.9
v 2 0.6 2.9
v 2 0.7 2.9
v 2.2 1.6 2.9
v 2.2 1.7 2.9
v 2.5 1.6 2.9
v 2.5 1.7 2.9
v 2.7 0.5 2.9
v 2.7 0.6 2.9
v 2.7 0.7 2.9
v 1.7 1 2.8
v 1.7 1.4 2.8
v 1.8 1 2.8
v 1.8 1.4 2.8
v 1.8 1.5 2.8
v 1.9 0.7 2.8
v 1.9 0.8 2.8
v 1.9 1.4 2.8
v 1.9 1.5 2.8
v 2 0.7 2.8
v 2 0.8 2.8
v 2.6 0.7 2.8
v 2.6 0.8 2.8
v 2.7 0.7 2.8
v 2.7 0.8 2.8
v 2.8 1.4 2.8
v 2.8 1.5 2.8
v 2.9 1 2.8
v 2.9 1.4 2.8
v 2.9 1.5 2.8
v 3 1 2.8
v 3 1.4 2.8
v 1.8 0.8 2.7
v 1.8 0.9 2.7
v 1.8 1.4 2.7
v 1.9 1.4 2.7
v 1.9 1.6 2.7
v 2 0.7 2.7
v 2 0.8 2.7
v 2 0.9 2.7
v 2 1.3 2.7
v 2.1 1.3 2.7
v 2.1 1.4 2.7
v 2.6 0.7 2.7
v 2.6 0.8 2.7
v 2.6 1.3 2.7
v 2.6 1.4 2.7
v 2.7 0.8 2.7
v 2.7 0.9 2.7
v 2.7 1.3 2.7
v 2.8 1.4 2.7
v 2.8 1.6 2.7
v 2.9 0.8 2.7
v 2.9 0.9 2.7
v 2.9 1.4 2.7
v 2 0.9 2.6
v 2 1.3 2.6
v 2.1 1.3 2.6
v 2.1 1.4 2.6
v 2.6 1.3 2.6
v 2.6 1.4 2.6
v 2.7 0.9 2.6
v 2.7 1.3 2.6
v 2 0.1 3.3
v 2.2 0.1 3.3
v 2.5 0.1 3.3
v 2.7 0.1 3.3
v 2 0.1 3
v 2.2 0.1 3
v 2.5 0.1 3
v 2.7 0.1 3
v 1.9 0.4 3.2
v 2 0.4 3.2
v 2.2 0.4 3.2
v 2.5 0.4 3.2
v 2.7 0.4 3.2
v 2.8 0.4 3.2
v 1.9 0.4 3
v 2 0.4 3
v 2.2 0.4 3
v 2.5 0.4 3
v 2.7 0.4 3
v 2.8 0.4 3
v 2 0.5 3.3
v 2.7 0.5 3.3
v 2 0.5 3.2
v 2.7 0.5 3.2
v 2 0.5 3
v 2.7 0.5 3
v 2 0.5 2.9
v 2.7 0.5 2.9
v 2 0.7 3.5
v 2.7 0.7 3.5
v 1.9 0.7 3.4
v 2 0.7 3.4
v 2.7 0.7 3.4
v 2.8 0.7 3.4
v 2 0.7 3.3
v 2.7 0.7 3.3
v 1.9 0.7 3.2
v 2 0.7 3.2
v 2.7 0.7 3.2
v 2.8 0.7 3.2
v 2.3 0.7 3.1
v 2.4 0.7 3.1
v 1.9 0.7 3
v 2 0.7 3
v 2.3 0.7 3
v 2.4 0.7 3
v 2 0.7 2.9
v 2.7 0.7 2.9
v 1.9 0.7 2.8
v 2 0.7 2.8
v 2.6 0.7 2.8
v 2.7 0.7 2.8
v 2 0.7 2.7
v 2.6 0.7 2.7
v 1.9 0.8 3.5
v 2 0.8 3.5
v 2.7 0.8 3.5
v 2.8 0.8 3.5
v 1.8 0.8 3.4
v 1.9 0.8 3.4
v 2 0.8 3.4
v 2.7 0.8 3.4
v 2.8 0.8 3.4
v 2.9 0.8 3.4
v 2.3 0.8 3.2
v 2.4 0.8 3.2
v 2.3 0.8 3.1
v 2.4 0.8 3.1
v 2.7 0.8 3.1
v 2.8 0.8 3.1
v 1.9 0.8 2.8
v 2 0.8 2.8
v 2.6 0.8 2.8
v 2.7 0.8 2.8
v 1.8 0.8 2.7
v 2 0.8 2.7
v 2.6 0.8 2.7
v 2.7 0.8 2.7
v 2.9 0.8 2.7
v 1.8 0.9 3.5
v 1.9 0.9 3.5
v 2.8 0.9 3.5
v 2.9 0.9 3.5
v 1.8 0.9 3.4
v 1.9 0.9 3.4
v 2.8 0.9 3.4
v 2.9 0.9 3.4
v 2 0.9 2.7
v 2.7 0.9 2.7
v 2 0.9 2.6
v 2.7 0.9 2.6
v 1.7 1 3.2
v 1.8 1 3.2
v 2.9 1 3.2
v 3 1 3.2
v 1.7 1 2.8
v 1.8 1 2.8
v 2.9 1 2.8
v 3 1 2.8
v 1.7 1.1 3.3
v 1.8 1.1 3.3
v 2.9 1.1 3.3
v 3 1.1 3.3
v 1.7 1.1 3.2
v 1.8 1.1 3.2
v 2.9 1.1 3.2
v 3 1.1 3.2
v 2 1.2 3.6
v 2.7 1.2 3.6
v 2 1.2 3.5
v 2.3 1.2 3.5
v 2.4 1.2 3.5
v 2.7 1.2 3.5
v 1.9 1.3 3.6
v 2 1.3 3.6
v 2.7 1.3 3.6
v 2.8 1.3 3.6
v 1.9 1.3 3.5
v 2 1.3 3.5
v 2.7 1.3 3.5
v 2.8 1.3 3.5
v 1.8 1.6 3.2
v 1.9 1.6 3.2
v 2.8 1.6 3.2
v 2.9 1.6 3.2
v 1.8 1.6 3.1
v 1.9 1.6 3.1
v 2.8 1.6 3.1
v 2.9 1.6 3.1
v 1.7 1.7 3.2
v 1.8 1.7 3.2
v 1.9 1.7 3.2
v 2 1.7 3.2
v 2.7 1.7 3.2
v 2.8 1.7 3.2
v 2.9 1.7 3.2
v 3 1.7 3.2
v 1.7 1.7 3.1
v 1.8 1.7 3.1
v 1.9 1.7 3.1
v 2 1.7 3.1
v 2.7 1.7 3.1
v 2.8 1.7 3.1
v 2.9 1.7 3.1
v 3 1.7 3.1
v 2 1.8 3.2
v 2.1 1.8 3.2
v 2.6 1.8 3.2
v 2.7 1.8 3.2
v 2 1.8 3.1
v 2.1 1.8 3.1
v 2.6 1.8 3.1
v 2.7 1.8 3.1
v 2 0.2 3.3
v 2.2 0.2 3.3
v 2.5 0.2 3.3
v 2.7 0.2 3.3
v 2 0.2 3.2
v 2.2 0.2 3.2
v 2.5 0.2 3.2
v 2.7 0.2 3.2
v 2.3 0.6 3.2
v 2.4 0.6 3.2
v 2.3 0.6 3.1
v 2.3 0.6 3
v 2.4 0.6 3
v 2.7 0.7 3.1
v 2.8 0.7 3.1
v 2.7 0.7 3
v 2.8 0.7 3
v 2 1.3 2.7
v 2.1 1.3 2.7
v 2.6 1.3 2.7
v 2.7 1.3 2.7
v 2 1.3 2.6
v 2.1 1.3 2.6
v 2.6 1.3 2.6
v 2.7 1.3 2.6
v 1.9 1.4 3.6
v 2 1.4 3.6
v 2.7 1.4 3.6
v 2.8 1.4 3.6
v 1.8 1.4 3.5
v 1.9 1.4 3.5
v 2 1.4 3.5
v 2.7 1.4 3.5
v 2.8 1.4 3.5
v 2.9 1.4 3.5
v 1.8 1.4 3.4
v 1.9 1.4 3.4
v 2.8 1.4 3.4
v 2.9 1.4 3.4
v 1.7 1.4 3.3
v 1.8 1.4 3.3
v 2.9 1.4 3.3
v 3 1.4 3.3
v 1.7 1.4 2.8
v 1.8 1.4 2.8
v 1.9 1.4 2.8
v 2.8 1.4 2.8
v 2.9 1.4 2.8
v 3 1.4 2.8
v 1.8 1.4 2.7
v 1.9 1.4 2.7
v 2.1 1.4 2.7
v 2.6 1.4 2.7
v 2.8 1.4 2.7
v 2.9 1.4 2.7
v 2.1 1.4 2.6
v 2.6 1.4 2.6
v 2 1.5 3.6
v 2.7 1.5 3.6
v 1.9 1.5 3.5
v 2 1.5 3.5
v 2.7 1.5 3.5
v 2.8 1.5 3.5
v 1.8 1.5 3.4
v 1.9 1.5 3.4
v 2 1.5 3.4
v 2.7 1.5 3.4
v 2.8 1.5 3.4
v 2.9 1.5 3.4
v 1.8 1.5 2.8
v 1.9 1.5 2.8
v 2.8 1.5 2.8
v 2.9 1.5 2.8
v 2 1.6 3.5
v 2.7 1.6 3.5
v 1.9 1.6 3.4
v 2 1.6 3.4
v 2.2 1.6 3.4
v 2.5 1.6 3.4
v 2.7 1.6 3.4
v 2.8 1.6 3.4
v 2.1 1.6 3.3
v 2.2 1.6 3.3
v 2.5 1.6 3.3
v 2.6 1.6 3.3
v 1.9 1.6 3.2
v 2.1 1.6 3.2
v 2.6 1.6 3.2
v 2.8 1.6 3.2
v 1.9 1.6 3.1
v 2.1 1.6 3.1
v 2.6 1.6 3.1
v 2.8 1.6 3.1
v 2.1 1.6 3
v 2.2 1.6 3
v 2.5 1.6 3
v 2.6 1.6 3
v 2.2 1.6 2.9
v 2.5 1.6 2.9
v 1.9 1.6 2.8
v 2.8 1.6 2.8
v 1.9 1.6 2.7
v 2.8 1.6 2.7
v 2.2 1.7 3.4
v 2.5 1.7 3.4
v 2.1 1.7 3.3
v 2.2 1.7 3.3
v 2.5 1.7 3.3
v 2.6 1.7 3.3
v 2.1 1.7 3.2
v 2.2 1.7 3.2
v 2.5 1.7 3.2
v 2.6 1.7 3.2
v 2.1 1.7 3.1
v 2.2 1.7 3.1
v 2.5 1.7 3.1
v 2.6 1.7 3.1
v 2.1 1.7 3
v 2.2 1.7 3
v 2.5 1.7 3
v 2.6 1.7 3
v 2.2 1.7 2.9
v 2.5 1.7 2.9
v 1.7 1.8 3.2
v 1.8 1.8 3.2
v 2.1 1.8 3.2
v 2.2 1.8 3.2
v 2.5 1.8 3.2
v 2.6 1.8 3.2
v 2.9 1.8 3.2
v 3 1.8 3.2
v 1.7 1.8 3.1
v 1.8 1.8 3.1
v 2.1 1.8 3.1
v 2.2 1.8 3.1
v 2.5 1.8 3.1
v 2.6 1.8 3.1
v 2.9 1.8 3.1
v 3 1.8 3.1
v 1.8 1.9 3.2
v 2.1 1.9 3.2
v 2.6 1.9 3.2
v 2.9 1.9 3.2
v 1.8 1.9 3.1
v 2.1 1.9 3.1
v 2.6 1.9 3.1
v 2.9 1.9 3.1

# faces
f 4/9/1 2/9/1 1/9/1
f 5/9/1 2/9/1 4/9/1
f 6/9/1 4/9/1 3/9/1
f 6/12/1 5/12/1 4/12/1
f 7/9/1 2/9/1 5/9/1
f 7/12/1 5/12/1 6/12/1
f 8/9/1 6/9/1 3/9/1
f 8/9/1 7/9/1 6/9/1
f 9/9/1 2/9/1 7/9/1
f 9/9/1 7/9/1 8/9/1
f 12/3/1 11/3/1 10/3/1
f 13/3/1 11/3/1 12/3/1
f 17/3/1 15/3/1 14/3/1
f 18/3/1 15/3/1 17/3/1
f 19/3/1 15/3/1 18/3/1
f 20/3/1 15/3/1 19/3/1
f 21/3/1 17/3/1 16/3/1
f 21/3/1 18/3/1 17/3/1
f 22/12/1 19/12/1 18/12/1
f 22/3/1 18/3/1 21/3/1
f 23/12/1 19/12/1 22/12/1
f 24/9/1 20/9/1 19/9/1
f 24/12/1 19/12/1 23/12/1
f 25/3/1 21/3/1 16/3/1
f 26/12/1 23/12/1 22/12/1
f 26/3/1 21/3/1 25/3/1
f 26/12/1 22/12/1 21/12/1
f 27/12/1 23/12/1 26/12/1
f 28/12/1 23/12/1 27/12/1
f 29/12/1 26/12/1 25/12/1
f 29/12/1 27/12/1 26/12/1
f 30/12/1 27/12/1 29/12/1
f 31/12/1 27/12/1 30/12/1
f 32/9/1 20/9/1 24/9/1
f 33/9/1 20/9/1 32/9/1
f 34/9/1 31/9/1 30/9/1
f 34/9/1 32/9/1 31/9/1
f 35/9/1 32/9/1 34/9/1
f 38/3/1 37/3/1 36/3/1
f 39/3/1 37/3/1 38/3/1
f 42/3/1 41/3/1 40/3/1
f 43/3/1 41/3/1 42/3/1
f 46/3/1 45/3/1 44/3/1
f 47/3/1 45/3/1 46/3/1
f 49/4/1 47/4/1 46/4/1
f 50/4/1 47/4/1 49/4/1
f 53/3/1 50/3/1 49/3/1
f 53/3/1 51/3/1 50/3/1
f 53/3/1 49/3/1 48/3/1
f 54/3/1 51/3/1 53/3/1
f 55/7/1 53/7/1 52/7/1
f 56/7/1 53/7/1 55/7/1
f 59/12/1 58/12/1 57/12/1
f 60/12/1 58/12/1 59/12/1
f 64/9/1 61/9/1 60/9/1
f 65/9/1 61/9/1 64/9/1
f 66/9/1 63/9/1 62/9/1
f 67/12/1 66/12/1 65/12/1
f 68/12/1 66/12/1 67/12/1
f 69/12/1 66/12/1 68/12/1
f 70/9/1 63/9/1 66/9/1
f 70/12/1 66/12/1 69/12/1
f 71/9/1 63/9/1 70/9/1
f 74/4/1 73/4/1 72/4/1
f 75/4/1 73/4/1 74/4/1
f 76/4/1 73/4/1 75/4/1
f 77/4/1 73/4/1 76/4/1
f 78/3/1 77/3/1 76/3/1
f 79/3/1 77/3/1 78/3/1
f 84/6/1 81/6/1 80/6/1
f 85/6/1 81/6/1 84/6/1
f 86/3/1 83/3/1 82/3/1
f 87/3/1 83/3/1 86/3/1
f 90/4/1 85/4/1 84/4/1
f 91/4/1 85/4/1 90/4/1
f 92/4/1 87/4/1 86/4/1
f 93/4/1 87/4/1 92/4/1
f 96/3/1 89/3/1 88/3/1
f 97/3/1 89/3/1 96/3/1
f 98/3/1 95/3/1 94/3/1
f 99/3/1 95/3/1 98/3/1
f 104/9/1 103/9/1 102/9/1
f 105/9/1 103/9/1 104/9/1
f 106/12/1 101/12/1 100/12/1
f 107/12/1 101/12/1 106/12/1
f 110/12/1 109/12/1 108/12/1
f 111/12/1 109/12/1 110/12/1
f 113/9/1 112/9/1 111/9/1
f 114/9/1 112/9/1 113/9/1
f 117/12/1 116/12/1 115/12/1
f 118/12/1 116/12/1 117/12/1
f 123/9/1 120/9/1 119/9/1
f 124/3/1 121/3/1 120/3/1
f 124/9/1 120/9/1 123/9/1
f 125/9/1 122/9/1 121/9/1
f 125/3/1 121/3/1 124/3/1
f 126/9/1 122/9/1 125/9/1
f 127/3/1 125/3/1 124/3/1
f 128/3/1 125/3/1 127/3/1
f 133/9/1 130/9/1 129/9/1
f 134/9/1 130/9/1 133/9/1
f 135/9/1 132/9/1 131/9/1
f 136/9/1 132/9/1 135/9/1
f 139/4/1 138/4/1 137/4/1
f 140/4/1 138/4/1 139/4/1
f 141/4/1 138/4/1 140/4/1
f 142/3/1 140/3/1 139/3/1
f 143/3/1 140/3/1 142/3/1
f 146/4/1 145/4/1 144/4/1
f 147/4/1 145/4/1 146/4/1
f 148/4/1 145/4/1 147/4/1
f 149/4/1 145/4/1 148/4/1
f 150/3/1 149/3/1 148/3/1
f 151/3/1 149/3/1 150/3/1
f 154/3/1 153/3/1 152/3/1
f 155/3/1 153/3/1 154/3/1
f 158/3/1 157/3/1 156/3/1
f 159/3/1 157/3/1 158/3/1
f 162/3/1 161/3/1 160/3/1
f 163/3/1 161/3/1 162/3/1
f 166/3/1 165/3/1 164/3/1
f 167/3/1 165/3/1 166/3/1
f 168/3/2 169/3/2 170/3/2
f 170/3/2 169/3/2 171/3/2
f 172/3/2 173/3/2 174/3/2
f 174/3/2 173/3/2 175/3/2
f 176/3/2 177/3/2 178/3/2
f 178/3/2 177/3/2 179/3/2
f 180/4/2 181/4/2 182/4/2
f 182/4/2 181/4/2 183/4/2
f 183/4/2 181/4/2 184/4/2
f 184/4/2 181/4/2 185/4/2
f 184/3/2 185/3/2 186/3/2
f 186/3/2 185/3/2 187/3/2
f 188/3/2 189/3/2 190/3/2
f 190/3/2 189/3/2 191/3/2
f 192/8/2 193/8/2 195/8/2
f 193/4/2 194/4/2 196/4/2
f 195/8/2 193/8/2 196/8/2
f 196/4/2 194/4/2 197/4/2
f 195/3/2 196/3/2 198/3/2
f 198/3/2 196/3/2 199/3/2
f 200/9/2 201/9/2 204/9/2
f 204/9/2 201/9/2 205/9/2
f 202/9/2 203/9/2 206/9/2
f 206/9/2 203/9/2 207/9/2
f 208/3/2 209/3/2 210/3/2
f 210/3/2 209/3/2 211/3/2
f 212/12/2 213/12/2 214/12/2
f 214/12/2 213/12/2 215/12/2
f 216/9/2 217/9/2 220/9/2
f 217/3/2 218/3/2 221/3/2
f 220/9/2 217/9/2 221/9/2
f 218/9/2 219/9/2 222/9/2
f 221/3/2 218/3/2 222/3/2
f 222/9/2 219/9/2 223/9/2
f 221/3/2 222/3/2 224/3/2
f 224/3/2 222/3/2 225/3/2
f 226/4/2 227/4/2 228/4/2
f 228/4/2 227/4/2 229/4/2
f 229/4/2 227/4/2 230/4/2
f 230/4/2 227/4/2 231/4/2
f 230/3/2 231/3/2 232/3/2
f 232/3/2 231/3/2 233/3/2
f 234/6/2 235/6/2 238/6/2
f 238/6/2 235/6/2 239/6/2
f 236/3/2 237/3/2 240/3/2
f 240/3/2 237/3/2 241/3/2
f 238/4/2 239/4/2 244/4/2
f 244/4/2 239/4/2 245/4/2
f 240/4/2 241/4/2 247/4/2
f 247/4/2 241/4/2 248/4/2
f 242/3/2 243/3/2 250/3/2
f 250/3/2 243/3/2 251/3/2
f 248/3/2 249/3/2 252/3/2
f 246/3/2 247/3/2 252/3/2
f 247/3/2 248/3/2 252/3/2
f 252/3/2 249/3/2 253/3/2
f 256/9/2 257/9/2 258/9/2
f 258/9/2 257/9/2 259/9/2
f 254/12/2 255/12/2 260/12/2
f 260/12/2 255/12/2 261/12/2
f 262/12/2 263/12/2 264/12/2
f 264/12/2 263/12/2 265/12/2
f 265/9/2 266/9/2 267/9/2
f 267/9/2 266/9/2 268/9/2
f 269/3/2 270/3/2 271/3/2
f 271/3/2 270/3/2 272/3/2
f 271/4/2 272/4/2 274/4/2
f 274/4/2 272/4/2 275/4/2
f 275/4/2 272/4/2 276/4/2
f 273/3/2 274/3/2 278/3/2
f 274/3/2 275/3/2 278/3/2
f 278/3/2 275/3/2 279/3/2
f 277/7/2 278/7/2 280/7/2
f 280/7/2 278/7/2 281/7/2
f 282/12/2 283/12/2 284/12/2
f 284/12/2 283/12/2 285/12/2
f 285/9/2 286/9/2 289/9/2
f 289/9/2 286/9/2 290/9/2
f 287/9/2 288/9/2 291/9/2
f 290/12/2 291/12/2 292/12/2
f 292/12/2 291/12/2 293/12/2
f 293/12/2 291/12/2 294/12/2
f 291/9/2 288/9/2 295/9/2
f 294/12/2 291/12/2 295/12/2
f 295/9/2 288/9/2 296/9/2
f 297/3/2 298/3/2 300/3/2
f 300/3/2 298/3/2 301/3/2
f 301/3/2 298/3/2 302/3/2
f 302/3/2 298/3/2 303/3/2
f 299/3/2 300/3/2 304/3/2
f 300/3/2 301/3/2 304/3/2
f 301/12/2 302/12/2 305/12/2
f 304/3/2 301/3/2 305/3/2
f 305/12/2 302/12/2 306/12/2
f 302/9/2 303/9/2 307/9/2
f 306/12/2 302/12/2 307/12/2
f 299/3/2 304/3/2 308/3/2
f 305/12/2 306/12/2 309/12/2
f 308/3/2 304/3/2 309/3/2
f 304/12/2 305/12/2 309/12/2
f 309/12/2 306/12/2 310/12/2
f 310/12/2 306/12/2 311/12/2
f 308/12/2 309/12/2 312/12/2
f 309/12/2 310/12/2 312/12/2
f 312/12/2 310/12/2 313/12/2
f 313/12/2 310/12/2 314/12/2
f 307/9/2 303/9/2 315/9/2
f 315/9/2 303/9/2 316/9/2
f 313/9/2 314/9/2 317/9/2
f 314/9/2 315/9/2 317/9/2
f 317/9/2 315/9/2 318/9/2
f 319/3/2 320/3/2 321/3/2
f 321/3/2 320/3/2 322/3/2
f 323/3/2 324/3/2 325/3/2
f 325/3/2 324/3/2 326/3/2
f 327/9/2 328/9/2 330/9/2
f 330/9/2 328/9/2 331/9/2
f 329/9/2 330/9/2 332/9/2
f 330/12/2 331/12/2 332/12/2
f 331/9/2 328/9/2 333/9/2
f 332/12/2 331/12/2 333/12/2
f 329/9/2 332/9/2 334/9/2
f 332/9/2 333/9/2 334/9/2
f 333/9/2 328/9/2 335/9/2
f 334/9/2 333/9/2 335/9/2
f 336/3/2 337/3/2 338/3/2
f 338/3/2 337/3/2 339/3/2
f 343/12/3 341/12/3 340/12/3
f 344/12/3 341/12/3 343/12/3
f 346/9/3 343/9/3 342/9/3
f 346/9/3 344/9/3 343/9/3
f 347/12/3 345/12/3 344/12/3
f 347/9/3 344/9/3 346/9/3
f 348/9/3 346/9/3 342/9/3
f 348/12/3 347/12/3 346/12/3
f 349/12/3 345/12/3 347/12/3
f 349/12/3 347/12/3 348/12/3
f 350/9/3 348/9/3 342/9/3
f 350/9/3 349/9/3 348/9/3
f 351/9/3 349/9/3 350/9/3
f 352/12/3 345/12/3 349/12/3
f 352/9/3 349/9/3 351/9/3
f 353/12/3 345/12/3 352/12/3
f 354/12/3 352/12/3 351/12/3
f 355/12/3 352/12/3 354/12/3
f 360/3/3 357/3/3 356/3/3
f 361/12/3 358/12/3 357/12/3
f 361/3/3 357/3/3 360/3/3
f 362/12/3 358/12/3 361/12/3
f 363/12/3 358/12/3 362/12/3
f 366/7/3 360/7/3 359/7/3
f 367/3/3 361/3/3 360/3/3
f 367/3/3 362/3/3 361/3/3
f 367/7/3 360/7/3 366/7/3
f 368/3/3 362/3/3 367/3/3
f 369/3/3 362/3/3 368/3/3
f 370/3/3 362/3/3 369/3/3
f 371/9/3 364/9/3 363/9/3
f 372/9/3 364/9/3 371/9/3
f 374/3/3 366/3/3 365/3/3
f 374/5/3 367/5/3 366/5/3
f 374/5/3 368/5/3 367/5/3
f 375/3/3 369/3/3 368/3/3
f 375/5/3 368/5/3 374/5/3
f 376/3/3 375/3/3 374/3/3
f 376/3/3 369/3/3 375/3/3
f 377/3/3 369/3/3 376/3/3
f 378/3/3 376/3/3 374/3/3
f 379/2/3 377/2/3 376/2/3
f 379/3/3 376/3/3 378/3/3
f 380/3/3 369/3/3 377/3/3
f 380/2/3 377/2/3 379/2/3
f 381/3/3 369/3/3 380/3/3
f 382/2/3 379/2/3 378/2/3
f 382/3/3 378/3/3 374/3/3
f 383/1/3 380/1/3 379/1/3
f 383/2/3 379/2/3 382/2/3
f 384/2/3 381/2/3 380/2/3
f 384/1/3 380/1/3 383/1/3
f 385/2/3 381/2/3 384/2/3
f 386/3/3 383/3/3 382/3/3
f 386/2/3 384/2/3 383/2/3
f 387/3/3 385/3/3 384/3/3
f 387/2/3 384/2/3 386/2/3
f 388/3/3 374/3/3 365/3/3
f 388/3/3 382/3/3 374/3/3
f 388/3/3 387/3/3 386/3/3
f 388/3/3 386/3/3 382/3/3
f 389/3/3 387/3/3 388/3/3
f 390/3/3 388/3/3 365/3/3
f 391/5/3 389/5/3 388/5/3
f 391/3/3 388/3/3 390/3/3
f 392/5/3 389/5/3 391/5/3
f 393/3/3 387/3/3 389/3/3
f 393/5/3 389/5/3 392/5/3
f 394/3/3 385/3/3 387/3/3
f 394/3/3 387/3/3 393/3/3
f 397/9/3 373/9/3 372/9/3
f 398/9/3 373/9/3 397/9/3
f 399/7/3 392/7/3 391/7/3
f 400/3/3 395/3/3 394/3/3
f 400/7/3 392/7/3 399/7/3
f 400/3/3 393/3/3 392/3/3
f 400/3/3 394/3/3 393/3/3
f 401/3/3 395/3/3 400/3/3
f 402/3/3 395/3/3 401/3/3
f 403/9/3 397/9/3 396/9/3
f 404/9/3 397/9/3 403/9/3
f 405/3/3 401/3/3 400/3/3
f 406/12/3 402/12/3 401/12/3
f 406/3/3 401/3/3 405/3/3
f 406/12/3 403/12/3 402/12/3
f 407/12/3 403/12/3 406/12/3
f 413/3/3 409/3/3 408/3/3
f 414/3/3 409/3/3 413/3/3
f 415/9/3 411/9/3 410/9/3
f 416/9/3 411/9/3 415/9/3
f 418/3/3 413/3/3 412/3/3
f 419/3/3 413/3/3 418/3/3
f 420/12/3 417/12/3 416/12/3
f 421/12/3 417/12/3 420/12/3
f 424/9/3 423/9/3 422/9/3
f 425/9/3 423/9/3 424/9/3
f 430/3/3 427/3/3 426/3/3
f 431/3/3 427/3/3 430/3/3
f 434/12/3 429/12/3 428/12/3
f 435/12/3 429/12/3 434/12/3
f 436/3/3 432/3/3 431/3/3
f 437/3/3 432/3/3 436/3/3
f 438/9/3 434/9/3 433/9/3
f 439/9/3 434/9/3 438/9/3
f 442/9/3 441/9/3 440/9/3
f 443/9/3 441/9/3 442/9/3
f 451/4/3 445/4/3 444/4/3
f 452/4/3 445/4/3 451/4/3
f 453/9/3 450/9/3 449/9/3
f 454/9/3 450/9/3 453/9/3
f 459/9/3 458/9/3 457/9/3
f 460/9/3 458/9/3 459/9/3
f 461/4/3 456/4/3 455/4/3
f 462/4/3 456/4/3 461/4/3
f 463/6/3 447/6/3 446/6/3
f 464/4/3 448/4/3 447/4/3
f 464/6/3 447/6/3 463/6/3
f 465/4/3 448/4/3 464/4/3
f 468/9/3 467/9/3 466/9/3
f 469/9/3 467/9/3 468/9/3
f 474/9/3 471/9/3 470/9/3
f 475/9/3 471/9/3 474/9/3
f 477/3/3 473/3/3 472/3/3
f 478/3/3 473/3/3 477/3/3
f 483/3/3 477/3/3 476/3/3
f 484/1/3 478/1/3 477/1/3
f 484/3/3 477/3/3 483/3/3
f 485/3/3 479/3/3 478/3/3
f 485/1/3 478/1/3 484/1/3
f 488/3/3 481/3/3 480/3/3
f 489/4/3 482/4/3 481/4/3
f 489/3/3 481/3/3 488/3/3
f 490/4/3 482/4/3 489/4/3
f 491/4/3 482/4/3 490/4/3
f 492/3/3 485/3/3 484/3/3
f 493/3/3 479/3/3 485/3/3
f 493/3/3 485/3/3 492/3/3
f 495/3/3 479/3/3 493/3/3
f 496/3/3 479/3/3 495/3/3
f 497/4/3 487/4/3 486/4/3
f 498/3/3 488/3/3 487/3/3
f 498/4/3 487/4/3 497/4/3
f 499/4/3 489/4/3 488/4/3
f 499/3/3 488/3/3 498/3/3
f 500/3/3 495/3/3 494/3/3
f 501/3/3 495/3/3 500/3/3
f 504/4/3 489/4/3 499/4/3
f 507/3/3 506/3/3 505/3/3
f 508/3/3 506/3/3 507/3/3
f 510/4/3 503/4/3 502/4/3
f 511/3/3 504/3/3 503/3/3
f 511/4/3 503/4/3 510/4/3
f 512/4/3 489/4/3 504/4/3
f 512/3/3 504/3/3 511/3/3
f 513/4/3 489/4/3 512/4/3
f 517/3/3 509/3/3 508/3/3
f 518/3/3 513/3/3 512/3/3
f 519/4/3 515/4/3 514/4/3
f 519/3/3 513/3/3 518/3/3
f 519/4/3 514/4/3 513/4/3
f 520/4/3 515/4/3 519/4/3
f 522/3/3 517/3/3 516/3/3
f 523/3/3 509/3/3 517/3/3
f 523/3/3 517/3/3 522/3/3
f 526/3/3 522/3/3 521/3/3
f 527/1/3 523/1/3 522/1/3
f 527/3/3 522/3/3 526/3/3
f 528/3/3 509/3/3 523/3/3
f 528/1/3 523/1/3 527/1/3
f 529/3/3 509/3/3 528/3/3
f 530/9/3 525/9/3 524/9/3
f 531/9/3 525/9/3 530/9/3
f 532/3/3 528/3/3 527/3/3
f 533/3/3 528/3/3 532/3/3
f 536/3/3 535/3/3 534/3/3
f 537/3/3 535/3/3 536/3/3
f 540/4/3 539/4/3 538/4/3
f 541/4/3 539/4/3 540/4/3
f 542/4/4 543/4/4 545/4/4
f 543/3/4 544/3/4 546/3/4
f 545/4/4 543/4/4 546/4/4
f 546/3/4 544/3/4 547/3/4
f 548/3/4 549/3/4 551/3/4
f 551/3/4 549/3/4 552/3/4
f 550/3/4 551/3/4 554/3/4
f 551/1/4 552/1/4 555/1/4
f 554/3/4 551/3/4 555/3/4
f 552/3/4 553/3/4 556/3/4
f 555/1/4 552/1/4 556/1/4
f 555/3/4 556/3/4 557/3/4
f 556/3/4 553/3/4 558/3/4
f 557/3/4 556/3/4 558/3/4
f 558/3/4 553/3/4 560/3/4
f 560/3/4 553/3/4 561/3/4
f 559/3/4 560/3/4 562/3/4
f 562/3/4 560/3/4 563/3/4
f 564/3/4 565/3/4 566/3/4
f 566/3/4 565/3/4 567/3/4
f 567/3/4 568/3/4 572/3/4
f 569/3/4 570/3/4 573/3/4
f 573/3/4 570/3/4 574/3/4
f 571/3/4 572/3/4 576/3/4
f 572/3/4 568/3/4 577/3/4
f 576/3/4 572/3/4 577/3/4
f 575/3/4 576/3/4 578/3/4
f 576/1/4 577/1/4 579/1/4
f 578/3/4 576/3/4 579/3/4
f 577/3/4 568/3/4 580/3/4
f 579/1/4 577/1/4 580/1/4
f 580/3/4 568/3/4 581/3/4
f 579/3/4 580/3/4 582/3/4
f 582/3/4 580/3/4 583/3/4
f 584/3/4 585/3/4 589/3/4
f 585/4/4 586/4/4 590/4/4
f 589/3/4 585/3/4 590/3/4
f 590/4/4 586/4/4 591/4/4
f 591/4/4 586/4/4 592/4/4
f 587/4/4 588/4/4 595/4/4
f 588/3/4 589/3/4 596/3/4
f 595/4/4 588/4/4 596/4/4
f 589/4/4 590/4/4 597/4/4
f 596/3/4 589/3/4 597/3/4
f 593/9/4 594/9/4 598/9/4
f 598/9/4 594/9/4 599/9/4
f 597/4/4 590/4/4 602/4/4
f 603/9/4 604/9/4 605/9/4
f 605/9/4 604/9/4 606/9/4
f 600/4/4 601/4/4 607/4/4
f 601/3/4 602/3/4 608/3/4
f 607/4/4 601/4/4 608/4/4
f 602/4/4 590/4/4 609/4/4
f 608/3/4 602/3/4 609/3/4
f 609/4/4 590/4/4 610/4/4
f 609/3/4 610/3/4 613/3/4
f 611/4/4 612/4/4 614/4/4
f 613/3/4 610/3/4 614/3/4
f 610/4/4 611/4/4 614/4/4
f 614/4/4 612/4/4 615/4/4
f 619/9/4 620/9/4 621/9/4
f 621/9/4 620/9/4 622/9/4
f 616/3/4 617/3/4 623/3/4
f 617/4/4 618/4/4 624/4/4
f 623/3/4 617/3/4 624/3/4
f 624/4/4 618/4/4 625/4/4
f 626/9/4 627/9/4 628/9/4
f 628/9/4 627/9/4 629/9/4
f 629/9/4 630/9/4 633/9/4
f 633/9/4 630/9/4 634/9/4
f 631/3/4 632/3/4 635/3/4
f 635/3/4 632/3/4 636/3/4
f 637/3/4 638/3/4 639/3/4
f 639/3/4 638/3/4 640/3/4
f 641/9/4 642/9/4 644/9/4
f 644/9/4 642/9/4 645/9/4
f 643/9/4 644/9/4 646/9/4
f 646/9/4 644/9/4 647/9/4
f 649/9/4 650/9/4 651/9/4
f 648/3/4 649/3/4 654/3/4
f 651/9/4 652/9/4 655/9/4
f 649/9/4 651/9/4 655/9/4
f 654/3/4 649/3/4 655/3/4
f 655/9/4 652/9/4 656/9/4
f 656/9/4 652/9/4 657/9/4
f 657/9/4 652/9/4 658/9/4
f 653/3/4 654/3/4 659/3/4
f 654/9/4 655/9/4 660/9/4
f 659/3/4 654/3/4 660/3/4
f 658/9/4 652/9/4 662/9/4
f 660/9/4 655/9/4 663/9/4
f 663/9/4 655/9/4 664/9/4
f 661/9/4 662/9/4 665/9/4
f 662/9/4 652/9/4 666/9/4
f 664/9/4 665/9/4 666/9/4
f 665/9/4 662/9/4 666/9/4
f 666/9/4 652/9/4 667/9/4
f 663/3/4 664/3/4 668/3/4
f 664/9/4 666/9/4 669/9/4
f 668/3/4 664/3/4 669/3/4
f 669/9/4 666/9/4 670/9/4
f 671/12/4 672/12/4 673/12/4
f 671/12/4 673/12/4 675/12/4
f 673/12/4 674/12/4 675/12/4
f 675/12/4 674/12/4 676/12/4
f 671/12/4 675/12/4 677/12/4
f 677/12/4 675/12/4 678/12/4
f 683/4/5 680/4/5 679/4/5
f 684/4/5 680/4/5 683/4/5
f 685/4/5 682/4/5 681/4/5
f 686/4/5 682/4/5 685/4/5
f 693/3/5 688/3/5 687/3/5
f 694/3/5 688/3/5 693/3/5
f 695/4/5 690/4/5 689/4/5
f 696/4/5 690/4/5 695/4/5
f 697/3/5 692/3/5 691/3/5
f 698/3/5 692/3/5 697/3/5
f 701/6/5 700/6/5 699/6/5
f 702/6/5 700/6/5 701/6/5
f 705/3/5 704/3/5 703/3/5
f 706/3/5 704/3/5 705/3/5
f 710/3/5 708/3/5 707/3/5
f 711/3/5 708/3/5 710/3/5
f 713/3/5 710/3/5 709/3/5
f 713/3/5 712/3/5 711/3/5
f 713/3/5 711/3/5 710/3/5
f 714/3/5 712/3/5 713/3/5
f 715/3/5 713/3/5 709/3/5
f 716/3/5 713/3/5 715/3/5
f 717/3/5 712/3/5 714/3/5
f 718/3/5 712/3/5 717/3/5
f 723/3/5 720/3/5 719/3/5
f 724/3/5 720/3/5 723/3/5
f 725/3/5 722/3/5 721/3/5
f 727/3/5 725/3/5 721/3/5
f 727/3/5 726/3/5 725/3/5
f 728/3/5 726/3/5 727/3/5
f 729/3/5 726/3/5 728/3/5
f 730/3/5 726/3/5 729/3/5
f 731/3/5 729/3/5 728/3/5
f 732/3/5 729/3/5 731/3/5
f 738/7/5 734/7/5 733/7/5
f 739/7/5 734/7/5 738/7/5
f 740/7/5 736/7/5 735/7/5
f 741/7/5 736/7/5 740/7/5
f 745/3/5 744/3/5 743/3/5
f 746/3/5 744/3/5 745/3/5
f 748/3/5 742/3/5 741/3/5
f 749/3/5 738/3/5 737/3/5
f 752/3/5 748/3/5 747/3/5
f 753/3/5 750/3/5 749/3/5
f 753/3/5 749/3/5 737/3/5
f 754/3/5 750/3/5 753/3/5
f 755/9/5 752/9/5 751/9/5
f 756/3/5 748/3/5 752/3/5
f 756/9/5 752/9/5 755/9/5
f 757/3/5 742/3/5 748/3/5
f 757/3/5 748/3/5 756/3/5
f 762/3/5 759/3/5 758/3/5
f 763/3/5 759/3/5 762/3/5
f 764/3/5 761/3/5 760/3/5
f 765/3/5 761/3/5 764/3/5
f 768/12/5 767/12/5 766/12/5
f 769/12/5 767/12/5 768/12/5
f 774/9/5 771/9/5 770/9/5
f 775/9/5 771/9/5 774/9/5
f 776/9/5 773/9/5 772/9/5
f 777/9/5 773/9/5 776/9/5
f 782/9/5 779/9/5 778/9/5
f 783/9/5 779/9/5 782/9/5
f 784/9/5 781/9/5 780/9/5
f 785/9/5 781/9/5 784/9/5
f 788/9/5 787/9/5 786/9/5
f 789/9/5 787/9/5 788/9/5
f 790/9/5 787/9/5 789/9/5
f 791/9/5 787/9/5 790/9/5
f 796/12/5 793/12/5 792/12/5
f 797/12/5 793/12/5 796/12/5
f 798/12/5 795/12/5 794/12/5
f 799/12/5 795/12/5 798/12/5
f 804/3/5 801/3/5 800/3/5
f 805/3/5 801/3/5 804/3/5
f 806/3/5 803/3/5 802/3/5
f 807/3/5 803/3/5 806/3/5
f 816/3/5 809/3/5 808/3/5
f 817/3/5 809/3/5 816/3/5
f 818/3/5 811/3/5 810/3/5
f 819/3/5 811/3/5 818/3/5
f 820/3/5 813/3/5 812/3/5
f 821/3/5 813/3/5 820/3/5
f 822/3/5 815/3/5 814/3/5
f 823/3/5 815/3/5 822/3/5
f 828/3/5 825/3/5 824/3/5
f 829/3/5 825/3/5 828/3/5
f 830/3/5 827/3/5 826/3/5
f 831/3/5 827/3/5 830/3/5
f 832/4/6 833/4/6 836/4/6
f 836/4/6 833/4/6 837/4/6
f 834/4/6 835/4/6 838/4/6
f 838/4/6 835/4/6 839/4/6
f 840/3/6 841/3/6 842/3/6
f 842/3/6 841/3/6 843/3/6
f 843/3/6 841/3/6 844/3/6
f 845/4/6 846/4/6 847/4/6
f 847/4/6 846/4/6 848/4/6
f 849/12/6 850/12/6 853/12/6
f 853/12/6 850/12/6 854/12/6
f 851/12/6 852/12/6 855/12/6
f 855/12/6 852/12/6 856/12/6
f 857/12/6 858/12/6 862/12/6
f 862/12/6 858/12/6 863/12/6
f 859/12/6 860/12/6 864/12/6
f 864/12/6 860/12/6 865/12/6
f 861/12/6 862/12/6 867/12/6
f 867/12/6 862/12/6 868/12/6
f 865/12/6 866/12/6 869/12/6
f 869/12/6 866/12/6 870/12/6
f 871/9/6 872/9/6 875/9/6
f 875/9/6 872/9/6 876/9/6
f 873/9/6 874/9/6 879/9/6
f 879/9/6 874/9/6 880/9/6
f 876/9/6 877/9/6 881/9/6
f 881/9/6 877/9/6 882/9/6
f 878/9/6 879/9/6 885/9/6
f 885/9/6 879/9/6 886/9/6
f 883/12/6 884/12/6 887/12/6
f 887/12/6 884/12/6 888/12/6
f 889/12/6 890/12/6 892/12/6
f 892/12/6 890/12/6 893/12/6
f 891/9/6 892/9/6 896/9/6
f 896/9/6 892/9/6 897/9/6
f 893/9/6 894/9/6 898/9/6
f 898/9/6 894/9/6 899/9/6
f 895/9/6 896/9/6 901/9/6
f 901/9/6 896/9/6 902/9/6
f 899/9/6 900/9/6 903/9/6
f 903/9/6 900/9/6 904/9/6
f 905/9/6 906/9/6 908/9/6
f 908/9/6 906/9/6 909/9/6
f 909/9/6 906/9/6 910/9/6
f 910/9/6 906/9/6 911/9/6
f 907/12/6 908/12/6 913/12/6
f 908/12/6 909/12/6 913/12/6
f 913/12/6 909/12/6 914/12/6
f 911/12/6 912/12/6 915/12/6
f 910/12/6 911/12/6 915/12/6
f 915/12/6 912/12/6 916/12/6
f 907/12/6 913/12/6 917/12/6
f 917/12/6 913/12/6 918/12/6
f 916/12/6 912/12/6 919/12/6
f 919/12/6 912/12/6 920/12/6
f 917/12/6 918/12/6 921/12/6
f 921/12/6 918/12/6 922/12/6
f 919/12/6 920/12/6 923/12/6
f 923/12/6 920/12/6 924/12/6
f 921/12/6 922/12/6 925/12/6
f 923/12/6 924/12/6 928/12/6
f 925/12/6 926/12/6 929/12/6
f 927/12/6 928/12/6 930/12/6
f 925/12/6 929/12/6 931/12/6
f 929/12/6 930/12/6 931/12/6
f 921/12/6 925/12/6 931/12/6
f 930/12/6 928/12/6 932/12/6
f 931/12/6 930/12/6 932/12/6
f 928/12/6 924/12/6 932/12/6
f 931/9/6 932/9/6 933/9/6
f 933/9/6 932/9/6 934/9/6
f 935/9/6 936/9/6 938/9/6
f 938/9/6 936/9/6 939/9/6
f 937/9/6 938/9/6 941/9/6
f 939/9/6 940/9/6 941/9/6
f 938/9/6 939/9/6 941/9/6
f 941/9/6 940/9/6 942/9/6
f 942/9/6 940/9/6 943/9/6
f 943/9/6 940/9/6 944/9/6
f 942/9/6 943/9/6 946/9/6
f 946/9/6 943/9/6 947/9/6
f 945/9/6 946/9/6 949/9/6
f 947/9/6 948/9/6 949/9/6
f 946/9/6 947/9/6 949/9/6
f 949/9/6 948/9/6 950/9/6
f 950/9/6 948/9/6 951/9/6
f 951/9/6 948/9/6 952/9/6
f 950/9/6 951/9/6 953/9/6
f 953/9/6 951/9/6 954/9/6
f 955/3/6 956/3/6 963/3/6
f 963/3/6 956/3/6 964/3/6
f 957/3/6 958/3/6 965/3/6
f 965/3/6 958/3/6 966/3/6
f 959/3/6 960/3/6 967/3/6
f 967/3/6 960/3/6 968/3/6
f 961/3/6 962/3/6 969/3/6
f 969/3/6 962/3/6 970/3/6
f 971/3/6 972/3/6 975/3/6
f 975/3/6 972/3/6 976/3/6
f 973/3/6 974/3/6 977/3/6
f 977/3/6 974/3/6 978/3/6
