# MagicaVoxel @ Ephtracy

# group
o 

# material
mtllib Morsel.vox.mtl
usemtl palette

# normals
vn -1 0 0
vn 1 0 0
vn 0 0 1
vn 0 0 -1
vn 0 -1 0
vn 0 1 0

# texcoords
vt 0.533203 0.5
vt 0.564453 0.5
vt 0.689453 0.5
vt 0.814453 0.5
vt 0.845703 0.5
vt 0.876953 0.5
vt 0.912109 0.5
vt 0.916016 0.5
vt 0.970703 0.5
vt 0.978516 0.5
vt 0.982422 0.5
vt 0.986328 0.5

# verts
v 0.5 1.5 2.5
v 0.5 1.5 2.3
v 0.5 1.9 2.5
v 0.5 1.9 2.3
v 0.6 1.4 2.5
v 0.6 1.4 2.3
v 0.6 1.5 2.5
v 0.6 1.5 2.3
v 0.6 1.5 2.2
v 0.6 1.8 2.3
v 0.6 1.8 2.2
v 0.7 1.3 2.5
v 0.7 1.3 2.3
v 0.7 1.4 2.5
v 0.7 1.4 2.3
v 0.7 1.4 2.2
v 0.7 1.5 2.3
v 0.7 1.5 2.2
v 0.7 1.5 2.1
v 0.7 1.7 2.2
v 0.7 1.7 2.1
v 0.8 1.3 2.3
v 0.8 1.3 2.2
v 0.8 1.4 2.3
v 0.8 1.4 2.2
v 0.8 1.4 2.1
v 0.8 1.5 2.2
v 0.8 1.5 2.1
v 0.9 1.1 2.7
v 0.9 1.1 2.6
v 0.9 1.1 2
v 0.9 1.3 2.7
v 0.9 1.3 2.6
v 0.9 1.3 2.5
v 0.9 1.3 2.2
v 0.9 1.4 2.2
v 0.9 1.4 2.1
v 0.9 1.4 2
v 1 0.9 2.6
v 1 0.9 1.9
v 1 1 2.7
v 1 1 2.6
v 1 1 2.4
v 1 1 1.9
v 1 1.1 2.7
v 1 1.1 2.6
v 1 1.1 2.4
v 1 1.1 2
v 1 1.2 2.8
v 1 1.2 2.7
v 1 1.3 2.7
v 1 1.3 2.6
v 1 1.3 2.5
v 1 1.4 2.8
v 1 1.4 2.6
v 1 1.4 2.5
v 1 1.4 2.4
v 1 1.4 2.1
v 1 1.4 2
v 1 1.4 1.9
v 1 1.5 2.6
v 1 1.5 2.4
v 1 1.5 2.1
v 1 1.5 2
v 1.1 0.4 2.4
v 1.1 0.4 2.2
v 1.1 0.5 2.4
v 1.1 0.5 2.2
v 1.1 0.7 2.4
v 1.1 0.7 2.2
v 1.1 0.8 2.7
v 1.1 0.8 2.6
v 1.1 0.8 1.9
v 1.1 0.9 2.7
v 1.1 0.9 2.6
v 1.1 0.9 1.9
v 1.1 1 2.7
v 1.1 1 2.6
v 1.1 1 1.9
v 1.1 1 1.8
v 1.1 1.3 1.9
v 1.1 1.3 1.8
v 1.1 1.4 2.8
v 1.1 1.4 2.6
v 1.1 1.4 2
v 1.1 1.4 1.9
v 1.1 1.5 2.8
v 1.1 1.5 2.7
v 1.1 1.5 2.6
v 1.1 1.5 2.5
v 1.1 1.5 2.4
v 1.1 1.5 2.2
v 1.1 1.5 2.1
v 1.1 1.5 2
v 1.1 1.5 1.9
v 1.1 1.6 2.7
v 1.1 1.6 2.5
v 1.1 1.6 2.4
v 1.1 1.6 2.2
v 1.1 1.6 2.1
v 1.1 1.7 2.4
v 1.1 1.8 2.5
v 1.1 1.8 2.4
v 1.2 0.1 2.5
v 1.2 0.1 2.2
v 1.2 0.2 2.5
v 1.2 0.2 2.4
v 1.2 0.3 2.4
v 1.2 0.3 2.2
v 1.2 0.4 2.4
v 1.2 0.4 2.2
v 1.2 0.5 2.5
v 1.2 0.5 2.4
v 1.2 0.5 2.2
v 1.2 0.5 2.1
v 1.2 0.6 2.5
v 1.2 0.6 2.4
v 1.2 0.6 2.2
v 1.2 0.6 2.1
v 1.2 0.7 2.6
v 1.2 0.7 2.4
v 1.2 0.7 2.2
v 1.2 0.7 1.9
v 1.2 0.8 2.6
v 1.2 0.8 1.9
v 1.2 1.1 2.8
v 1.2 1.1 2.7
v 1.2 1.3 2.8
v 1.2 1.3 2.7
v 1.2 1.3 1.9
v 1.2 1.3 1.8
v 1.2 1.4 1.9
v 1.2 1.4 1.8
v 1.2 1.5 2.1
v 1.2 1.5 2
v 1.2 1.6 2.1
v 1.2 1.6 2
v 1.3 0.7 2.7
v 1.3 0.7 2.6
v 1.3 0.8 2.7
v 1.3 0.8 2.6
v 1.3 0.9 1.9
v 1.3 0.9 1.8
v 1.3 1 1.9
v 1.3 1 1.8
v 1.6 0.1 2.5
v 1.6 0.1 2.2
v 1.6 0.2 2.5
v 1.6 0.2 2.4
v 1.6 0.3 2.4
v 1.6 0.3 2.2
v 1.6 0.4 2.4
v 1.6 0.4 2.2
v 1.6 1.1 2.8
v 1.6 1.1 2.7
v 1.6 1.2 2.8
v 1.6 1.2 2.7
v 1.8 1.6 2.5
v 1.8 1.6 2.3
v 1.8 1.8 2.5
v 1.8 1.8 2.3
v 1.9 1.6 2.3
v 1.9 1.6 2.2
v 1.9 1.8 2.5
v 1.9 1.8 2.3
v 1.9 1.8 2.2
v 1.9 1.9 2.5
v 1.9 1.9 2.3
v 2 1.5 2.2
v 2 1.5 2.1
v 2 1.7 2.2
v 2 1.7 2.1
v 2.3 1.4 2.5
v 2.3 1.4 2.4
v 2.3 1.5 2.5
v 2.3 1.5 2.4
v 2.4 1.5 2.5
v 2.4 1.5 2.4
v 2.4 1.8 2.5
v 2.4 1.8 2.4
v 0.6 1.5 2.5
v 0.6 1.5 2.4
v 0.6 1.8 2.5
v 0.6 1.8 2.4
v 0.7 1.4 2.5
v 0.7 1.4 2.4
v 0.7 1.5 2.5
v 0.7 1.5 2.4
v 1 1.5 2.2
v 1 1.5 2.1
v 1 1.7 2.2
v 1 1.7 2.1
v 1.1 1.2 2.8
v 1.1 1.2 2.7
v 1.1 1.3 2.8
v 1.1 1.3 2.7
v 1.1 1.6 2.3
v 1.1 1.6 2.2
v 1.1 1.8 2.5
v 1.1 1.8 2.3
v 1.1 1.8 2.2
v 1.1 1.9 2.5
v 1.1 1.9 2.3
v 1.2 1.6 2.5
v 1.2 1.6 2.3
v 1.2 1.8 2.5
v 1.2 1.8 2.3
v 1.4 0.1 2.5
v 1.4 0.1 2.2
v 1.4 0.2 2.5
v 1.4 0.2 2.4
v 1.4 0.3 2.4
v 1.4 0.3 2.2
v 1.4 0.4 2.4
v 1.4 0.4 2.2
v 1.4 1.1 2.8
v 1.4 1.1 2.7
v 1.4 1.2 2.8
v 1.4 1.2 2.7
v 1.7 0.7 2.7
v 1.7 0.7 2.6
v 1.7 0.8 2.7
v 1.7 0.8 2.6
v 1.7 0.9 1.9
v 1.7 0.9 1.8
v 1.7 1 1.9
v 1.7 1 1.8
v 1.8 0.1 2.5
v 1.8 0.1 2.2
v 1.8 0.2 2.5
v 1.8 0.2 2.4
v 1.8 0.3 2.4
v 1.8 0.3 2.2
v 1.8 0.4 2.4
v 1.8 0.4 2.2
v 1.8 0.5 2.5
v 1.8 0.5 2.4
v 1.8 0.5 2.2
v 1.8 0.5 2.1
v 1.8 0.6 2.5
v 1.8 0.6 2.4
v 1.8 0.6 2.2
v 1.8 0.6 2.1
v 1.8 0.7 2.6
v 1.8 0.7 2.4
v 1.8 0.7 2.2
v 1.8 0.7 1.9
v 1.8 0.8 2.6
v 1.8 0.8 1.9
v 1.8 1.1 2.8
v 1.8 1.1 2.7
v 1.8 1.3 2.8
v 1.8 1.3 2.7
v 1.8 1.3 1.9
v 1.8 1.3 1.8
v 1.8 1.4 1.9
v 1.8 1.4 1.8
v 1.8 1.5 2.1
v 1.8 1.5 2
v 1.8 1.6 2.1
v 1.8 1.6 2
v 1.9 0.4 2.4
v 1.9 0.4 2.2
v 1.9 0.5 2.4
v 1.9 0.5 2.2
v 1.9 0.7 2.4
v 1.9 0.7 2.2
v 1.9 0.8 2.7
v 1.9 0.8 2.6
v 1.9 0.8 1.9
v 1.9 0.9 2.7
v 1.9 0.9 2.6
v 1.9 0.9 1.9
v 1.9 1 2.7
v 1.9 1 2.6
v 1.9 1 1.9
v 1.9 1 1.8
v 1.9 1.3 1.9
v 1.9 1.3 1.8
v 1.9 1.4 2.8
v 1.9 1.4 2.6
v 1.9 1.4 2
v 1.9 1.4 1.9
v 1.9 1.5 2.8
v 1.9 1.5 2.7
v 1.9 1.5 2.6
v 1.9 1.5 2.5
v 1.9 1.5 2.4
v 1.9 1.5 2.2
v 1.9 1.5 2.1
v 1.9 1.5 2
v 1.9 1.5 1.9
v 1.9 1.6 2.7
v 1.9 1.6 2.5
v 1.9 1.6 2.4
v 1.9 1.6 2.2
v 1.9 1.6 2.1
v 1.9 1.7 2.4
v 1.9 1.8 2.5
v 1.9 1.8 2.4
v 2 0.9 2.6
v 2 0.9 1.9
v 2 1 2.7
v 2 1 2.6
v 2 1 2.4
v 2 1 1.9
v 2 1.1 2.7
v 2 1.1 2.6
v 2 1.1 2.4
v 2 1.1 2
v 2 1.3 2.8
v 2 1.3 2.7
v 2 1.3 2.6
v 2 1.3 2.5
v 2 1.4 2.8
v 2 1.4 2.6
v 2 1.4 2.5
v 2 1.4 2.4
v 2 1.4 2.1
v 2 1.4 2
v 2 1.4 1.9
v 2 1.5 2.6
v 2 1.5 2.4
v 2 1.5 2.1
v 2 1.5 2
v 2.1 1.1 2.7
v 2.1 1.1 2.6
v 2.1 1.1 2
v 2.1 1.3 2.7
v 2.1 1.3 2.6
v 2.1 1.3 2.5
v 2.1 1.3 2.2
v 2.1 1.4 2.2
v 2.1 1.4 2.1
v 2.1 1.4 2
v 2.2 1.3 2.3
v 2.2 1.3 2.2
v 2.2 1.4 2.3
v 2.2 1.4 2.2
v 2.2 1.4 2.1
v 2.2 1.5 2.2
v 2.2 1.5 2.1
v 2.3 1.3 2.5
v 2.3 1.3 2.3
v 2.3 1.4 2.5
v 2.3 1.4 2.3
v 2.3 1.4 2.2
v 2.3 1.5 2.3
v 2.3 1.5 2.2
v 2.3 1.5 2.1
v 2.3 1.7 2.2
v 2.3 1.7 2.1
v 2.4 1.4 2.5
v 2.4 1.4 2.3
v 2.4 1.5 2.5
v 2.4 1.5 2.3
v 2.4 1.5 2.2
v 2.4 1.8 2.3
v 2.4 1.8 2.2
v 2.5 1.5 2.5
v 2.5 1.5 2.3
v 2.5 1.9 2.5
v 2.5 1.9 2.3
v 1 1.2 2.8
v 1 1.4 2.8
v 1.1 1.2 2.8
v 1.1 1.3 2.8
v 1.1 1.4 2.8
v 1.1 1.5 2.8
v 1.2 1.1 2.8
v 1.2 1.3 2.8
v 1.2 1.4 2.8
v 1.3 1.2 2.8
v 1.3 1.3 2.8
v 1.4 1.1 2.8
v 1.4 1.2 2.8
v 1.4 1.3 2.8
v 1.6 1.1 2.8
v 1.6 1.2 2.8
v 1.6 1.3 2.8
v 1.7 1.2 2.8
v 1.7 1.3 2.8
v 1.8 1.1 2.8
v 1.8 1.3 2.8
v 1.8 1.4 2.8
v 1.9 1.4 2.8
v 1.9 1.5 2.8
v 2 1.3 2.8
v 2 1.4 2.8
v 0.9 1.1 2.7
v 0.9 1.3 2.7
v 1 1 2.7
v 1 1.1 2.7
v 1 1.2 2.7
v 1 1.3 2.7
v 1.1 0.8 2.7
v 1.1 0.9 2.7
v 1.1 1 2.7
v 1.1 1.2 2.7
v 1.1 1.3 2.7
v 1.1 1.5 2.7
v 1.1 1.6 2.7
v 1.2 0.8 2.7
v 1.2 0.9 2.7
v 1.2 1 2.7
v 1.2 1.1 2.7
v 1.2 1.3 2.7
v 1.3 0.7 2.7
v 1.3 0.8 2.7
v 1.3 1 2.7
v 1.4 1.1 2.7
v 1.4 1.2 2.7
v 1.6 1.1 2.7
v 1.6 1.2 2.7
v 1.7 0.7 2.7
v 1.7 0.8 2.7
v 1.7 1 2.7
v 1.8 0.8 2.7
v 1.8 0.9 2.7
v 1.8 1 2.7
v 1.8 1.1 2.7
v 1.8 1.3 2.7
v 1.9 0.8 2.7
v 1.9 0.9 2.7
v 1.9 1 2.7
v 1.9 1.2 2.7
v 1.9 1.3 2.7
v 1.9 1.5 2.7
v 1.9 1.6 2.7
v 2 1 2.7
v 2 1.1 2.7
v 2 1.2 2.7
v 2 1.3 2.7
v 2.1 1.1 2.7
v 2.1 1.3 2.7
v 1 0.9 2.6
v 1 1 2.6
v 1 1.4 2.6
v 1 1.5 2.6
v 1.1 0.9 2.6
v 1.1 1 2.6
v 1.1 1.4 2.6
v 1.1 1.5 2.6
v 1.2 0.7 2.6
v 1.2 0.8 2.6
v 1.3 0.7 2.6
v 1.3 0.8 2.6
v 1.7 0.7 2.6
v 1.7 0.8 2.6
v 1.8 0.7 2.6
v 1.8 0.8 2.6
v 1.9 0.9 2.6
v 1.9 1 2.6
v 1.9 1.4 2.6
v 1.9 1.5 2.6
v 2 0.9 2.6
v 2 1 2.6
v 2 1.4 2.6
v 2 1.5 2.6
v 0.5 1.5 2.5
v 0.5 1.9 2.5
v 0.6 1.4 2.5
v 0.6 1.5 2.5
v 0.6 1.8 2.5
v 0.7 1.3 2.5
v 0.7 1.4 2.5
v 0.7 1.5 2.5
v 0.9 1.3 2.5
v 1 1.3 2.5
v 1 1.4 2.5
v 1.1 1.6 2.5
v 1.1 1.8 2.5
v 1.1 1.9 2.5
v 1.2 0.1 2.5
v 1.2 0.2 2.5
v 1.2 0.5 2.5
v 1.2 0.6 2.5
v 1.2 1.6 2.5
v 1.2 1.8 2.5
v 1.4 0.1 2.5
v 1.4 0.2 2.5
v 1.6 0.1 2.5
v 1.6 0.2 2.5
v 1.8 0.1 2.5
v 1.8 0.2 2.5
v 1.8 0.5 2.5
v 1.8 0.6 2.5
v 1.8 1.6 2.5
v 1.8 1.8 2.5
v 1.9 1.6 2.5
v 1.9 1.8 2.5
v 1.9 1.9 2.5
v 2 1.3 2.5
v 2 1.4 2.5
v 2.1 1.3 2.5
v 2.3 1.3 2.5
v 2.3 1.4 2.5
v 2.3 1.5 2.5
v 2.4 1.4 2.5
v 2.4 1.5 2.5
v 2.4 1.8 2.5
v 2.5 1.5 2.5
v 2.5 1.9 2.5
v 0.6 1.5 2.4
v 0.6 1.8 2.4
v 0.7 1.4 2.4
v 0.7 1.5 2.4
v 0.8 1.5 2.4
v 0.8 1.6 2.4
v 0.9 1.6 2.4
v 0.9 1.7 2.4
v 1 1.4 2.4
v 1 1.5 2.4
v 1.1 0.4 2.4
v 1.1 0.5 2.4
v 1.1 0.7 2.4
v 1.1 1.5 2.4
v 1.1 1.6 2.4
v 1.1 1.7 2.4
v 1.1 1.8 2.4
v 1.2 0.2 2.4
v 1.2 0.3 2.4
v 1.2 0.4 2.4
v 1.2 0.5 2.4
v 1.2 0.6 2.4
v 1.2 0.7 2.4
v 1.4 0.2 2.4
v 1.4 0.3 2.4
v 1.4 0.4 2.4
v 1.6 0.2 2.4
v 1.6 0.3 2.4
v 1.6 0.4 2.4
v 1.8 0.2 2.4
v 1.8 0.3 2.4
v 1.8 0.4 2.4
v 1.8 0.5 2.4
v 1.8 0.6 2.4
v 1.8 0.7 2.4
v 1.9 0.4 2.4
v 1.9 0.5 2.4
v 1.9 0.7 2.4
v 1.9 1.5 2.4
v 1.9 1.6 2.4
v 1.9 1.7 2.4
v 1.9 1.8 2.4
v 2 1.4 2.4
v 2 1.5 2.4
v 2.1 1.6 2.4
v 2.1 1.7 2.4
v 2.2 1.5 2.4
v 2.2 1.6 2.4
v 2.3 1.4 2.4
v 2.3 1.5 2.4
v 2.4 1.5 2.4
v 2.4 1.8 2.4
v 0.5 1.5 2.3
v 0.5 1.9 2.3
v 0.6 1.4 2.3
v 0.6 1.5 2.3
v 0.6 1.8 2.3
v 0.7 1.3 2.3
v 0.7 1.4 2.3
v 0.7 1.5 2.3
v 0.8 1.3 2.3
v 0.8 1.4 2.3
v 1.1 1.6 2.3
v 1.1 1.8 2.3
v 1.1 1.9 2.3
v 1.2 1.6 2.3
v 1.2 1.8 2.3
v 1.8 1.6 2.3
v 1.8 1.8 2.3
v 1.9 1.6 2.3
v 1.9 1.8 2.3
v 1.9 1.9 2.3
v 2.2 1.3 2.3
v 2.2 1.4 2.3
v 2.3 1.3 2.3
v 2.3 1.4 2.3
v 2.3 1.5 2.3
v 2.4 1.4 2.3
v 2.4 1.5 2.3
v 2.4 1.8 2.3
v 2.5 1.5 2.3
v 2.5 1.9 2.3
v 0.6 1.5 2.2
v 0.6 1.8 2.2
v 0.7 1.4 2.2
v 0.7 1.5 2.2
v 0.7 1.7 2.2
v 0.8 1.3 2.2
v 0.8 1.4 2.2
v 0.8 1.5 2.2
v 0.9 1.3 2.2
v 0.9 1.4 2.2
v 1 1.5 2.2
v 1 1.7 2.2
v 1.1 0.4 2.2
v 1.1 0.5 2.2
v 1.1 0.7 2.2
v 1.1 1.5 2.2
v 1.1 1.6 2.2
v 1.1 1.8 2.2
v 1.2 0.1 2.2
v 1.2 0.3 2.2
v 1.2 0.4 2.2
v 1.2 0.5 2.2
v 1.2 0.6 2.2
v 1.2 0.7 2.2
v 1.4 0.1 2.2
v 1.4 0.3 2.2
v 1.4 0.4 2.2
v 1.6 0.1 2.2
v 1.6 0.3 2.2
v 1.6 0.4 2.2
v 1.8 0.1 2.2
v 1.8 0.3 2.2
v 1.8 0.4 2.2
v 1.8 0.5 2.2
v 1.8 0.6 2.2
v 1.8 0.7 2.2
v 1.9 0.4 2.2
v 1.9 0.5 2.2
v 1.9 0.7 2.2
v 1.9 1.5 2.2
v 1.9 1.6 2.2
v 1.9 1.8 2.2
v 2 1.5 2.2
v 2 1.7 2.2
v 2.1 1.3 2.2
v 2.1 1.4 2.2
v 2.2 1.3 2.2
v 2.2 1.4 2.2
v 2.2 1.5 2.2
v 2.3 1.4 2.2
v 2.3 1.5 2.2
v 2.3 1.7 2.2
v 2.4 1.5 2.2
v 2.4 1.8 2.2
v 0.7 1.5 2.1
v 0.7 1.7 2.1
v 0.8 1.4 2.1
v 0.8 1.5 2.1
v 0.9 1.4 2.1
v 1 1.4 2.1
v 1 1.5 2.1
v 1 1.7 2.1
v 1.1 1.5 2.1
v 1.1 1.6 2.1
v 1.2 0.5 2.1
v 1.2 0.6 2.1
v 1.2 1.5 2.1
v 1.2 1.6 2.1
v 1.8 0.5 2.1
v 1.8 0.6 2.1
v 1.8 1.5 2.1
v 1.8 1.6 2.1
v 1.9 1.5 2.1
v 1.9 1.6 2.1
v 2 1.4 2.1
v 2 1.5 2.1
v 2 1.7 2.1
v 2.1 1.4 2.1
v 2.2 1.4 2.1
v 2.2 1.5 2.1
v 2.3 1.5 2.1
v 2.3 1.7 2.1
v 0.9 1.1 2
v 0.9 1.4 2
v 1 1.1 2
v 1 1.4 2
v 1 1.5 2
v 1.1 1.4 2
v 1.1 1.5 2
v 1.2 1.5 2
v 1.2 1.6 2
v 1.8 1.5 2
v 1.8 1.6 2
v 1.9 1.4 2
v 1.9 1.5 2
v 2 1.1 2
v 2 1.4 2
v 2 1.5 2
v 2.1 1.1 2
v 2.1 1.4 2
v 1 0.9 1.9
v 1 1 1.9
v 1 1.4 1.9
v 1.1 0.8 1.9
v 1.1 0.9 1.9
v 1.1 1 1.9
v 1.1 1.3 1.9
v 1.1 1.4 1.9
v 1.1 1.5 1.9
v 1.2 0.7 1.9
v 1.2 0.8 1.9
v 1.2 1.3 1.9
v 1.2 1.4 1.9
v 1.3 0.8 1.9
v 1.3 0.9 1.9
v 1.3 1 1.9
v 1.7 0.8 1.9
v 1.7 0.9 1.9
v 1.7 1 1.9
v 1.8 0.7 1.9
v 1.8 0.8 1.9
v 1.8 1.3 1.9
v 1.8 1.4 1.9
v 1.9 0.8 1.9
v 1.9 0.9 1.9
v 1.9 1 1.9
v 1.9 1.3 1.9
v 1.9 1.4 1.9
v 1.9 1.5 1.9
v 2 0.9 1.9
v 2 1 1.9
v 2 1.4 1.9
v 1.1 1 1.8
v 1.1 1.3 1.8
v 1.2 1.1 1.8
v 1.2 1.3 1.8
v 1.2 1.4 1.8
v 1.3 0.9 1.8
v 1.3 1 1.8
v 1.3 1.1 1.8
v 1.7 0.9 1.8
v 1.7 1 1.8
v 1.7 1.1 1.8
v 1.8 1.1 1.8
v 1.8 1.3 1.8
v 1.8 1.4 1.8
v 1.9 1 1.8
v 1.9 1.3 1.8
v 1.2 0.1 2.5
v 1.4 0.1 2.5
v 1.6 0.1 2.5
v 1.8 0.1 2.5
v 1.2 0.1 2.2
v 1.4 0.1 2.2
v 1.6 0.1 2.2
v 1.8 0.1 2.2
v 1.1 0.4 2.4
v 1.2 0.4 2.4
v 1.4 0.4 2.4
v 1.6 0.4 2.4
v 1.8 0.4 2.4
v 1.9 0.4 2.4
v 1.1 0.4 2.2
v 1.2 0.4 2.2
v 1.4 0.4 2.2
v 1.6 0.4 2.2
v 1.8 0.4 2.2
v 1.9 0.4 2.2
v 1.2 0.5 2.5
v 1.8 0.5 2.5
v 1.2 0.5 2.4
v 1.8 0.5 2.4
v 1.2 0.5 2.2
v 1.8 0.5 2.2
v 1.2 0.5 2.1
v 1.8 0.5 2.1
v 1.3 0.7 2.7
v 1.7 0.7 2.7
v 1.2 0.7 2.6
v 1.3 0.7 2.6
v 1.7 0.7 2.6
v 1.8 0.7 2.6
v 1.2 0.7 2.4
v 1.8 0.7 2.4
v 1.2 0.7 2.2
v 1.8 0.7 2.2
v 1.2 0.7 1.9
v 1.8 0.7 1.9
v 1.1 0.8 2.7
v 1.2 0.8 2.7
v 1.3 0.8 2.7
v 1.7 0.8 2.7
v 1.8 0.8 2.7
v 1.9 0.8 2.7
v 1.1 0.8 2.6
v 1.2 0.8 2.6
v 1.3 0.8 2.6
v 1.7 0.8 2.6
v 1.8 0.8 2.6
v 1.9 0.8 2.6
v 1.1 0.8 1.9
v 1.2 0.8 1.9
v 1.8 0.8 1.9
v 1.9 0.8 1.9
v 1 0.9 2.6
v 1.1 0.9 2.6
v 1.9 0.9 2.6
v 2 0.9 2.6
v 1 0.9 1.9
v 1.1 0.9 1.9
v 1.3 0.9 1.9
v 1.7 0.9 1.9
v 1.9 0.9 1.9
v 2 0.9 1.9
v 1.3 0.9 1.8
v 1.7 0.9 1.8
v 1 1 2.7
v 1.1 1 2.7
v 1.9 1 2.7
v 2 1 2.7
v 1 1 2.6
v 1.1 1 2.6
v 1.9 1 2.6
v 2 1 2.6
v 1.1 1 1.9
v 1.3 1 1.9
v 1.7 1 1.9
v 1.9 1 1.9
v 1.1 1 1.8
v 1.3 1 1.8
v 1.7 1 1.8
v 1.9 1 1.8
v 1.2 1.1 2.8
v 1.4 1.1 2.8
v 1.6 1.1 2.8
v 1.8 1.1 2.8
v 0.9 1.1 2.7
v 1 1.1 2.7
v 1.2 1.1 2.7
v 1.4 1.1 2.7
v 1.6 1.1 2.7
v 1.8 1.1 2.7
v 2 1.1 2.7
v 2.1 1.1 2.7
v 0.9 1.1 2.6
v 1 1.1 2.6
v 2 1.1 2.6
v 2.1 1.1 2.6
v 1 1.1 2.4
v 2 1.1 2.4
v 0.9 1.1 2
v 1 1.1 2
v 2 1.1 2
v 2.1 1.1 2
v 1 1.2 2.8
v 1.1 1.2 2.8
v 1.4 1.2 2.8
v 1.6 1.2 2.8
v 1 1.2 2.7
v 1.1 1.2 2.7
v 1.4 1.2 2.7
v 1.6 1.2 2.7
v 1.1 1.3 2.8
v 1.2 1.3 2.8
v 1.8 1.3 2.8
v 2 1.3 2.8
v 1.1 1.3 2.7
v 1.2 1.3 2.7
v 1.8 1.3 2.7
v 1.9 1.3 2.7
v 2 1.3 2.7
v 0.7 1.3 2.5
v 0.9 1.3 2.5
v 2.1 1.3 2.5
v 2.3 1.3 2.5
v 0.7 1.3 2.3
v 0.8 1.3 2.3
v 2.2 1.3 2.3
v 2.3 1.3 2.3
v 0.8 1.3 2.2
v 0.9 1.3 2.2
v 2.1 1.3 2.2
v 2.2 1.3 2.2
v 0.6 1.4 2.5
v 0.7 1.4 2.5
v 2.3 1.4 2.5
v 2.4 1.4 2.5
v 0.6 1.4 2.3
v 0.7 1.4 2.3
v 0.8 1.4 2.3
v 2.2 1.4 2.3
v 2.3 1.4 2.3
v 2.4 1.4 2.3
v 0.7 1.4 2.2
v 0.8 1.4 2.2
v 0.9 1.4 2.2
v 2.1 1.4 2.2
v 2.2 1.4 2.2
v 2.3 1.4 2.2
v 0.8 1.4 2.1
v 0.9 1.4 2.1
v 2.1 1.4 2.1
v 2.2 1.4 2.1
v 0.5 1.5 2.5
v 0.6 1.5 2.5
v 2.4 1.5 2.5
v 2.5 1.5 2.5
v 0.5 1.5 2.3
v 0.6 1.5 2.3
v 0.7 1.5 2.3
v 2.3 1.5 2.3
v 2.4 1.5 2.3
v 2.5 1.5 2.3
v 0.6 1.5 2.2
v 0.7 1.5 2.2
v 0.8 1.5 2.2
v 2.2 1.5 2.2
v 2.3 1.5 2.2
v 2.4 1.5 2.2
v 0.7 1.5 2.1
v 0.8 1.5 2.1
v 2.2 1.5 2.1
v 2.3 1.5 2.1
v 0.6 1.8 2.5
v 1.1 1.8 2.5
v 1.9 1.8 2.5
v 2.4 1.8 2.5
v 0.6 1.8 2.4
v 1.1 1.8 2.4
v 1.9 1.8 2.4
v 2.4 1.8 2.4
v 1.2 0.2 2.5
v 1.4 0.2 2.5
v 1.6 0.2 2.5
v 1.8 0.2 2.5
v 1.2 0.2 2.4
v 1.4 0.2 2.4
v 1.6 0.2 2.4
v 1.8 0.2 2.4
v 1.2 0.6 2.5
v 1.8 0.6 2.5
v 1.2 0.6 2.4
v 1.8 0.6 2.4
v 1.2 0.6 2.2
v 1.8 0.6 2.2
v 1.2 0.6 2.1
v 1.8 0.6 2.1
v 1.1 0.7 2.4
v 1.2 0.7 2.4
v 1.8 0.7 2.4
v 1.9 0.7 2.4
v 1.1 0.7 2.2
v 1.2 0.7 2.2
v 1.8 0.7 2.2
v 1.9 0.7 2.2
v 0.9 1.3 2.7
v 1 1.3 2.7
v 2 1.3 2.7
v 2.1 1.3 2.7
v 0.9 1.3 2.6
v 1 1.3 2.6
v 2 1.3 2.6
v 2.1 1.3 2.6
v 0.9 1.3 2.5
v 1 1.3 2.5
v 2 1.3 2.5
v 2.1 1.3 2.5
v 1.1 1.3 1.9
v 1.2 1.3 1.9
v 1.8 1.3 1.9
v 1.9 1.3 1.9
v 1.1 1.3 1.8
v 1.2 1.3 1.8
v 1.8 1.3 1.8
v 1.9 1.3 1.8
v 1 1.4 2.8
v 1.1 1.4 2.8
v 1.9 1.4 2.8
v 2 1.4 2.8
v 1 1.4 2.6
v 1.1 1.4 2.6
v 1.9 1.4 2.6
v 2 1.4 2.6
v 0.7 1.4 2.5
v 1 1.4 2.5
v 2 1.4 2.5
v 2.3 1.4 2.5
v 0.7 1.4 2.4
v 1 1.4 2.4
v 2 1.4 2.4
v 2.3 1.4 2.4
v 0.9 1.4 2.1
v 1 1.4 2.1
v 2 1.4 2.1
v 2.1 1.4 2.1
v 0.9 1.4 2
v 1 1.4 2
v 1.1 1.4 2
v 1.9 1.4 2
v 2 1.4 2
v 2.1 1.4 2
v 1 1.4 1.9
v 1.1 1.4 1.9
v 1.2 1.4 1.9
v 1.8 1.4 1.9
v 1.9 1.4 1.9
v 2 1.4 1.9
v 1.2 1.4 1.8
v 1.8 1.4 1.8
v 1.1 1.5 2.8
v 1.9 1.5 2.8
v 1.1 1.5 2.7
v 1.9 1.5 2.7
v 1 1.5 2.6
v 1.1 1.5 2.6
v 1.9 1.5 2.6
v 2 1.5 2.6
v 0.6 1.5 2.5
v 0.7 1.5 2.5
v 1.1 1.5 2.5
v 1.9 1.5 2.5
v 2.3 1.5 2.5
v 2.4 1.5 2.5
v 0.6 1.5 2.4
v 0.7 1.5 2.4
v 1 1.5 2.4
v 1.1 1.5 2.4
v 1.9 1.5 2.4
v 2 1.5 2.4
v 2.3 1.5 2.4
v 2.4 1.5 2.4
v 1 1.5 2.2
v 1.1 1.5 2.2
v 1.9 1.5 2.2
v 2 1.5 2.2
v 1 1.5 2.1
v 1.1 1.5 2.1
v 1.2 1.5 2.1
v 1.8 1.5 2.1
v 1.9 1.5 2.1
v 2 1.5 2.1
v 1 1.5 2
v 1.1 1.5 2
v 1.2 1.5 2
v 1.8 1.5 2
v 1.9 1.5 2
v 2 1.5 2
v 1.1 1.5 1.9
v 1.9 1.5 1.9
v 1.1 1.6 2.7
v 1.9 1.6 2.7
v 1.2 1.6 2.6
v 1.8 1.6 2.6
v 1.1 1.6 2.5
v 1.2 1.6 2.5
v 1.8 1.6 2.5
v 1.9 1.6 2.5
v 1.1 1.6 2.3
v 1.2 1.6 2.3
v 1.8 1.6 2.3
v 1.9 1.6 2.3
v 1.1 1.6 2.2
v 1.9 1.6 2.2
v 1.1 1.6 2.1
v 1.2 1.6 2.1
v 1.8 1.6 2.1
v 1.9 1.6 2.1
v 1.2 1.6 2
v 1.8 1.6 2
v 0.7 1.7 2.2
v 1 1.7 2.2
v 2 1.7 2.2
v 2.3 1.7 2.2
v 0.7 1.7 2.1
v 1 1.7 2.1
v 2 1.7 2.1
v 2.3 1.7 2.1
v 1.1 1.8 2.5
v 1.2 1.8 2.5
v 1.8 1.8 2.5
v 1.9 1.8 2.5
v 0.6 1.8 2.3
v 1.1 1.8 2.3
v 1.2 1.8 2.3
v 1.8 1.8 2.3
v 1.9 1.8 2.3
v 2.4 1.8 2.3
v 0.6 1.8 2.2
v 1.1 1.8 2.2
v 1.9 1.8 2.2
v 2.4 1.8 2.2
v 0.5 1.9 2.5
v 1.1 1.9 2.5
v 1.9 1.9 2.5
v 2.5 1.9 2.5
v 0.5 1.9 2.3
v 1.1 1.9 2.3
v 1.9 1.9 2.3
v 2.5 1.9 2.3

# faces
f 3/3/1 2/3/1 1/3/1
f 4/3/1 2/3/1 3/3/1
f 7/3/1 6/3/1 5/3/1
f 8/3/1 6/3/1 7/3/1
f 10/3/1 9/3/1 8/3/1
f 11/3/1 9/3/1 10/3/1
f 14/3/1 13/3/1 12/3/1
f 15/3/1 13/3/1 14/3/1
f 17/3/1 16/3/1 15/3/1
f 18/3/1 16/3/1 17/3/1
f 20/3/1 19/3/1 18/3/1
f 21/3/1 19/3/1 20/3/1
f 24/3/1 23/3/1 22/3/1
f 25/3/1 23/3/1 24/3/1
f 27/3/1 26/3/1 25/3/1
f 28/3/1 26/3/1 27/3/1
f 32/3/1 30/3/1 29/3/1
f 33/2/1 31/2/1 30/2/1
f 33/3/1 30/3/1 32/3/1
f 34/2/1 31/2/1 33/2/1
f 35/2/1 31/2/1 34/2/1
f 36/2/1 31/2/1 35/2/1
f 37/2/1 31/2/1 36/2/1
f 38/2/1 31/2/1 37/2/1
f 42/6/1 40/6/1 39/6/1
f 43/6/1 40/6/1 42/6/1
f 44/6/1 40/6/1 43/6/1
f 45/6/1 42/6/1 41/6/1
f 45/6/1 43/6/1 42/6/1
f 46/6/1 43/6/1 45/6/1
f 47/3/1 44/3/1 43/3/1
f 47/6/1 43/6/1 46/6/1
f 48/3/1 44/3/1 47/3/1
f 51/3/1 50/3/1 49/3/1
f 54/3/1 51/3/1 49/3/1
f 54/3/1 53/3/1 52/3/1
f 54/3/1 52/3/1 51/3/1
f 55/3/1 53/3/1 54/3/1
f 56/3/1 53/3/1 55/3/1
f 59/3/1 44/3/1 48/3/1
f 60/3/1 44/3/1 59/3/1
f 61/3/1 57/3/1 56/3/1
f 61/3/1 56/3/1 55/3/1
f 62/3/1 57/3/1 61/3/1
f 63/3/1 59/3/1 58/3/1
f 64/3/1 59/3/1 63/3/1
f 67/6/1 66/6/1 65/6/1
f 68/6/1 66/6/1 67/6/1
f 69/4/1 68/4/1 67/4/1
f 70/4/1 68/4/1 69/4/1
f 74/7/1 72/7/1 71/7/1
f 75/6/1 73/6/1 72/6/1
f 75/7/1 72/7/1 74/7/1
f 76/6/1 73/6/1 75/6/1
f 77/6/1 75/6/1 74/6/1
f 78/6/1 75/6/1 77/6/1
f 81/3/1 80/3/1 79/3/1
f 82/3/1 80/3/1 81/3/1
f 87/2/1 84/2/1 83/2/1
f 88/2/1 84/2/1 87/2/1
f 89/2/1 84/2/1 88/2/1
f 94/2/1 86/2/1 85/2/1
f 95/2/1 86/2/1 94/2/1
f 96/3/1 89/3/1 88/3/1
f 96/3/1 90/3/1 89/3/1
f 97/2/1 91/2/1 90/2/1
f 97/3/1 90/3/1 96/3/1
f 98/2/1 91/2/1 97/2/1
f 99/3/1 93/3/1 92/3/1
f 100/3/1 93/3/1 99/3/1
f 101/3/1 98/3/1 97/3/1
f 102/3/1 101/3/1 97/3/1
f 103/3/1 101/3/1 102/3/1
f 106/4/1 105/4/1 104/4/1
f 107/4/1 105/4/1 106/4/1
f 108/4/1 105/4/1 107/4/1
f 109/4/1 105/4/1 108/4/1
f 110/6/1 109/6/1 108/6/1
f 111/6/1 109/6/1 110/6/1
f 116/1/1 113/1/1 112/1/1
f 117/1/1 113/1/1 116/1/1
f 118/1/1 115/1/1 114/1/1
f 119/1/1 115/1/1 118/1/1
f 124/6/1 122/6/1 121/6/1
f 124/6/1 123/6/1 122/6/1
f 124/6/1 121/6/1 120/6/1
f 125/6/1 123/6/1 124/6/1
f 128/3/1 127/3/1 126/3/1
f 129/3/1 127/3/1 128/3/1
f 132/3/1 131/3/1 130/3/1
f 133/3/1 131/3/1 132/3/1
f 136/3/1 135/3/1 134/3/1
f 137/3/1 135/3/1 136/3/1
f 140/6/1 139/6/1 138/6/1
f 141/6/1 139/6/1 140/6/1
f 144/3/1 143/3/1 142/3/1
f 145/3/1 143/3/1 144/3/1
f 148/4/1 147/4/1 146/4/1
f 149/4/1 147/4/1 148/4/1
f 150/4/1 147/4/1 149/4/1
f 151/4/1 147/4/1 150/4/1
f 152/6/1 151/6/1 150/6/1
f 153/6/1 151/6/1 152/6/1
f 156/3/1 155/3/1 154/3/1
f 157/3/1 155/3/1 156/3/1
f 160/3/1 159/3/1 158/3/1
f 161/3/1 159/3/1 160/3/1
f 165/3/1 163/3/1 162/3/1
f 166/3/1 163/3/1 165/3/1
f 167/3/1 165/3/1 164/3/1
f 168/3/1 165/3/1 167/3/1
f 171/3/1 170/3/1 169/3/1
f 172/3/1 170/3/1 171/3/1
f 175/3/1 174/3/1 173/3/1
f 176/3/1 174/3/1 175/3/1
f 179/3/1 178/3/1 177/3/1
f 180/3/1 178/3/1 179/3/1
f 181/3/2 182/3/2 183/3/2
f 183/3/2 182/3/2 184/3/2
f 185/3/2 186/3/2 187/3/2
f 187/3/2 186/3/2 188/3/2
f 189/3/2 190/3/2 191/3/2
f 191/3/2 190/3/2 192/3/2
f 193/3/2 194/3/2 195/3/2
f 195/3/2 194/3/2 196/3/2
f 197/3/2 198/3/2 200/3/2
f 200/3/2 198/3/2 201/3/2
f 199/3/2 200/3/2 202/3/2
f 202/3/2 200/3/2 203/3/2
f 204/3/2 205/3/2 206/3/2
f 206/3/2 205/3/2 207/3/2
f 208/4/2 209/4/2 210/4/2
f 210/4/2 209/4/2 211/4/2
f 211/4/2 209/4/2 212/4/2
f 212/4/2 209/4/2 213/4/2
f 212/6/2 213/6/2 214/6/2
f 214/6/2 213/6/2 215/6/2
f 216/3/2 217/3/2 218/3/2
f 218/3/2 217/3/2 219/3/2
f 220/6/2 221/6/2 222/6/2
f 222/6/2 221/6/2 223/6/2
f 224/3/2 225/3/2 226/3/2
f 226/3/2 225/3/2 227/3/2
f 228/4/2 229/4/2 230/4/2
f 230/4/2 229/4/2 231/4/2
f 231/4/2 229/4/2 232/4/2
f 232/4/2 229/4/2 233/4/2
f 232/6/2 233/6/2 234/6/2
f 234/6/2 233/6/2 235/6/2
f 236/1/2 237/1/2 240/1/2
f 240/1/2 237/1/2 241/1/2
f 238/1/2 239/1/2 242/1/2
f 242/1/2 239/1/2 243/1/2
f 245/6/2 246/6/2 248/6/2
f 246/6/2 247/6/2 248/6/2
f 244/6/2 245/6/2 248/6/2
f 248/6/2 247/6/2 249/6/2
f 250/3/2 251/3/2 252/3/2
f 252/3/2 251/3/2 253/3/2
f 254/3/2 255/3/2 256/3/2
f 256/3/2 255/3/2 257/3/2
f 258/3/2 259/3/2 260/3/2
f 260/3/2 259/3/2 261/3/2
f 262/6/2 263/6/2 264/6/2
f 264/6/2 263/6/2 265/6/2
f 264/4/2 265/4/2 266/4/2
f 266/4/2 265/4/2 267/4/2
f 268/7/2 269/7/2 271/7/2
f 269/6/2 270/6/2 272/6/2
f 271/7/2 269/7/2 272/7/2
f 272/6/2 270/6/2 273/6/2
f 271/6/2 272/6/2 274/6/2
f 274/6/2 272/6/2 275/6/2
f 276/3/2 277/3/2 278/3/2
f 278/3/2 277/3/2 279/3/2
f 280/2/2 281/2/2 284/2/2
f 284/2/2 281/2/2 285/2/2
f 285/2/2 281/2/2 286/2/2
f 282/2/2 283/2/2 291/2/2
f 291/2/2 283/2/2 292/2/2
f 285/3/2 286/3/2 293/3/2
f 286/3/2 287/3/2 293/3/2
f 287/2/2 288/2/2 294/2/2
f 293/3/2 287/3/2 294/3/2
f 294/2/2 288/2/2 295/2/2
f 289/3/2 290/3/2 296/3/2
f 296/3/2 290/3/2 297/3/2
f 294/3/2 295/3/2 298/3/2
f 294/3/2 298/3/2 299/3/2
f 299/3/2 298/3/2 300/3/2
f 301/6/2 302/6/2 304/6/2
f 304/6/2 302/6/2 305/6/2
f 305/6/2 302/6/2 306/6/2
f 303/6/2 304/6/2 307/6/2
f 304/6/2 305/6/2 307/6/2
f 307/6/2 305/6/2 308/6/2
f 305/3/2 306/3/2 309/3/2
f 308/6/2 305/6/2 309/6/2
f 309/3/2 306/3/2 310/3/2
f 311/3/2 312/3/2 315/3/2
f 313/3/2 314/3/2 315/3/2
f 312/3/2 313/3/2 315/3/2
f 315/3/2 314/3/2 316/3/2
f 316/3/2 314/3/2 317/3/2
f 310/3/2 306/3/2 320/3/2
f 320/3/2 306/3/2 321/3/2
f 317/3/2 318/3/2 322/3/2
f 316/3/2 317/3/2 322/3/2
f 322/3/2 318/3/2 323/3/2
f 319/3/2 320/3/2 324/3/2
f 324/3/2 320/3/2 325/3/2
f 326/3/2 327/3/2 329/3/2
f 327/2/2 328/2/2 330/2/2
f 329/3/2 327/3/2 330/3/2
f 330/2/2 328/2/2 331/2/2
f 331/2/2 328/2/2 332/2/2
f 332/2/2 328/2/2 333/2/2
f 333/2/2 328/2/2 334/2/2
f 334/2/2 328/2/2 335/2/2
f 336/3/2 337/3/2 338/3/2
f 338/3/2 337/3/2 339/3/2
f 339/3/2 340/3/2 341/3/2
f 341/3/2 340/3/2 342/3/2
f 343/3/2 344/3/2 345/3/2
f 345/3/2 344/3/2 346/3/2
f 346/3/2 347/3/2 348/3/2
f 348/3/2 347/3/2 349/3/2
f 349/3/2 350/3/2 351/3/2
f 351/3/2 350/3/2 352/3/2
f 353/3/2 354/3/2 355/3/2
f 355/3/2 354/3/2 356/3/2
f 356/3/2 357/3/2 358/3/2
f 358/3/2 357/3/2 359/3/2
f 360/3/2 361/3/2 362/3/2
f 362/3/2 361/3/2 363/3/2
f 366/3/3 365/3/3 364/3/3
f 367/3/3 365/3/3 366/3/3
f 368/3/3 365/3/3 367/3/3
f 371/3/3 368/3/3 367/3/3
f 372/2/3 369/2/3 368/2/3
f 372/3/3 368/3/3 371/3/3
f 373/3/3 371/3/3 370/3/3
f 374/2/3 372/2/3 371/2/3
f 374/3/3 371/3/3 373/3/3
f 375/3/3 373/3/3 370/3/3
f 376/2/3 374/2/3 373/2/3
f 376/3/3 373/3/3 375/3/3
f 377/2/3 372/2/3 374/2/3
f 377/2/3 374/2/3 376/2/3
f 379/3/3 377/3/3 376/3/3
f 380/2/3 372/2/3 377/2/3
f 380/3/3 377/3/3 379/3/3
f 381/3/3 379/3/3 378/3/3
f 381/2/3 380/2/3 379/2/3
f 382/2/3 372/2/3 380/2/3
f 382/2/3 380/2/3 381/2/3
f 383/3/3 381/3/3 378/3/3
f 383/3/3 382/3/3 381/3/3
f 384/2/3 372/2/3 382/2/3
f 384/3/3 382/3/3 383/3/3
f 385/2/3 369/2/3 372/2/3
f 385/2/3 372/2/3 384/2/3
f 386/2/3 369/2/3 385/2/3
f 386/3/3 385/3/3 384/3/3
f 387/2/3 369/2/3 386/2/3
f 388/3/3 386/3/3 384/3/3
f 389/3/3 386/3/3 388/3/3
f 393/3/3 391/3/3 390/3/3
f 394/3/3 391/3/3 393/3/3
f 395/3/3 391/3/3 394/3/3
f 398/6/3 393/6/3 392/6/3
f 398/6/3 394/6/3 393/6/3
f 399/6/3 394/6/3 398/6/3
f 403/7/3 397/7/3 396/7/3
f 404/6/3 400/6/3 399/6/3
f 404/7/3 397/7/3 403/7/3
f 404/6/3 398/6/3 397/6/3
f 404/6/3 399/6/3 398/6/3
f 405/6/3 400/6/3 404/6/3
f 406/6/3 400/6/3 405/6/3
f 407/6/3 400/6/3 406/6/3
f 409/5/3 404/5/3 403/5/3
f 409/5/3 405/5/3 404/5/3
f 410/6/3 406/6/3 405/6/3
f 410/5/3 405/5/3 409/5/3
f 411/6/3 409/6/3 408/6/3
f 411/6/3 406/6/3 410/6/3
f 411/6/3 410/6/3 409/6/3
f 413/6/3 411/6/3 408/6/3
f 413/6/3 412/6/3 411/6/3
f 414/6/3 412/6/3 413/6/3
f 415/6/3 413/6/3 408/6/3
f 416/6/3 413/6/3 415/6/3
f 417/6/3 413/6/3 416/6/3
f 418/5/3 417/5/3 416/5/3
f 419/5/3 417/5/3 418/5/3
f 420/6/3 413/6/3 417/6/3
f 420/5/3 417/5/3 419/5/3
f 421/6/3 413/6/3 420/6/3
f 423/7/3 419/7/3 418/7/3
f 424/6/3 421/6/3 420/6/3
f 424/7/3 419/7/3 423/7/3
f 424/6/3 422/6/3 421/6/3
f 424/6/3 420/6/3 419/6/3
f 425/6/3 422/6/3 424/6/3
f 426/6/3 422/6/3 425/6/3
f 427/6/3 422/6/3 426/6/3
f 428/3/3 402/3/3 401/3/3
f 429/3/3 402/3/3 428/3/3
f 430/6/3 426/6/3 425/6/3
f 431/6/3 426/6/3 430/6/3
f 432/3/3 427/3/3 426/3/3
f 432/6/3 426/6/3 431/6/3
f 433/3/3 427/3/3 432/3/3
f 434/3/3 432/3/3 431/3/3
f 434/3/3 433/3/3 432/3/3
f 435/3/3 433/3/3 434/3/3
f 440/6/3 437/6/3 436/6/3
f 441/6/3 437/6/3 440/6/3
f 442/3/3 439/3/3 438/3/3
f 443/3/3 439/3/3 442/3/3
f 446/6/3 445/6/3 444/6/3
f 447/6/3 445/6/3 446/6/3
f 450/6/3 449/6/3 448/6/3
f 451/6/3 449/6/3 450/6/3
f 456/6/3 453/6/3 452/6/3
f 457/6/3 453/6/3 456/6/3
f 458/3/3 455/3/3 454/3/3
f 459/3/3 455/3/3 458/3/3
f 463/3/3 461/3/3 460/3/3
f 464/3/3 461/3/3 463/3/3
f 466/3/3 463/3/3 462/3/3
f 467/3/3 463/3/3 466/3/3
f 468/3/3 466/3/3 465/3/3
f 469/3/3 466/3/3 468/3/3
f 470/3/3 466/3/3 469/3/3
f 472/3/3 461/3/3 464/3/3
f 473/3/3 461/3/3 472/3/3
f 478/3/3 472/3/3 471/3/3
f 479/3/3 472/3/3 478/3/3
f 480/4/3 475/4/3 474/4/3
f 481/4/3 475/4/3 480/4/3
f 484/4/3 483/4/3 482/4/3
f 485/4/3 483/4/3 484/4/3
f 486/1/3 477/1/3 476/1/3
f 487/1/3 477/1/3 486/1/3
f 490/3/3 489/3/3 488/3/3
f 491/3/3 489/3/3 490/3/3
f 495/3/3 494/3/3 493/3/3
f 496/3/3 494/3/3 495/3/3
f 497/3/3 494/3/3 496/3/3
f 499/3/3 498/3/3 497/3/3
f 500/3/3 498/3/3 499/3/3
f 501/3/3 492/3/3 491/3/3
f 502/3/3 501/3/3 500/3/3
f 503/3/3 492/3/3 501/3/3
f 503/3/3 501/3/3 502/3/3
f 507/8/3 505/8/3 504/8/3
f 508/8/3 505/8/3 507/8/3
f 508/7/3 507/7/3 506/7/3
f 509/8/3 505/8/3 508/8/3
f 510/7/3 509/7/3 508/7/3
f 510/8/3 505/8/3 509/8/3
f 511/8/3 505/8/3 510/8/3
f 512/7/3 508/7/3 506/7/3
f 512/7/3 510/7/3 508/7/3
f 512/7/3 511/7/3 510/7/3
f 513/7/3 511/7/3 512/7/3
f 517/7/3 511/7/3 513/7/3
f 518/7/3 511/7/3 517/7/3
f 519/8/3 505/8/3 511/8/3
f 519/7/3 511/7/3 518/7/3
f 520/8/3 505/8/3 519/8/3
f 523/6/3 515/6/3 514/6/3
f 524/4/3 516/4/3 515/4/3
f 524/6/3 515/6/3 523/6/3
f 525/4/3 516/4/3 524/4/3
f 526/4/3 516/4/3 525/4/3
f 527/4/3 522/4/3 521/4/3
f 528/6/3 523/6/3 522/6/3
f 528/4/3 522/4/3 527/4/3
f 529/4/3 524/4/3 523/4/3
f 529/6/3 523/6/3 528/6/3
f 532/4/3 524/4/3 529/4/3
f 533/4/3 531/4/3 530/4/3
f 534/6/3 532/6/3 531/6/3
f 534/4/3 531/4/3 533/4/3
f 535/4/3 524/4/3 532/4/3
f 535/6/3 532/6/3 534/6/3
f 536/4/3 524/4/3 535/4/3
f 537/4/3 526/4/3 525/4/3
f 538/4/3 526/4/3 537/4/3
f 539/6/3 536/6/3 535/6/3
f 540/4/3 538/4/3 537/4/3
f 540/6/3 536/6/3 539/6/3
f 540/4/3 537/4/3 536/4/3
f 541/4/3 538/4/3 540/4/3
f 547/7/3 544/7/3 543/7/3
f 547/7/3 543/7/3 542/7/3
f 548/7/3 544/7/3 547/7/3
f 548/7/3 547/7/3 546/7/3
f 549/8/3 545/8/3 544/8/3
f 549/7/3 544/7/3 548/7/3
f 550/7/3 548/7/3 546/7/3
f 551/8/3 549/8/3 548/8/3
f 551/7/3 548/7/3 550/7/3
f 552/7/3 550/7/3 546/7/3
f 553/8/3 551/8/3 550/8/3
f 553/7/3 550/7/3 552/7/3
f 554/8/3 551/8/3 553/8/3
f 555/8/3 545/8/3 549/8/3
f 555/8/3 551/8/3 554/8/3
f 555/8/3 549/8/3 551/8/3
f 556/3/4 557/3/4 559/3/4
f 559/3/4 557/3/4 560/3/4
f 558/3/4 559/3/4 562/3/4
f 562/3/4 559/3/4 563/3/4
f 561/3/4 562/3/4 564/3/4
f 564/3/4 562/3/4 565/3/4
f 560/3/4 557/3/4 567/3/4
f 567/3/4 557/3/4 568/3/4
f 566/3/4 567/3/4 569/3/4
f 569/3/4 567/3/4 570/3/4
f 571/3/4 572/3/4 573/3/4
f 573/3/4 572/3/4 574/3/4
f 576/3/4 577/3/4 578/3/4
f 578/3/4 577/3/4 579/3/4
f 579/3/4 580/3/4 581/3/4
f 581/3/4 580/3/4 582/3/4
f 574/3/4 575/3/4 583/3/4
f 582/3/4 583/3/4 584/3/4
f 583/3/4 575/3/4 585/3/4
f 584/3/4 583/3/4 585/3/4
f 586/3/4 587/3/4 589/3/4
f 589/3/4 587/3/4 590/3/4
f 588/3/4 589/3/4 592/3/4
f 592/3/4 589/3/4 593/3/4
f 591/3/4 592/3/4 594/3/4
f 594/3/4 592/3/4 595/3/4
f 590/3/4 587/3/4 597/3/4
f 596/3/4 597/3/4 601/3/4
f 601/3/4 597/3/4 602/3/4
f 597/3/4 587/3/4 603/3/4
f 602/3/4 597/3/4 603/3/4
f 598/6/4 599/6/4 606/6/4
f 599/4/4 600/4/4 607/4/4
f 606/6/4 599/6/4 607/6/4
f 607/4/4 600/4/4 608/4/4
f 608/4/4 600/4/4 609/4/4
f 604/4/4 605/4/4 610/4/4
f 605/6/4 606/6/4 611/6/4
f 610/4/4 605/4/4 611/4/4
f 606/4/4 607/4/4 612/4/4
f 611/6/4 606/6/4 612/6/4
f 612/4/4 607/4/4 615/4/4
f 613/4/4 614/4/4 616/4/4
f 614/6/4 615/6/4 617/6/4
f 616/4/4 614/4/4 617/4/4
f 615/4/4 607/4/4 618/4/4
f 617/6/4 615/6/4 618/6/4
f 618/4/4 607/4/4 619/4/4
f 608/4/4 609/4/4 620/4/4
f 620/4/4 609/4/4 621/4/4
f 618/6/4 619/6/4 622/6/4
f 620/4/4 621/4/4 623/4/4
f 622/6/4 619/6/4 623/6/4
f 619/4/4 620/4/4 623/4/4
f 623/4/4 621/4/4 624/4/4
f 626/3/4 627/3/4 628/3/4
f 625/3/4 626/3/4 628/3/4
f 628/3/4 627/3/4 629/3/4
f 630/3/4 631/3/4 632/3/4
f 632/3/4 631/3/4 633/3/4
f 633/3/4 634/3/4 635/3/4
f 635/3/4 634/3/4 636/3/4
f 629/3/4 627/3/4 637/3/4
f 636/3/4 637/3/4 638/3/4
f 637/3/4 627/3/4 639/3/4
f 638/3/4 637/3/4 639/3/4
f 640/3/4 641/3/4 643/3/4
f 642/3/4 643/3/4 644/3/4
f 644/3/4 643/3/4 645/3/4
f 643/3/4 641/3/4 646/3/4
f 645/3/4 643/3/4 646/3/4
f 646/3/4 641/3/4 647/3/4
f 648/3/4 649/3/4 652/3/4
f 652/3/4 649/3/4 653/3/4
f 650/1/4 651/1/4 654/1/4
f 654/1/4 651/1/4 655/1/4
f 656/3/4 657/3/4 658/3/4
f 658/3/4 657/3/4 659/3/4
f 660/3/4 661/3/4 663/3/4
f 661/3/4 662/3/4 663/3/4
f 663/3/4 662/3/4 664/3/4
f 664/3/4 662/3/4 665/3/4
f 665/3/4 662/3/4 666/3/4
f 666/3/4 662/3/4 667/3/4
f 668/2/4 669/2/4 670/2/4
f 670/2/4 669/2/4 671/2/4
f 671/3/4 672/3/4 673/3/4
f 673/3/4 672/3/4 674/3/4
f 675/3/4 676/3/4 677/3/4
f 677/3/4 676/3/4 678/3/4
f 679/3/4 680/3/4 682/3/4
f 682/3/4 680/3/4 683/3/4
f 681/2/4 682/2/4 684/2/4
f 684/2/4 682/2/4 685/2/4
f 686/6/4 687/6/4 690/6/4
f 687/3/4 688/3/4 691/3/4
f 690/6/4 687/6/4 691/6/4
f 691/3/4 688/3/4 692/3/4
f 692/3/4 688/3/4 693/3/4
f 689/6/4 690/6/4 696/6/4
f 692/2/4 693/2/4 697/2/4
f 693/2/4 694/2/4 697/2/4
f 697/2/4 694/2/4 698/2/4
f 695/6/4 696/6/4 699/6/4
f 696/6/4 690/6/4 699/6/4
f 690/2/4 691/2/4 700/2/4
f 699/6/4 690/6/4 700/6/4
f 700/2/4 691/2/4 701/2/4
f 695/6/4 699/6/4 702/6/4
f 699/2/4 700/2/4 702/2/4
f 702/2/4 700/2/4 703/2/4
f 695/6/4 702/6/4 705/6/4
f 702/6/4 703/6/4 705/6/4
f 705/6/4 703/6/4 706/6/4
f 698/2/4 694/2/4 708/2/4
f 706/6/4 703/6/4 709/6/4
f 703/2/4 704/2/4 710/2/4
f 709/6/4 703/6/4 710/6/4
f 710/2/4 704/2/4 711/2/4
f 707/2/4 708/2/4 712/2/4
f 708/2/4 694/2/4 713/2/4
f 712/2/4 708/2/4 713/2/4
f 713/2/4 694/2/4 714/2/4
f 710/6/4 711/6/4 715/6/4
f 711/3/4 712/3/4 716/3/4
f 715/6/4 711/6/4 716/6/4
f 712/3/4 713/3/4 716/3/4
f 716/3/4 713/3/4 717/3/4
f 718/3/4 719/3/4 720/3/4
f 720/3/4 719/3/4 721/3/4
f 718/3/4 720/3/4 724/3/4
f 720/2/4 721/2/4 725/2/4
f 724/3/4 720/3/4 725/3/4
f 723/3/4 724/3/4 726/3/4
f 724/2/4 725/2/4 727/2/4
f 726/3/4 724/3/4 727/3/4
f 725/2/4 721/2/4 728/2/4
f 727/2/4 725/2/4 728/2/4
f 728/2/4 721/2/4 729/2/4
f 727/3/4 728/3/4 729/3/4
f 721/3/4 722/3/4 730/3/4
f 729/2/4 721/2/4 730/2/4
f 730/3/4 722/3/4 731/3/4
f 727/3/4 729/3/4 732/3/4
f 729/3/4 730/3/4 732/3/4
f 732/3/4 730/3/4 733/3/4
f 738/4/5 735/4/5 734/4/5
f 739/4/5 735/4/5 738/4/5
f 740/4/5 737/4/5 736/4/5
f 741/4/5 737/4/5 740/4/5
f 748/6/5 743/6/5 742/6/5
f 749/6/5 743/6/5 748/6/5
f 750/4/5 745/4/5 744/4/5
f 751/4/5 745/4/5 750/4/5
f 752/6/5 747/6/5 746/6/5
f 753/6/5 747/6/5 752/6/5
f 756/1/5 755/1/5 754/1/5
f 757/1/5 755/1/5 756/1/5
f 760/1/5 759/1/5 758/1/5
f 761/1/5 759/1/5 760/1/5
f 765/6/5 763/6/5 762/6/5
f 766/6/5 763/6/5 765/6/5
f 768/6/5 765/6/5 764/6/5
f 768/6/5 767/6/5 766/6/5
f 768/6/5 766/6/5 765/6/5
f 769/6/5 767/6/5 768/6/5
f 772/6/5 771/6/5 770/6/5
f 773/6/5 771/6/5 772/6/5
f 780/7/5 775/7/5 774/7/5
f 781/5/5 776/5/5 775/5/5
f 781/7/5 775/7/5 780/7/5
f 782/5/5 776/5/5 781/5/5
f 783/5/5 778/5/5 777/5/5
f 784/7/5 779/7/5 778/7/5
f 784/5/5 778/5/5 783/5/5
f 785/7/5 779/7/5 784/7/5
f 786/6/5 781/6/5 780/6/5
f 787/6/5 781/6/5 786/6/5
f 788/6/5 785/6/5 784/6/5
f 789/6/5 785/6/5 788/6/5
f 794/6/5 791/6/5 790/6/5
f 795/6/5 791/6/5 794/6/5
f 798/6/5 793/6/5 792/6/5
f 799/6/5 793/6/5 798/6/5
f 800/3/5 797/3/5 796/3/5
f 801/3/5 797/3/5 800/3/5
f 806/6/5 803/6/5 802/6/5
f 807/6/5 803/6/5 806/6/5
f 808/6/5 805/6/5 804/6/5
f 809/6/5 805/6/5 808/6/5
f 814/3/5 811/3/5 810/3/5
f 815/3/5 811/3/5 814/3/5
f 816/3/5 813/3/5 812/3/5
f 817/3/5 813/3/5 816/3/5
f 824/3/5 819/3/5 818/3/5
f 825/3/5 819/3/5 824/3/5
f 826/3/5 821/3/5 820/3/5
f 827/3/5 821/3/5 826/3/5
f 830/3/5 823/3/5 822/3/5
f 831/3/5 823/3/5 830/3/5
f 832/3/5 829/3/5 828/3/5
f 833/3/5 829/3/5 832/3/5
f 834/2/5 831/2/5 830/2/5
f 835/2/5 833/2/5 832/2/5
f 836/2/5 834/2/5 830/2/5
f 837/2/5 834/2/5 836/2/5
f 838/2/5 833/2/5 835/2/5
f 839/2/5 833/2/5 838/2/5
f 844/3/5 841/3/5 840/3/5
f 845/3/5 841/3/5 844/3/5
f 846/3/5 843/3/5 842/3/5
f 847/3/5 843/3/5 846/3/5
f 852/3/5 849/3/5 848/3/5
f 853/3/5 849/3/5 852/3/5
f 854/3/5 851/3/5 850/3/5
f 855/3/5 851/3/5 854/3/5
f 856/3/5 851/3/5 855/3/5
f 861/3/5 858/3/5 857/3/5
f 862/3/5 858/3/5 861/3/5
f 863/3/5 860/3/5 859/3/5
f 864/3/5 860/3/5 863/3/5
f 865/3/5 858/3/5 862/3/5
f 866/3/5 858/3/5 865/3/5
f 867/3/5 863/3/5 859/3/5
f 868/3/5 863/3/5 867/3/5
f 873/3/5 870/3/5 869/3/5
f 874/3/5 870/3/5 873/3/5
f 877/3/5 872/3/5 871/3/5
f 878/3/5 872/3/5 877/3/5
f 879/3/5 875/3/5 874/3/5
f 880/3/5 875/3/5 879/3/5
f 883/3/5 877/3/5 876/3/5
f 884/3/5 877/3/5 883/3/5
f 885/3/5 881/3/5 880/3/5
f 886/3/5 881/3/5 885/3/5
f 887/3/5 883/3/5 882/3/5
f 888/3/5 883/3/5 887/3/5
f 893/3/5 890/3/5 889/3/5
f 894/3/5 890/3/5 893/3/5
f 897/3/5 892/3/5 891/3/5
f 898/3/5 892/3/5 897/3/5
f 899/3/5 895/3/5 894/3/5
f 900/3/5 895/3/5 899/3/5
f 903/3/5 897/3/5 896/3/5
f 904/3/5 897/3/5 903/3/5
f 905/3/5 901/3/5 900/3/5
f 906/3/5 901/3/5 905/3/5
f 907/3/5 903/3/5 902/3/5
f 908/3/5 903/3/5 907/3/5
f 913/3/5 910/3/5 909/3/5
f 914/3/5 910/3/5 913/3/5
f 915/3/5 912/3/5 911/3/5
f 916/3/5 912/3/5 915/3/5
f 917/4/6 918/4/6 921/4/6
f 921/4/6 918/4/6 922/4/6
f 919/4/6 920/4/6 923/4/6
f 923/4/6 920/4/6 924/4/6
f 925/1/6 926/1/6 927/1/6
f 927/1/6 926/1/6 928/1/6
f 929/1/6 930/1/6 931/1/6
f 931/1/6 930/1/6 932/1/6
f 933/4/6 934/4/6 937/4/6
f 937/4/6 934/4/6 938/4/6
f 935/4/6 936/4/6 939/4/6
f 939/4/6 936/4/6 940/4/6
f 941/3/6 942/3/6 945/3/6
f 945/3/6 942/3/6 946/3/6
f 943/3/6 944/3/6 947/3/6
f 947/3/6 944/3/6 948/3/6
f 945/2/6 946/2/6 949/2/6
f 949/2/6 946/2/6 950/2/6
f 947/2/6 948/2/6 951/2/6
f 951/2/6 948/2/6 952/2/6
f 953/3/6 954/3/6 957/3/6
f 957/3/6 954/3/6 958/3/6
f 955/3/6 956/3/6 959/3/6
f 959/3/6 956/3/6 960/3/6
f 961/3/6 962/3/6 965/3/6
f 965/3/6 962/3/6 966/3/6
f 963/3/6 964/3/6 967/3/6
f 967/3/6 964/3/6 968/3/6
f 969/3/6 970/3/6 973/3/6
f 973/3/6 970/3/6 974/3/6
f 971/3/6 972/3/6 975/3/6
f 975/3/6 972/3/6 976/3/6
f 977/2/6 978/2/6 981/2/6
f 981/2/6 978/2/6 982/2/6
f 979/2/6 980/2/6 985/2/6
f 985/2/6 980/2/6 986/2/6
f 982/3/6 983/3/6 987/3/6
f 987/3/6 983/3/6 988/3/6
f 984/3/6 985/3/6 991/3/6
f 991/3/6 985/3/6 992/3/6
f 989/3/6 990/3/6 993/3/6
f 993/3/6 990/3/6 994/3/6
f 995/2/6 996/2/6 997/2/6
f 997/2/6 996/2/6 998/2/6
f 999/3/6 1000/3/6 1005/3/6
f 1001/3/6 1002/3/6 1006/3/6
f 1003/3/6 1004/3/6 1009/3/6
f 1009/3/6 1004/3/6 1010/3/6
f 999/3/6 1005/3/6 1011/3/6
f 1011/3/6 1005/3/6 1012/3/6
f 1006/3/6 1002/3/6 1013/3/6
f 1013/3/6 1002/3/6 1014/3/6
f 1007/3/6 1008/3/6 1015/3/6
f 1015/3/6 1008/3/6 1016/3/6
f 1017/2/6 1018/2/6 1021/2/6
f 1021/2/6 1018/2/6 1022/2/6
f 1019/2/6 1020/2/6 1025/2/6
f 1025/2/6 1020/2/6 1026/2/6
f 1021/3/6 1022/3/6 1027/3/6
f 1022/2/6 1023/2/6 1028/2/6
f 1027/3/6 1022/3/6 1028/3/6
f 1028/2/6 1023/2/6 1029/2/6
f 1024/2/6 1025/2/6 1030/2/6
f 1025/3/6 1026/3/6 1031/3/6
f 1030/2/6 1025/2/6 1031/2/6
f 1031/3/6 1026/3/6 1032/3/6
f 1028/2/6 1029/2/6 1033/2/6
f 1029/2/6 1030/2/6 1033/2/6
f 1030/2/6 1031/2/6 1033/2/6
f 1033/2/6 1031/2/6 1034/2/6
f 1035/3/6 1036/3/6 1037/3/6
f 1037/3/6 1036/3/6 1038/3/6
f 1035/3/6 1037/3/6 1039/3/6
f 1037/2/6 1038/2/6 1040/2/6
f 1039/3/6 1037/3/6 1040/3/6
f 1038/3/6 1036/3/6 1041/3/6
f 1040/2/6 1038/2/6 1041/2/6
f 1041/3/6 1036/3/6 1042/3/6
f 1040/2/6 1041/2/6 1044/2/6
f 1044/2/6 1041/2/6 1045/2/6
f 1043/3/6 1044/3/6 1047/3/6
f 1045/3/6 1046/3/6 1048/3/6
f 1047/3/6 1044/3/6 1049/3/6
f 1044/2/6 1045/2/6 1050/2/6
f 1049/3/6 1044/3/6 1050/3/6
f 1045/3/6 1048/3/6 1051/3/6
f 1050/2/6 1045/2/6 1051/2/6
f 1051/3/6 1048/3/6 1052/3/6
f 1050/3/6 1051/3/6 1053/3/6
f 1053/3/6 1051/3/6 1054/3/6
f 1055/3/6 1056/3/6 1059/3/6
f 1059/3/6 1056/3/6 1060/3/6
f 1057/3/6 1058/3/6 1061/3/6
f 1061/3/6 1058/3/6 1062/3/6
f 1063/3/6 1064/3/6 1068/3/6
f 1068/3/6 1064/3/6 1069/3/6
f 1065/3/6 1066/3/6 1070/3/6
f 1070/3/6 1066/3/6 1071/3/6
f 1067/3/6 1068/3/6 1073/3/6
f 1073/3/6 1068/3/6 1074/3/6
f 1071/3/6 1072/3/6 1075/3/6
f 1075/3/6 1072/3/6 1076/3/6
f 1077/3/6 1078/3/6 1081/3/6
f 1081/3/6 1078/3/6 1082/3/6
f 1079/3/6 1080/3/6 1083/3/6
f 1083/3/6 1080/3/6 1084/3/6
